<mxfile host="Electron" modified="2023-10-03T12:55:38.503Z" agent="Mozilla/5.0 (X11; Linux x86_64) AppleWebKit/537.36 (KHTML, like Gecko) draw.io/22.0.0 Chrome/114.0.5735.289 Electron/25.8.3 Safari/537.36" etag="LAmKK-cNTJVg5AgUIbs2" version="22.0.0" type="device">
  <diagram name="Page-1" id="HaRchXNti7t99KPDA1IC">
    <mxGraphModel dx="2049" dy="1250" grid="1" gridSize="10" guides="1" tooltips="1" connect="1" arrows="1" fold="1" page="1" pageScale="1" pageWidth="850" pageHeight="1100" math="0" shadow="0">
      <root>
        <mxCell id="0" />
        <mxCell id="1" parent="0" />
        <mxCell id="-tSm10FkZ4Ool6qzO1sV-1" value="" style="shape=image;verticalLabelPosition=bottom;labelBackgroundColor=default;verticalAlign=top;aspect=fixed;imageAspect=0;image=data:image/png,iVBORw0KGgoAAAANSUhEUgAAAgAAAAIACAYAAAD0eNT6AAAACXBIWXMAAA7DAAAOwwHHb6hkAAAAGXRFWHRTb2Z0d2FyZQB3d3cuaW5rc2NhcGUub3Jnm+48GgAAIABJREFUeJzt3Xl8FdXBN/DfmTs3udlIAiFACBGCECvKplYgUIIsLu0j2L5Wn1ZbrdaNtr59umi11bTPay3dN0VcwGpb91ZsixsKikRcUVxZBQIBEhKyL/fOnfP+EYIsIbnJnZkzy+/7+fTzPELuzC8Q7vndmTPnCBCRf11/zxDo8VJNyskQGC0lTgQwGMAAAJkHv6oZQCOAaiGwFRJbTSHehhFaiz98c5+q6ERkL6E6ABFZSQp8964zNA1fllL+FyDGJnU4gY1Cyn+ZQj6K3yx8w6KQROQCLABEfnDDkmwY5jeExEIAo206yxYpxJ8RjS7Dn77TaNM5iMghLABEXnbDkmwtFr9BQnwLQJZDZ20UwJ/MWOyXLAJE3sUCQORF5eUaGoZeI4T8KYA8RSmqJVCOAfuWoLzcVJSBiPqJBYDIa75/zygRN5ZCoEx1lIMqJOKX47ff2qQ6CBElTlMdgIj64HuLvypM430XDf4AME1AexvfXXyx6iBElDheASDyggsfDWkj6m6TkDeojtITIcXdZvbehSgvN1RnIaKesQAQuV35oymiofZvEPg/qqMkQkA8ZjaLr+Luq2OqsxDR8bEAELlZ+bKIaOh4HEJ+XnWUPhHyXzJqXIg/fadDdRQi6l5IdQAiOo7yck00Rh6CwHzVUfpOlGghvUSeffoTWL1aqk5DRMfiJEAil9IahvwawJdU5+gvCXmh1jjkdtU5iKh7vAVA5EbfW3ypkHhAdQwrSIn/xu+ufVh1DiI6EgsAkdv8YMloETffRueGPX7QLENiMn51zWbVQYjoU7wFQOQm5eWaMOJ/g38GfwDIFHG5DJD8wEHkIiwARG7SlH8lhDhTdQwblOJ/7rpcdQgi+hQbOZFbfPfegULENkLd2v52q5EpsgS/uO6A6iBExCsARK6hacZ34d/BHwAGIyquVx2CiDrxCgCRG9ywJFvE5HZA5qiOYrMGabaPxO+/W686CFHQ8QoAkRsY5tUBGPwBIBsicoXqEETEAkDkCkIiMBPkhIZvqs5ARCwAROr9zx3TAJykOoZjJErw/SV+fNKByFNYAIgU0yA8u9xvf2lSBu57JnIbFgAixSTEOaozOE1KGbjvmcht+BQAkUo/vKdQGEalY+eTgIhFIWMdgBnv/LVQCEJPhQynOPmOIKVuFOKX365y7IxEdARddQCiQDMMx+6Fi1gUaGkC4kY343wrRCgEZGRDhsOOxEEsfAaA5U6cjIiOxVsARGqd6sRJREcb0HgAiBvH/6J4HGiqg2hvcyISAExw6kREdCwWACKFBDDe9nPEokBzY2JfLAG0Nna+xmZCyIm2n4SIjosFgEiV8nIdQKnt52lp6tvXS3QWBmlLmsNNxYWPhmw/CxF1iwWASJWGoV8HkG/nKUQ02vNl/+Mx4xCG7VcBhmJE7aV2n4SIuscCQKTC95ZMF0L+zu7TyFhHEq914DYA8Ef838X2XwUhomPwMUAip3z7j6kIhT6jaaGvS8iFAOyfbt9UDxHtXwmQKalAliPbE8SExJ9NIf6CWPRj/Ok7/W8tRJQwFgByh+8vLhMmfgCIaQHZFMcZTQ0Q0fZ+vVSmRoDMbIsDeYhhAB1tnU9QSAsmRAhNSl2rkVrqbbj7B39M/oBEyWEBIPW+u/h7QuBX4M+j9VqbINpa+/VSmZYBpGdaHMiDjBhE4wFrSsBBMiWyXN5z4wLLDkjUD5yBS2p9f3GZAP4GDv62EFIA/bwCINIzgRDfIqCFILQQ0M9bKd0RceMkOe28/Xjz+TcsOyhRH3ESICnVedmfg79dZEpK/wbxkA6pp1gfyKNkagTQrH27FDHjJ5YekKiPWABItamqA/heRnbfKpYAZEYWa9lRpG7tnE0RM2x9BJSoNywApFqu6gB+J8NhIH1AYgO6AJAxAAjz0/8xLL4CAJisWKQUNwMiCgAZSYMI6UBLQ+ea/90J6Z2f/Dn4d8/+lRGJHMUCQBQQMhwGsvMgjIPbAcfNzt8IhSDCKZ3bARNRYLAAEAWJQOdAf9Rgzw+3RMHDOQBEREQBxAJAREQUQCwAREREAcQCQEREFEAsAERERAHEAkBERBRALABEREQBxHUAXEI+emEINbsnIxSfaUoxTgAnARgOIBNADny6Mntos+oEROqYi6f4dQkGCaAeQDMgd0khPtYgP0Q89BIGD39bfPmx4yxHSU7y5aDiFbIcGoZOnWWa5teEEPMBZKvO5LTQ5q+rjkCUmOZGiI42Sw9pTHnG0uN5gpD1UorlGswHsO/11aIcpupIQcUCoIB8dFwK6gZcLKV5EyBKVOdRiQWAPIMFwHoSnwhN/gGpaUvE5avbVccJGs4BcJi8c8r5sjZro5TyL0Ef/Iko4ARGSSl+L9s7PpCLp35BdZyg4RwAh8glp+VJM+VeCTlfdRYiIneRxRL4l3nnlH8I07xKfOv1WtWJgoBXABwg7/zsDGmG14ODPxHR8Ql8UYa09fKOqdNURwkCFgCbycVTL5BCew5AoeosREQeMEJqcpW8a8pFqoP4HQuAjeSdZ14lIR8HEFGdhYjIQ1KkxN/l4infVB3Ez1gAbNL5yV/cCf4ZExH1hyaBu+TiKV9WHcSvODjZQC45c7qEfBhASHUWIiIP0yTwAOcE2IMFwGLy3qkDpSn+BiBFdRYiIh9IlZp8RC45LU91EL9hAbCYjGEpgCLVOYiIfKRQmuG7VYfwGxYAC8m7zpzPR/2IiGxxARcLshYLgEXko+NSpBS/V52DiMivJOTv5ZLTwqpz+AULgFVqs74OYKTqGEREPjYacf0S1SH8ggXAArIcmgR+qDoHEZHfSYgbZTnHLivwD9EK+VPOAnCi6hhERL4nMBaDz5ypOoYfsABYwIS8VHUGIqKgMEOC77kWYAFIknz0wpAQgjP/iYgcIiQW8DZA8vgHmKzaXacByFYdg4goQHKRf+Yk1SG8jgUgWcL8nOoIRESBownOA0gSC0CSTClOUZ2BiChoTCnHqc7gdSwASRJAieoMRERBIyD43pskFoDkFaoOQEQUQCNUB/A6XXUAH8hSHYD6QAIiFoWMdQBmHJBSdSJSSQggFILQUyHDKYBQHYj6gO+9SWIBSF6G6gCUGBGLAi1NQNzg+zwdpRUiFAIysiHDXGreI1gAksRbAMljifIA0dEGNB4A4obqKORW8TjQVAfR3qY6CSWG771JYgEg3xOxKNDcqDoGeYEE0NrY+TND5HMsAOR/LU2qE5CXSHQWRk4PIZ9jASBfE9EoL/tT35lxCINXAcjfWADI12SsQ3UE8ijJ2wDkcywA5G9mXHUC8ipeOSKf4yxKn4gNnYS28RcjNvhUyNRM1XES96P7bD4BH/ijfhL2/+x8+NUXbT+HVTQAqdF6DPzgb8j+8AnVccgCLAA+0HbKxWj57LXgYNeNEC9yUT9pIdUJXMUE0JaSg92TFqItfxKGrv6x6kiUJL47elxs6CQO/j0Q4RTVEcij+LNzfHXDp6HxpAtUx6AksQB4XNv4i8HB//hkOBUI8ZMc9VFIh9RZAHpSe+qlqiNQklgAPC42mLsR9ypjADsSJU4AMiOLPzO96EjJUR2BksQC4HEylcth90aGU4B0lgBKgEBnYeTl/16ZqgNQ0jgJkAJBRtI6N3tpaexc853oaCG985M/B38KCBYACgwZTgGy8yCMg9sBx01A8nNMoAmtczvgcErnzwdRgLAAULCIg0WAb/Z0GC77T0HEOQBEREQBxAJAREQUQCwAREREAcQCQEREFEAsAERERAHEAkBERBRALABEREQBxAJASqVwu14iIiX47ktKZUa4IA95hMWrRmrcpZIUYwEgpUYO5GZG5A0iblh6vPRIqqXHI+orFgBS6tThg1RHIOqdlJZvIjUiL9fS4xH1FQsAKfW50cNVRyDqlYjFLD/mvPFjLD8mUV+wAJBSc08agew0Xgold5PRNkuPJ4TAtWdNtvSYRH3FAkBKpeohXHbmSapjEB2faUJEOyw95JknFSMnI2LpMYn6igWAlPtO2QTkZaSpjkHUvdamzjkAFtE0DYsv/7xlxyPqLxYAUi4zNYzvzZmoOgbRsYwYREe7pYecP2U8huVkWnpMov5gASBXuPzMk/GliaNVxyD6lJQQTQ2WHrJo2GAsvuw8S49J1F8sAOQKQgC//eJ0TCocrDoKUefg33gAMK179C8jPQ3P/fBSy45HlCwWAHKNSFjH41eei7M/M0J1FAoyKYGmesCw7tG/3JwBWH3LFZz4R67CAkCukpkaxrJL5uK6GadCE0J1HAqauAHRUAsRi1p2yEljTsC7P78OIwYOsOyYRFbQVQcgOlpIE7j1vM/i4tPG4NcvrMdT732iOhL5nWkCbc0QHW2ARRP+c7KzcPvFZ+OC08Zac0Aii7EAkGuVDMnFPV85C1d8shcPvbUJKz/ehf0t1i7IQgEmJYRhQEbbINrbYcXIr4VCOGFoHq6cdTqu+NyE5DMS2YgFgFxvyqihmDJqKKQEtu5vwKbqeuxvaUNjexTSwuezyf+iMQNRI47axhbU1DciZiQ3yU8IgZyMCApyszD1xBEoKymCpvHWFXlD4ArAnnPPHawZxlgAo2Cao6QQIzUpB0tNGwQpBwHIQ+fciBQAGQdf1gwgBiAKoBZS7ocQ+yWwu3VzB0IZEqEME3qWyVkVNhICOHFwNk4cnK06ChEpEBcCtWkpOBBJwYFIGOUbvvFHSDkcQuYBIg9AHiDCgAwD6FpsoQUQ0YP7Oe8HUAtgP6SsEULbIYX8RBPmJ2Z76sby0+/er+p7U8HXVXXvvHn5QspSAFMg5QQAEwAMtet8QpMIZUnoOXHoA02EB8WhZ0tYdlOxG/u/8bJtxyYie1V3WLvFsNNO/ttZth1bCoHq9BTsGJCOPZlp2JceQXVGCkxbJwfLPRBiA6R4BzDXpRhi7U2Tl9XYeEKlfFUAakpLs8z09DmQ8lwAnwNQojqTCEuk5MURHhpHyrA4QmmmpcdnASDyLhaAIzVEwtick4ktAzOxMysd7borLql+DOBlQD6NUPrK8nF3NqsOZBXPF4CqsrK8kK5fCOBLAGag89K9a+nZcaQMjyMywkAoM/kywAJA5F0sAEBtJAXv5w/AR4MGoDrd9TuDdgBYI4DHZTT8hNdvGXiyAHxSVhZJD4W+BCEuATAHHp3LEM41kXpCDJEiAyLcv9sELABE3hXUAtCua3g3PwcbBmdjT6ZnF0eKAVgJyL8OTMt64jtj/mTtlpEO8FQBqJ47d4w0zashxGUABqnOYxWhS0RGxBEZFYWe27erAiwARN4VtAKwJzOCN4cOxPuDsxDTXHF53xoC+2Hi/pAp7/7JpPs3q46TKE8UgJp5804zTfN6AF8BEFKdx07hQXGklcSQOtRI6G+HBYDIu4JSAHZmpaOicBA2DfT9LogmJFZAw+3lpy6rUB2mN64uAHvnzTtLmOZPAUxXncVpeq6JjJOjSBna8xsECwCRd/m9AGzKzcSqEwZjXyD3QJAvQ+DW8lPvX606yfG4sgDsOeusz2qadhs67+8HWnhQHBmnRBHO637BEhYAIu/yawHYnpOBF4sGY1dWmsOJ3Eg+B6HdXH7q0jdVJzmaqwpAzdy5BaaUvwBwCVyWTbXUYXFkTOhAKOPIOQIsAETe5bcC0JgaxotFg7Ehn4t1HUPi39DjC8vHPbBTdZQurhhkN597bmqWYXxPSHkTPl19j44iQkBaSRTpJVGIg/NnWACIvMsvBcDQBF4pzEPF8EEwuBRyT5oF5P+ToZbflY97zLotJ/tJ+TTM6rlzJw6IxV4VUt4GDv49knGg9cMUHHguHbH9vp4LSUQeUTkgDXdPGIWXR+Rx8O9dpoT4BeKZb/3s/cvOUB1G2d/W5nPPTR1gGD+DlN+Dz2f220MifYyBtl/+B0hx9dpHRHQcXr4CEJcxVK37Gl4fmgtp6/K8vmUA8tcD07LKVa0hoORvbf+8eSfFTfPvACapOL+fiKIi4Ic3AKNGqY5CRH3k1QLQGNuD12qWoSG6W3UUP/gAUru4fMJ97zt9YscLwN7Zs68QQvwBvNxvndRU4KqrIc45R3USIuoDLxaArY0vY8OBfyAuY6qj+EkzIL5dPn7p/U6e1LEC8MGFF6YMrqu7QwpxpVPnDJxZsyC+/Z3OQkBEruelAhCXMayvfRTbm12/vo2X3Y1Q87edmiDoSAGoLisbKsPhJyDlNCfOF2hjxkD8+CdAXp7qJETUC68UgNZ4HSr2LUF9dJfqKEGwJixCF9586r377D6R7QVgz6xZ40Qo9LQARth9Ljpo0CCI8p8CxcWqkxBRD7xQAOqjO/HKvsVojzeqjhIcEjsg5Dnl4+//2M7T2FoAqufN+5w0zScB5Np5HupGWhrEjTcCpyt/0oSIjsPtBWBP63tYV7MMcem5je78oE7TzPNvOeUva+06gW0FYO+cOfMF8DCAIC4C7Q66DvzP9yBmzlSdhIi64eYCsLPldbyx/0FI2bcdSslSbUJoF9566n3/sePgthSAvbNnf0EI8TgAzkZTTQiIq68G/ut81UmI6ChuLQDbml7B+tqHISFVRyEgKoS4+NZTl/7T6gNbvhJg9dy5Fwoh/gEO/u4gJeSSJcC//6U6CRF5wJam1Xibg7+bpEgpH/npu9/4ktUHtrQA7Js9e66U8q8AwlYel5IkJeRdd0GuWKE6CRG52PbmCrxT+zjAwd9twlLIh8o3XHaelQe1rABUz549A0IsB8B1ad1ISuDOO4BVq1QnISIX2tG8Dm/t/zs4+LtWGBCPlb93uWWP01tSAPbOmXOqFOJfALj5s5tJCfn73wHr31adhIhcZG/bh3iz9m+87O9+6ZDi3+UfXH6yFQdLugBUlZXlCeCfALgBtBcYBuTPfw5s3ao6CRG5QH10J9ZV38vZ/p4hcxHHf8rfvTQ/2SMlVQA2n3tuaigcXg5gdLJByEGtrZA/LQcO1KlOQkQKtRn1eGXfYhh8zt9rRkLoj5d/cGFSt9yTKgDZ0eifubyvR9XWQt52GxDjhh5EQRSXMVRU380V/rxrBoyMPyRzgH4XgOrZs7/OjX087qOPgLsWq05BRAq8XfswDkR3qI5ByRDimvINl32lvy/vVwHYM2vWOCnEHf09KbmHfOYZYOVK1TGIyEGfNFVgR/M61THIEmJJ+YbLTurPK/tcADafe26qFgr9HUBGf05I7iMX3wns4i5fREHQGNuDd+oeUx2DrJMJKR7qz3yAPheArFisHMD4vr6OXKy9HXLRLzgfgMjn4jKGdTVLEZeObDdPThGYiHjmT/r6sj4VgH2zZ08VwA/6ehLygG3bgL//XXUKIrLRh/X/QWO0SnUMsseN5e9c8dm+vCDhAiDLynQIcReAUJ9jkSfIJx6H3LRJdQwiskFdx3ZsbHxBdQyyjw7NvG/Jm1clvBR/wgWgOhT6H/DSv7/F48Affg8Y7tyhjIj6x5QG3tj/IMDFfvzulL2pxncS/eKECkDVWWedACFu6X8m8ozt24HlT6pOQUQW2tT4Appie1XHIAdIKcvL372yMJGvTagA6KHQL8BZ/4EhH3oIqK1VHYOILNBmHMBH9c+qjkHOyQTMnyfyhb0WgJq5c0+XUl6UfCbyjLY24L57VacgIgu8e+AJxLnUb7AI+dWfvXPFpN6+rNcCYEr5CwDCklDkGfLll4GPP1Ydg4iSUNexA7ta3lEdg5ynmcL8Ta9f1NNv7pszZw6A2ZZFIu+QEvL+ZapTEFES3jvwJMAtfoNJYNbPNlw+s6cv0Xt+PW523Y+OpgGTJgOTJ0EMGQoAkHv3AOvf6dzn3nT5LFcv5X/vvc5MkyarTkIWMUwTa7ZWYdXG3aisb0JzB5/4SEZmqo6inCyUlQzHjNEF0LWkd1i3zN62D1DTzsd6g8wEfgzgpeP9/nEv7e+bPXsqhKiwJVV/TZwEce21QGH3ExxlZSXEnXdCbnjX4WAJ8mL+z3wG4te9XkkiD1iztQo/Wl6BzTUNqqP40tj8HNw+fyqmFxck/JpqGwvYqj2/QW3HNtuOT96gaeb0W075y9rufu+4i/r8cPToxQDG2paqj8Q550D88AYgJ+f4X5OdDcyaBTQ2Aps3O5guAZ//PMQPfpBQflFXB2zd6mC4HuzfDzF+PDBkiOoklIQHX9+Iqx9ehf0t7aqj+FZtSzv+8c42DBmQjvHD8xJ6TUvcnit+1W0b8XHDM7Ycm7xFSm3g6sXrH+nu97q9XrVvzpxiCZxnb6w+mDgJuG4hEEpgEcJQCOLa64Dz59ufK1Hnz+/MlGB+LPwWxPgJ9udKkHyk258d8og1W6tww/K1iJuuu6HnO4Zp4oYnK7Bmm9rldj9ufE7p+clN5H+Vr79sZHe/0/0NKyEWHvf3nKZpwDXXJDZ4dhEC4qqrIFxQAsR550FcdRUg+vAgRSgELEyw8Dhh/dudCwSR58RNiZufepWDv4MM08SNT1bAUDSfpzG6B9VtG5Wcm1wphJC4trvfOGaQ/6SsLAIpL7c/U4ImTYYYMaLvrxMCuOoqtVcCzp/feeWiL4N/l8JCwE1XAZ5eoToC9cPqLbuwsbpedYzA2VLTgFe2qrkKsKVpFTjzn45yRfknl0WO/sVjCkBaKDQfQK4jkRIxude1DI7v4JUAJSXg/Pl9/+R/tNNcNPv+hReA1lbVKaiPXtrEnd9UWb1pt+PnjJlt2NH8puPnpSOFtQh0LUV1jMMNQqP4wtG/eOxjgEJ8zZE4Cep6VK7/BzhYAgDIp5ZbkCiBU553XufVh2QGfwAif4h7enxbG+SaNRBnn606CfVBZX2T6giBVVnf7Pw5m9/kqn+KFGWcgnE5M1CY/hmEtVQAQGu8ATua38e7B15AXYfzhfAIApcCePzwXzqiAFSXlQ2VwDxHQ/VGWjAEHrwdIGB/CRDnndf/y/5Hs+J7t9ILKwGXFoDt7TFUNLSjssNAu5vWUjhMRNNQlKpjanYEIyMJ79iZFC7hqY6KP/vtLa8pOGuwpWhpmDPsGxiZeexmuemhbHwmuxQnZU/DO3XPYt3+5ZDqdmQ8t/zNq/LKT797f9cvHHELQIZCX0QviwM5TVbvs+ZATswJSOaefzdkTbUlx7HMhx8Ce/aoTnGMisY2PLC3EZvboq4d/AGg3TSxqS2KB/Y24tXGNkfOOSIny5Hz0LEKczIdPV9zrBp1HdsdPWfQRfQsXFD0/W4H/8MJCEwaeA5mDVF6gT2McGzB4b9w5BwAIdRPmz/aW29bdyw75wRYcc//aFZ+71aQEljzsuoUR9jeHsPKulb33CpJgATwfF0rdrbHbD/XzLHDbT8HdW9WSUI7slpmZ8ub4OQ/50T0LCwo/C4GpSb+93xS9lR8JrvUxlS9OmLwO1QA6ubMyQZQ5nSaXr2zHnLnTuuOZ0MJ6Nejfr3ZsQN414WbeKxbpzrBESoa2j35licBrG2wf1GemScOR8kQ98zpDYoxg7NRWjzM0XNWtbpoBVGf6xr8B6b2vWB/Nm8+NKHoQrvA3EUff+PQZcFDBcCQci4AV01bBACYJsTixUA8bt0xrSwBFl/2B9D5vS5e7K59AQ6SmzYBtbWqYxyyK+rdtewrHcge0gRuO3+Kq9ao9ztd07DoglJH/8xb43WojyqeZBYQyQz+AJChZ2N4eonFqRKW2hY1D23wd+gnVApxlpo8vZMb3oVccpe1k+KsKAF2XPaXEnLJXZDvbbDumFaSEvI190w0arNpKVUnOJV9RnEBFi2YxhLgAF3T8MsFpSgd5eyn/z0t74OX/+2X7ODfZWjaKIsS9Yd2aKw//B3BtQUAAPCf/wB33uGaEmDLZX8pIe++u/N7dTM33pqgHl1yRgkevuJsjM0//l4UlJyS/Bw8euU5+OoZzm+hsq/9Y8fPGTRWDf5A59MB6shZXf+fDgA1c+cWmFIquyaRKLliReejNVZecj9YAiQAJPiIoKWP+nXpGvwdWqsgKe+911nErPz+yXYziguw6voL8Mph2wE3cTvgpGSl6ijKzcKskkJMLy5ASHP+34SExP52l21+5jNWDv4A0GG2WHKcfhpX/u6l+eUTHqzWAcCUcorKNH2hugQEfvAHgIYG4JNPgOJi1Umoj3RNQ9mYQpSNcXaGOtmnProLUZOrdNrF6sEfAGrVLgokgPAUAE9pACCFOF1lmr6SK1YouR3Awf9T8mNeciRyg7r2T1RH8C07Bn/DjGJny4eWHa9fhDwNODgHQMjO//ASp0sAB/8jiS285EjkBnXRHaoj+JIdgz8AvFf/IjriSm8BAMDpwKer/k1UGKTfnLodwMH/WHLTJi4zS+QCB1xXAASGp5+EEzJPRk54CCAEWmL12NX6EbY3v4e4tH8BrGTZNfjXtO/A67WumOQ9GQD0yrPPHoh4PF91mv6yuwQII8bBvzuVlYBhALqrVo4mChRTGmiKWbRcugWGpI3EzPxLkBc5dgv3cTmfQ7NRj4rqR7Gl6S0F6RJj1+BfH92H/+y6A3Ezaulx+2lo+frLcvQUwyjx+mxuuWIFoIetfSzvsF0EOfh3wzCAvXuBQk4mI1KlOVajcnOZI4zKnIh5BVciJI6/0VWmnoN5BVdhUO0KvLbffe+Bdg7+yyt/g9Z4g6XHTYYWxhhNAM4/tGqHp5bbMieAg38Pdu1SnYAo0Nzy6T8vdQTmDruix8H/cKcNOg/T8r9kc6q+sXvwbzHcM/gDgDS1sZoUQuWSRJaSK1YAd/zZfdvoAv4b/AGgikuPEqnUbLhjx9DSIRdC1/q2kvzE3Hkozb/QpkR9E7TBHwAk5CgNgLNrVtpMPv20+0qAHwd/ANjvnj0BiIKozahXHQGDUodjeFr/1pGbkDtH+ZWAIA7+AAAhhmkAhqrOYTVXlQC/Dv4AZB0LAJFKbS64pzwi/eSkXj8xd56yEhDYwR8ApBymQQjfFQDAJSXAx4M/AKCuTnUCokBzQwHIShnBToSeAAAgAElEQVSY9DFU3A4I9ODfaZgGKX27O4jSEuD3wR+AaGpSHYEo0NywBLBV764Tcuc4VgI4+AMAsjUAmapT2ElJCQjA4A8AslX9mw9RkBmyQ3UENEWtuxXoxJwADv6HZGoAMlSnsJujJSAggz8AoL1ddQKiQDNM9f8Gd7Zau669nXMCOPgfIUMDkK46hRMcKQFBGvwBCBYAIqVMqX475wMdVdjd+pGlx7RjTgAH/2NkaEBwlnS3tQQEbPAHAKlpqiMQkQusqX4UMdPa2xFW3g7g4N8toQNwxzqSTvH4sseuwgLgOYZpYs3WKqzauBuV9U1o7lD/CTIZmak6inKyUFYyHDNGF0AP2M+kcMnnt7qOKqzccy/OLrgGmghZdtyJufMAABXVT/T7GBz8j8sMVAGwZVe/Qwc/dhdB3wvYm63XrdlahR8tr8DmGs++YR3XXWvfx9j8HNw+fyqmFxeojuMgdxQAAPikeQOeq7oH8wq+aXkJENCwtvqxPr+Wg3+PpAbA/XszWsDWwf/QSQ5uIHT+fPvO4Sa8muIZD76+ERctfcaXg3+XTdX1uOi+Z/HXNzaqjuIYAXeV8G3N6/Fc1T0wZdzS4/bnEUEO/r0yNAC+f5jbkcH/0MkCVALS0lQnoASs2VqFG5avRdx0wcqYNjNMEzc8WYE126pUR3FEX9ffd4IbSgAH/4Q0aBJoVJ3CTo4O/odOGpASkJWlOgH1Im5K3PzUq4EY/LsYpokbn6yAYfr/7maK5s6nuFWWALsG/4ZotZ8GfwCo1wTgm+/maEoG/0MnD0AJyPT1GlK+sHrLLmysVr9hjNO21DTgla3+vwqQEnLvU9wqSoCdg/+T/hr8AaBRA7BXdQo7KB38D4XweQlgAXC9lzb5fxA8ntWb/L9ddVhzbwEAnC0B9g/+PivSQu7RIOUu1Tms5orB/1AY/5YAkePbbSR8o7Le91N8jquyvll1BNulau6/DedECeDg3w+m2K0LIXb56e6gqwb/Ln59RHDIENUJqBcu+lfguCB87xl68jvxOWFb83o8t+cezBtm7SOCE3LnICR0FKSN4YS/vtJQqZlSfqI6h1VcOfh3OVgChI+uBMghvtxJ2ldG5Lj/E6JdCnP8f4sqI5ynOkLCtjXZcyXglJwymyb8/da/gz8AmNiuCV3/WHUOS5w/3/rBX0prlw0WAvDT7YChLABuN3OstW+MXjKrpFB1BNtl6t4pAIB9twOs5OvL/ofT8aHW2tGxEYB7/zYSIM47r/M+u8WDv7z7buv3DvDTlYBhw1QnoF7MPHE4Sobkqo7huDGDs1Fa7P+fzwyPFQDA3SUgMIM/EAOat2ijVq9uB7BFdZr+suWy/2Eb+9iygdDBKwGeLgF5eRBcB8D1QprAbedPCdQa+bqmYdEFpYH4nlNDWYiEBqiO0WduLAEBGvwBYHP5uMeiXf9C3lQapZ/sHvwP/RJLwDHE6NGqI1CCZhQXYNGCaYEYEHVNwy8XlKJ0lP8//XfJTRmhOkK/uKkEBGzwByBfB9C5kLQAXlMbpu+cGvwP/RZLwJFGn6g6AfXBJWeU4OErzsbYfP8+ulmSn4NHrzwHXz1jrOoojspJLVIdod/cUAKCN/gDENprAKADQFzKdZobZ84fh9OD/6EvefrpzkeLFn7LunN3lQAA0kuPCBYXq05AfTSjuACrrr8Arxy2HXCTx7cDzkrVUZSbhVklhZheXICQ5p33MavkpHh7smNXCbB6F8FEBHLwBwCz8wqADgBD4/H11breCMD1N5NUDf6HvpQloDPvZ05SnYL6Qdc0lI0pRNkYbw8a9Km81NHoXPXAuyu6qCgBgR38gXrUnbAB6LoFsHq1IaR8SW2m3qke/A+9JOi3A0aOBHKCN7OcyI1SQ1kYEPb+I7lO3g4I8OAPSLxYPqvcAHDYZtJCPK8sUCK+8AVXDP6HXvr0052vtWOdgM9/3rpj2kCMn6A6AhEdJj/ij3kPTpSAQA/+AKB9OtZ/WgBCoaeVhEnExEkQV13tmsH/kKeW21ICxNXXuHqQlRMnqo5wSFrIuzPbvZyd3CU/rUR1BMvYWQICP/gDEob5TNd/HHoHyn/22S0A3lMSqSeaBlxzDRCy8L6QFYN/l6eWW387IBQCFi609nu2SkoKxCmnqE5xyIgUXXWEfitKceHfL3lSfloJQiKsOoZl7CgBHPwBQLxdPun+7V3/dfRHkCecDZOASZMhRlj4nKuVg3/XIe24HVBYCLjxKsDkyUC6e7YgnZod8eSmLwLAtOw01THIJ3QR8c1tgC7bmtfj6d2LETXbkj7WvrZt+OfOXwd88AeEkEeM8UcUADMef9zZOAmYPMm6Y9kw+B9ix+2A0yZbdyyLiKnTVEc4wshIGHMHpnuqBAgAZw/MQFHEP5/YSL3hGe65NWeVHS3v4Ykdv0B9dF+/j/FRw1r8s/I3aI37eGOfBMl4/PgFYNiqVR8AeMvRRL0QVu04Z+fg3+Wp5cCdd1hWAkS+y7bb1XXIM89UneIYUwek4bKhAzA2LcXV99XTQhpK0sK4bOgAnDkgojoO+UxB+gQI4d6f//46EN2LR7b/DC/t+2ufBvF9bduwfOdvsWrvAzClt9e7sMir5RMf2HT4LxxzA1UIsUxKeZpzmXphxWDqxODfdaoVKzo/jVrxxIKVVxOsMGmya9f/L4qE+YmaAi1Fy8CQyEnY2/ah6iiWi0sDH9SvwcbG11CUPg4nZJ6K4eljkRHKRkhLAQB0xJvRENuPnS0fYHvzBlS3b1cb2nXE/Uf/yjEFoEPTHkqJx38NwBUfUWT1vuQu7zo4+B865YoVgB5OeodCWVNtYarkibPPVh2BiHowKrPUlwWgi2FGsa15PbY1rz/0a2Etgrg0+Cm/Z62RqP7I0b94zPWiEc8+WyeBh5zJlIC33u7/axUM/odYMScgme/dajm5wBlnqE5BRD0Yln4KUkPuvEpnl5jZzsG/dw/eePrdx9w/6f6Gkab9Fm5ZV/Kd9ZA7d/b9dSoH/y7JzAnYsQN49x3rM/XXnDmA7t1H7oiCQBM6Tsj4rOoY5DIa5B3d/3o3hj733PsCcMfSwKYJsXgxEO/D86BuGPy7oqxY0fcrAfE4sHgxYJr2BesLTYM491zVKYgoAcUDZgA+nAxI/SVeuGX8/d2u8XP8nxIpF9mWp4/khnc7F9tJpATE45CL73TF4H/IU8s7MyWYH3f8GfK9DfbnSpCYPh0Y6v21xomCIFMfjMJ0/z0SSP0jZPz24/5eTy/cN3fua5DSNdeTxPgJkNdeC1F0nP2vd+wAFi921eB5OK/mF7/9HVDin6VGidyi2qbtmA9Ed+KFKtd8hiN1Xi0fv+y4i7f0eFNXmub/CiH+ZX2m/pEb3gUWXgc5YSJw2uRDawTIfXs7J8y9+457Lpt3w4v5xanjOfgTeUxuShEGR8aipn1T719MviVM/LTH3+/tAPvmzHkFQKllichTxE03A6X86yeyg11XAABgV8vbWFdzn23HJ9d7qXz8srKevqD3mSKm+UO45YkActaAAYALV/4jot4VpI9HiuaefTvIUVLT5A96+6JeC8CQF1+sAPAPSyKRt5ScxEf/iDxKEzoGpo5UHYNUEOKRW065/43eviyhZ0VMXf8+gNakQ5G3nHCC6gRElIQBKQWqI5DzmnXIHybyhQkVgGHPPLNdAj9PLhN5TiRVdQIiSoIuUlRHIKcJ/PTHpy6rTORLE14tojY391cS+Lj/qchzojHVCYgoCXEukRs07w/rCP8h0S9OuACMe+yxKIDLAfRhST7ytN27VCcgoiQ0xfapjkDOMTRNfuPq0+9O+JNbn9aLHLpy5ToI8Zu+5yJP2rxZdQIiSkJDlCU+MAQWJTLx73B9XjC6UddvAfB+X19HHlRd3fk/IvKcFqMWLUat6hjkjHehNf+sry/qcwEY8/TTHWY8fjH4VEAwbHDXssRElBiuAhgYLSER+u/ycY9F+/rCfm0ZNWzVqg+klN/pz2vJW9y2LwERJaamfYvqCOQEKa77yan3ftSfl/Z7z8ihL7xwH4T4S39fTx7BKwBEnrS/nXN4/E/cUz5h6QP9fXVSm0a3xmLXAHgtmWOQy3EeAJHntPL+fxBUDEzL+HYyB0iqAIxavbpdGMYCCMGppn7GqwBEnlLN+/9+VwVDXPidMX/qSOYgSRUAAMhfvXqvJsQCAE3JHovcifMAiLyF9/99rVHTxHnlk5dWJXugpAsAAAx+7rm3pKYtAJBUGyF3Eu++qzoCEfVBTRuvAPhUTAj5f245Zaklb8qWFAAAGPrccy9CiCsBmFYdk9xB1tRwHgCRR7QYtWiN16mOQdYzIeXXbj31/uetOqBlBQAAhjz//F8F8E2wBPgP5wEQeQKf//clCYhryyfc/7CVB7W0AABA/sqVS6UQVwOQVh+b1OE8ACJv4P1/35GQ8lvl45febfWBLS8AADD0+efvhZTXglcC/INXAIg8gc//+0pcQF5dPuH+O+04uC0FAACGvPDCEinlVwFwT1k/4HoARK7H5/99JQohvnLr+PvvsesEthUAABj6wgsPC9OcD6DZzvOQQ3gVgMjVqvnp3y+ahInzy09d+qidJ7G1AABA/osvPi2BaQB22n0ushfnARC5Ww0LgB/s1kxt5q0Tlz1r94lsLwAAMHTlyvc0IaZK4E0nzkc24RUAIlfj/X/Pey2sh8+4ZeJ96504mSMFAAAGP/98VVM4PF0K8UenzkkW4zwAItfi/X+Pk+LBAc3Ns24++e49Tp1Sd+pEADDm6ac7AFxfPWfOuxL4E4B0J89PFtiwAZgzR3UKIjoK7/97VouQWHjrhKWO767r2BWAw+WvXLk0pGmnAXhbxfmp/zgPgMideP/fk97TIKfeOmGZ44M/oKgAAEDec899vD83dyqAXwGIq8pBfcR5AESuxPv/nhIH5C8Qaj79lvH3v6cqhFB14sNVz5kzSQL3ApisOgv1Tiy7H8jPVx2DyPOqOwxLjtNq1GLFrlssORbZTW6AGfpm+cT7XledRNkVgMPlr1y5Pv/AgSkS+DGAVtV5qBe8CkDkKrz/7wktAvLGYdGU090w+AMuKQAAIN56KzZ05crbQqY5FsCD4F4CrsV5AETuwvv/riYB8Ziua+NuHX//oqtPv9s1q+M6+hRAIvJefHE3gK/tmzt3CUzz5xDic6ozqaalSui5cegDTCAMCAMwmjUYB0KItyq4i/P++86fk4iOa7+iDYCy22MoaGlDXlsMIdNENKShJi0Fu7LS0RYOKcnkKhKrAHlT+YRl61RH6Y7rCkCXIc8/vxbAzH1z584D8L+Q8rOqMzktZXAckdExpA4zjnutZv8XHgc2bOj8VL5hgzPP6e/bBxgGoLv2x4eOwzBNrNlahVUbd6OyvgnNFt2DDqrMVB1FOVkoKxmOGaMLoGvOX1Q1pYFWh57/z9AHIS8yBvmRMciLjMEZj1zYfSYhsHFgFt4Ylovt2YF82nudkOaPb53wlxdUB+mJKyYBJmLv3LmzhZQ/ADAPHsrdZwJIHW4gfWwMem7vD0fs/8bLR/5CdbX9hUDXIZ74BwuAx6zZWoUfLa/A5poG1VF8aWx+Dm6fPxXTiwsSfo0VkwBNaeCfO78LKa3ffPXoAT9DH3TE75/8t7N6PUZVVgQVBXn4KC/L7/d1JYBnhCZ+despS1epDpMIzw2k+2bPHg8hFgL4bwBZqvNYRYtIRIpiiBQbCGUk/g/5mAJwNBsKgSgpAX77u6SPQ8558PWNuGH5WsRNn78FK6ZrGhYtmIZLzihJ6OutegpgZdUi1EeT326ltwH/aIkUgC4HImG8PTQX7+RnoyXsqw8PTQD+rkHeofKRvv7wXAHoUlNammVGIl+BEF8HMAVe/F40ICXfQGSk0eNl/p70WgCOZkEhED+6CZg+vc+vIzXWbK3CRUuf4eDvEF3T8PAVZ2NGAlcCrCoAlc1v4rX9y/r8ur4O+EfrSwHo0nV7YP2QbGzLyYApvPfWjc5P+68KyPtlKP2h8nF3enLHW0/+yR9tzznnjAwZxsUSuBDAJLj4+xIakDIkjpThMaQWxCHCyb0p97kAHK2PhUDMXwBcdVVy5yTHxE2JWX/4BzZW16uOEignDs7GS//3i73OCbCqAADAO7WPYUvT6h6/JtkB/2j9KQCHa9ND2DgwCx8NysS2nEzENde+dQOds/nfBuSjuq498uOT79uhOlCyXP2n3R81Z589LG4Y5wkhzgPwOQB5qjPpA0yk5McRHhJHOM+AsPDqV9IF4GiHF4L33++c8BcKQYweDXzxS/zk7zEvbKrEV5Y9pzpGID3yjbNRNqawx6+xsgAAQGXL29jUsBL1sV2ANJGuD0Je5ETLBvyjJVsADhcNadienY5PcjKwLTsDNemplh07CTUAXoKQT0PDivJx9+9VHchKvisAh5OA2Dt79mc0YIYU4rMCmADgFAC2/WRpERN6jgk914SeG0c414QWse/Sq+UF4GjGwTcoTvjzpFv+/RqWrOVjmypcO/0UlH/+zB6/xuoC0EXKzgnEQtj7KJ6VBeBoLWEdu7MiqMpIw57MVOzJjKA5JWzb+QC0A+IDSPMdIcQbMoQ15Scv+wjCv3MXff2uLgCJF174EMCHAJYAgCwr0/fo+hhN006ElMUAigVQIKUcLIBB6LxikIrOP5uuSYYNAEwJNIvOlQprAFQD2Jt+cvS6UKYJPVMilGVC6D77WeHA72mV9U2qIwRWZb2628J2D/xOyIgZGFvXjLF1n/45doRCqE1LQV0kjNq0FLx0Qv6dkHIYBAZDYjCAdEBkAlIDkH3wZU2dq6fIDgD7AdQCqIHAbgDbAGyDlFtQO3JL+azyQD0XG7h3d7F6tQHgo4P/S5r5pSnXWXEcSs729hgqGtpR2WGg3bT+cSgrRDQNRak6pmZHMDJi6yeZQ3x9ic/l+GdvvdR4HAXNbShobgMAzPrCvxcqjuRpgSsA5D8VjW1YWdfq+ut07aaJTW1RbG6LYu7AdEwdkGb7OUfk+OZJWc8pzMlUHYGoR67ZC4CoP7a3xzwx+B9OAni+rhU72+1fEnzm2OG2n4O6N6uk5wmARKqxAJCnVTS0e2rw7yIBrG1ot/08M08cjpIhubafh440ZnA2SouHqY5B1CMWAPK0XVHvztmpdCB7SBO47fwpStaoDypd07DoglL+mZPr8SeUPK0t7s4Jf4lwKvuM4gIsWjCNA5IDdE3DLxeUonQUP/2T+3ESIFEAXHJGCU4YlIWblr+KTVwV0BYl+Tm4fcE0Dv7kGSwARAExo7gAq66/AK8cth1wE7cDTkpWqo6i3CzMKinE9OIChNy9lC3REVgAiAJE1zSUjSnsdYlaIvI/3hQkIiIKIBYAIiKiAGIBICIiCiAWACIiogBiASAiIgogFgAiIqIAYgEgIiIKIBYAIiKiAGIBICIiCiAWACIiogBiASAiIgogFgAiIqIAYgEgIiIKIBYAIiKiAGIBICIiCiBddQAico5hmliztQqrNu5GZX0TmjsM1ZGSkpmqoygnC2UlwzFjdAF0jZ9piBLFAkAUEGu2VuFHyyuwuaZBdRTL3bX2fYzNz8Ht86dienGB6jhEnsC6TBQAD76+ERctfcaXg3+XTdX1uOi+Z/HXNzaqjkLkCSwARD63ZmsVbli+FnFTqo5iO8M0ccOTFVizrUp1FCLXYwEg8rG4KXHzU68GYvDvYpgmbnyyAoZpqo5C5GosAEQ+tnrLLmysrlcdw3FbahrwylZeBSDqCQsAkY+9tCm4g+DqTbtVRyByNRYAIh+rrG9SHUGZyvpm1RGIXI0FgMjHhOoACgX5eydKBAsAkY+NyMlSHUGZwpxM1RGIXI0FgMjHZo4drjqCMrNKClVHIHI1FgAiH5t54nCUDMlVHcNxYwZno7R4mOoYRK7GAkDkYyFN4LbzpwRqjXxd07DogtJAfc9E/cF/IUQ+N6O4AIsWTAvEgKhrGn65oBSlo/jpn6g33AyIKAAuOaMEJwzKwk3LX8Umny4MVJKfg9sXTOPgT5QgFgCigJhRXIBV11+AVw7bDrjJ49sBZ6XqKMrNwqySQkwvLkBI48N/RIliASAKEF3TUDamEGVjOEOeKOj8f1OQiIiIjsECQEREFEAsAORpaSHv/gh7OTsReR/fgcjTRqR4dxpLUUpIdQQiCjAWAPK0qdkRT276IgBMy05THYOIAowFgDxtZCSMuQPTPVUCBICzB2agKBJWHYWIAsy710+JDpo6IA3DU3SsbWhHZdRAW9xUHalbaSENRSkhTMtO4+BPRMqxAJAvFEXCHFSJiPqAtwCIiIgCiAWAiIgogFgAiIiIAogFgIiIKIBYAIiIiAKIBYCIiCiAWACIiIgCiAWAiIgogFgAiIiIAogFgIiIKIBYAIiIiAKIBYCIiCiAWACIiIgCiAWAiIgogFgAiIiIAogFgIiIKIBYAIiIiAKIBYCIiCiAWACIiIgCiAWAiIgogFgAiIiIAogFgIiIKIBYAIiIiAKIBYCIiCiAWACIiIgCiAWAiIgogFgAiIiIAogFgIiIKIBYAIiIiAKIBYCIiCiAWACIiIgCiAWAiIgogFgAiIiIAogFgIiIKIBYAIiIiAKIBYCIiCiAWACIiIgCiAWAiIgogFgAiIiIAkhXHYCInGOYJtZsrcKqjbtRWd+E5g5DdSRPy0zVUZSThbKS4ZgxugC6xs9U5B0sAEQBsWZrFX60vAKbaxpUR/Gdu9a+j7H5Obh9/lRMLy5QHYcoIayrRAHw4OsbcdHSZzj422hTdT0uuu9Z/PWNjaqjECWEBYDI59ZsrcINy9cibkrVUXzPME3c8GQF1myrUh2FqFcsAEQ+Fjclbn7qVQ7+DjJMEzc+WQHDNFVHIeoRCwCRj63esgsbq+tVxwicLTUNeGUrrwKQu7EAEPnYS5s4CKmyetNu1RGIesQCQORjlfVNqiMEVmV9s+oIRD3iY4DkC9vbY6hoaEdlh4F2l957jWgailJ1TM2OYGQk7Mg5hSNnoe7wz57cjgWAPK+isQ0r61rh9mlu7aaJTW1RbG6LYu7AdEwdkGb7OUfkZNl+DupeYU6m6ghEPeItAPK07e0xTwz+h5MAnq9rxc72mO3nmjl2uO3noO7NKilUHYGoRywA5GkVDe2eGvy7SABrG9ptP8/ME4ejZEiu7eehI40ZnI3S4mGqYxD1iAWAPG1X1Ltr2Vc6kD2kCdx2/hSuUe8gXdOw6IJS/pmT6/EnlDytLe7OCX+JcCr7jOICLFowjQOSA3RNwy8XlKJ0FD/9k/txEiBRAFxyRglOGJSFm5a/ik1cGMgWJfk5uH3BNA7+5BksAEQBMaO4AKuuvwCvHLYdcBO3A05KVqqOotwszCopxPTiAoQ0PvxH3sECQBQguqahbEwhysZwhjpR0PGmIBERUQCxABAREQUQCwAREVEAsQAQEREFEAsAERFRALEAEBERBRALABERUQCxABAREQUQCwAREVEAsQAQEREFEAsAERFRALEAEBERBRALABERUQCxABAREQUQCwAREVEA6aoDEJFzDNPEmq1VWLVxNyrrm9DcYaiOlJTMVB1FOVkoKxmOGaMLoGv8TEOUKBYAooBYs7UKP1pegc01DaqjWO6ute9jbH4Obp8/FdOLC1THIfIE1mWiAHjw9Y24aOkzvhz8u2yqrsdF9z2Lv76xUXUUIk9gASDyuTVbq3DD8rWIm1J1FNsZpokbnqzAmm1VqqMQuR4LAJGPxU2Jm596NRCDfxfDNHHjkxUwTFN1FCJXYwEg8rHVW3ZhY3W96hiO21LTgFe28ioAUU9YAIh87KVNwR0EV2/arToCkauxABD5WGV9k+oIylTWN6uOQORqLABEPiZUB1AoyN87USJYAIh8bEROluoIyhTmZKqOQORqLABEPjZz7HDVEZSZVVKoOgKRq7EAEPnYzBOHo2RIruoYjhszOBulxcNUxyByNRYAIh8LaQK3nT8lUGvk65qGRReUBup7JuoP/gsh8rkZxQVYtGBaIAZEXdPwywWlKB3FT/9EveFmQEQBcMkZJThhUBZuWv4qNvl0YaCS/BzcvmAaB3+iBLEAEAXEjOICrLr+Arxy2HbATR7fDjgrVUdRbhZmlRRienEBQhof/iNKFAsAUYDomoayMYUoG8MZ8kRB5/+bgkRERHQMFgAiIqIAYgEgT0sLefdH2MvZicj7+A5EnjYixbvTWIpSQqojEFGAsQCQp03Njnhy0xcBYFp2muoYRBRgLADkaSMjYcwdmO6pEiAAnD0wA0WRsOooRBRg3r1+SnTQ1AFpGJ6iY21DOyqjBtripupI3UoLaShKCWFadhoHfyJSjgWAfKEoEuagSkTUB7wFQEREFEAsAERERAHEAkBERBRALABEREQBxAJAREQUQCwAREREAcQCQEREFEAsAERERAHEAkBERBRALABEREQBxAJAREQUQCwAREREAcQCQEREFEAsAERERAHEAkBERBRALABEREQBxAJARKSAVB2AAo8FgIhIASlZAUgtFgAiIiWE6gAUcCwAREQKSN4EIMVYAIiIFDA5/pNiLABERArEWQBIMRYAIiIFDE4CJMVYAIiIFGABINVYAIiIFDBZAEgxFgAiIoeZkDA4/pNiLABERA6LmqoTELEAEBE5LsZnAMkFWACIiBwWNXkJgNRjASAicpBhSq4BQK7AAkBE5KB2Xv4nl2ABICJyiATQzo//5BIsAEREDomaJkxuAkQuwQJAROSQVn76JxdhASAickBUSj7+R67CAkBE5ICWGB/9I3dhASAislnUlIhx7X9yGRYAIiIbSQDNBj/9k/uwABAR2agtbnLrX3IlFgAiIpvEAbTE+emf3IkFgIjIJk3ROPjhn9yKBYCIyAYthokoR39yMRYAIiKLRaVEKy/9k8uxABARWSgugcYoF/wl99NVByAi8os4gCWYSR8AAASeSURBVAMxA/zsT17AAkBEZAFTSjTETHC1X/IK3gIgIkqSCYn6GJ/3J2/hFQAioiTEJVAfi4Mb/ZHXsAAQEfVTzDx42V91EKJ+YAEgIuqH9rhEkxHnbH/yLBYAIqI+kBJoMuJo52w/8jgWACKiBHWYJpoMzvQnf2ABICLqRRxAixFHO2f6kY+wABARHYcpJVrjEm2myU19yHdYAIiIjmJCotXgwE/+xgJARARAovOxvra4iQ7e5KcAYAEgosCSsnPnvqgp0W5KSH7cpwBhASCiQJASMKRE/OD/jUqJuCn5HD8FFguAxzUZXIOM6GgSElJ2DvpSAKYpEVcdishlWAA8ri3OAkDUI37EJ+oWdwMkIiIKIBYAIiKiAGIBICIiCiAWACIiogBiASAiIgogFgAiIqIAYgEgIiIKIBYAIiKiAGIBICIiCiAWACIiogBiASAiIgogFgAiIqIAYgEgIiIKIBYAIiKiAGIB8Dj+BRKRCnzv8T7+HXpcarRedQQiCqCUDr73eB0LgMcN/OBvqiMQUQDlvfeA6giUJBYAj8v+8AkM3F2hOgYRBcjAXWsxYOOTqmNQknTVASh5Q1f/GOknXYDaUy9FR0oOTNWBiMh3NHRe9s977wEO/j7BAuATAz7+JwZ8/E/VMYiIyCN4C4CIiCiAWACIiIgCiAWAiIgogFgAiIiIAogFgIiIKIBYAJJnqA5ARBRAfO9NEgtA8lpUByAiCqAm1QG8jgUgefwhJCJyHt97k8QCkLxdqgMQEQVQpeoAXscCkCQJfKw6AxFR0EjJ995ksQAkSRPyA9UZiIiCRtPwoeoMXscCkKx46CXVEYiIAkdgteoIXscCkKzBw9+GkPWqYxARBUgd9qx7R3UIr2MBSJL48mNxKcVy1TmIiIJCQj4pyrnzebJYACygCfGg6gxEREGhge+5VmABsMLeV1cB2Kw6BhGR/8mN2LfuZdUp/IAFwAKiHKYQYpHqHEREfiekuJ2X/63BAmCVgY0PAmKb6hhERD62GaHY31WH8AsWAIuIL38QFQILVecgIvIrIc3viqvfiqnO4RcsABYS17z6DCT+oToHEZH/iMfFda//R3UKP2EBsJiAfiWAHapzEBH5SKWIx69RHcJvWAAsJq575YAwxVcAdKjOQkTkA+1Cyi+Lb71eqzqI37AA2EAsfLVCCHkRgLjqLEREHmYKIS8V1722TnUQP2IBsIm45rXlArgW4OMqRET9EBcSV4trXntcdRC/EqoD+J28c+oCKeRDACKqsxAReUSHAL4mrl33qOogfsYC4AB5x9RpUpMPAxihOgsRkcvtFFJexMv+9uMtAAeIha9WiLg5CcA/VWchInIv8bgIi0kc/J3BKwAOk4unfkFC/h7AaNVZiIhcYrOQuF5ct+5p1UGChAVAAbnktDBkyn9LKX8E4CTVeYiI1BDbhDQXIWQs4wp/zmMBUEiWQ8PgM2eamviaAOYDyFWdiYjIZnVSYLkm8QD2rXuZG/uowwLgErIcGvLPnARNzDSlHCcgSgAUAhgAIBucr0FE3mECaADQCGCXlPhY0/AhBFZjz7p3OOi7w/8Hca9lHB8qktEAAAAASUVORK5CYII=;fixedWidth=0;" vertex="1" parent="1">
          <mxGeometry x="520" y="40" width="120" height="120" as="geometry" />
        </mxCell>
        <mxCell id="-tSm10FkZ4Ool6qzO1sV-2" value="" style="shape=image;verticalLabelPosition=bottom;labelBackgroundColor=default;verticalAlign=top;aspect=fixed;imageAspect=0;image=data:image/png,iVBORw0KGgoAAAANSUhEUgAAAgAAAAIACAYAAAD0eNT6AAAACXBIWXMAAA7DAAAOwwHHb6hkAAAAGXRFWHRTb2Z0d2FyZQB3d3cuaW5rc2NhcGUub3Jnm+48GgAAIABJREFUeJzs3XmcW3W5P/DPc5LMTGfLycx0oUuSliltmUnaMqxltYCoiFyU4lUEVKCooIDLVa8bLnjFq1dAAQEVARcUlUV2EBAo+9A2mbHbtE3S6TpLktk6M0nO8/ujrT+2tpPzPcnJ8rxfr75eYuf7fJ9Op/k+53u+CyCEEEIIIYQQQgghhBBCCCGEEEIIIYQQQgghhBBCCCGEEEIIIYQQQgghhBBCCNuQ3QmIiWvyLTgkDW0+k3YYmL1EqAGjhojcducmhCgvzJwEYZgZwyCKEXidC7y2J9K5w+7cxMRIAVC4NLcvuAgwlgK0lIAlAGSgF0IUuiQDKwj8NOB4OhFdvRqAYXdS4p2kACgw7lmtR5JDuwDMHwMw2e58hBBC0U4Q38Os3ZWMht6wOxnx/0kBUAj8/ioP6j/FzFcAONzudIQQIkc6iPimuHP0DnR1jdmdTLmTAsBGU6cGa8YqcQmIvwJght35CCFEnuwC0S2ac+T/+ru6BuxOplxJAWATjzd4FhPfDGCm3bkIIYRNtoPpa4lY6C67EylHUgDkWd3s4DyHwTcDWGp3LkIIURAIT2Y07YrBTavX251KOXHYnUA50b3BCzXw3wEcZncuQghRQA4l5ksnuacNjSZ3vmJ3MuVCZgDyoGnevLrUaMWtBHzM7lyEEKLA/c41Yny2p6dzyO5ESp0UADmmz17gY8P5KAEL7M5FCCGKRKfm5Pf3b+zYYncipUwKgBxq9LUuyDA9DsIsu3MRQogis40yeF+8Oxy2O5FSpdmdQKmq9wePyYBekMFfCCFMmc4OPFM/e+HRdidSqmQGIAcavAtbDDKeA9Bgdy5CCFHkkqTxSfHNHSG7Eyk1UgBYrGFGcKbh5BUAvHbnIoQQJWIrtPTxic1ronYnUkrkFYCFPHPa3BknPwkZ/IUQwkozYDgfaZo3r87uREqJ0+4ESooxfjsB8/PVXaWD4HY6UePQUOuUIx2EEPkxlM5gKMNIptIYN/J20d/hqdGKWwF8PF8dljp5BWARjy/4OQbflKv4GhEWuWuwpKEOR3rq0FxTielVlfIXKISwDQPYNjqGruExvBYfxIv9g1idHIbBnLs+GZclY+HbctZBGZHxwwIN3oUtGTJeJ6DK6tgzqipx/qwmnHNII6ZVVVgdXgghLLV9bBz3bevH77fswrbR8Vx0sdsBbuuLdqzJRfByIgWAOtL9gX+CcaKVQadXVeDq5uk4+5BGuEj+moQQxWWcGfdt68UNXduxfczqQoCeSURDp2LPJIQwSV4cK9L9wYvAuNKqeE6NcJl/Gm5aeCgWumvgkMFfCFGEHERora/Bx2Y2Ic3A6oFhGNYN17Mn6VM3jCZ3ySFBCmR0UeCZ0+bmzPh6AFOsiDetqgI/D8zBkZ5aK8IJIUTBeDU+iM+HNmHXWMqSeAzscFWNH9a7bt2gJQHLkGwDVJFJXQGLBv+guwZ/P/ZwGfyFECXpaE8dHjrucLTWV1sSj4Bpqd0Vn7UkWJmSGQCTpk4N1oxVGRGAmlRjLWmow+2LmlEtW/mEECVuOJPBJW904eW4JQ/uO6tTFXO2bWsfsSJYuZEZAJPGJvFyKwb/he4aGfyFEGWjxuHAHUfMxWLdktnOqSPOsUusCFSOpAAwh8C4XDXI9KoK/GbxXBn8hRBlpcqh4bZFzVZtbb4CMpttinzTTPDMCp7IGj+nEsOpEe45ch7arKmChRAFYsww8NjOOP7Rk0TX8CjGDANTKytwjKcWH57eiFmTKpX7GExncP/2PjzXN4DYyBgYjBlVlTihsR7nHNKIhoriOOR1VXIY5726FinFg4M08PH90Y4XLUqrbMijpwlVnsnfAugIlRiXz5mOj0xvtColIUQBeLF/EBe1b8Cft/Zi/dBu9I6nEE+l0b17DC/HB3F3dw+G0waObagzvcX3r9v68Kk3NuDRnXFsGh5F33ga/eNpREbG8FzfAH6/pQe1TgcWumss/tNZb1pVBXYbjNcTQ2qBmNKjyV0PWZNV+ZAZgGy1tFToQ9ouAG6zIbyTKvHEklZUOuTbL0SpeGhHHFd3bEJ6ApvdT2isx+2LmlHlyO4t7HUbtuKXm7dP6Gsv8k7BNfML/16y0YyB01Z0YuvomEqYeKKpYira263ZY1gmZA1AlvQR7VgoDP4A8OW5M2TwF6KErBkcwZc7Nk9o8AeAF/oG8Kk3NmA0M/GLdH60vnvCgz8A3BnbhT9090z46+1S5dDwxebpqmE8Db1jR1mRTzmRAiBbTEtVmvuqK/H+KR6rshFCFIAfrNuCsSxvxXs5PjjhIuBH67txa2RH1nldt74bw5lM1u3y7exDGjG7Wm1thAG1z+ZyJAVAtgx+j0rzi2ZNhVOTp38hSsWmkTG82G9uT/tEigCzgz8ADKQzeHB73FTbfHIQcP4s1TPVpADIlhQAWTnFCcIxZlu7iHDWIQ1WJiSEsNnL/QNq7Q9QBKgM/vu8Ys2BOzn3oUMalB6OGHwcsEwWtmehOPaKFIj6mYnZAEzPUx3TUIemItme83ZUWwuaNMnuNEQ5SadhDA4C6bTdmRzQdguuvN1XBNxxxNx/Lwy0YvAHgG1qi+vyZnKFC0frtaZnUwiocs9a409uwUaLUytZxTka2cShGfNVdqse31BnWS455XTCFQjCFVwI5/wF0Nw64JQfFWEPHhpCZms3UqtXIbWyHUZfn90pvYXTohs7X44P4oI31uPOxXNx0+btlgz+AIrqOvElDfWmCwAA0DSaB0gBMFHyqZ4Fg4x5pLBz8ihPgRcARHAdcSQmffhcaJMn252NEAD2zD45582Hc958TDr3PIy/8DxGH3oARiJhd2oAgNnVVZbFej0+hNNf7MQ2C2YV9vFbmF+uHa34GcnAfACPWJNN6ZMCIAsEUtpUe2hN4f5DpKoqVF+8HK6Fi+xORYj90zRUnHQyXG1HYvi2W5Be8y+7M8KShjq4iJRPs9vHysEfAE5qqrc0Xi4pf0YSF/7BBwVEFgFmx/S5vY0uJ3RXYdZbWr0btf/9LRn8RdGgmhrUXvlFVCw53u5U0FTpKtjFvf7qKpzapNudxoQ1VCh+TjIV+DRrYZECICtsupR2F+riP5cL1Z+7Ao5ph9idiRDZ0TRUX/BJOOfNtzsTfH3uTDRVuuxO4y2cGuHaw31Ft+24wWV+IT8RpADIghQAWSA2PwNQV6A3/k0651w45xxqdxpCmONwoGb5Z0HV1bam0VTpwm8Wz0V9gfw7JwA/WODFkmJZePwmNQrfQ4OlAMiGFABZYCLTWwBdBViFa41NqDxF6VwjIWxHdXWoPOP9dqeBQH01fn/kPNtf9RGA7y3w4aMzinMhb2WW9yO8GQGFu9CqAEkBUMaqPnCmbO8TJaHy1NNtnwUAgNb6atzddphtRcC+wf8Ts4pz8Bf5JQVAuSKCa+Fiu7MQwhJUUQFXS8DuNADYVwTI4C+yJQVAmXLOngOqL57tQUIcjDO40O4U/i3fRYAM/sIMKQDKlHaI8vWbQhQUx7RpdqfwFvkqAmTwF2ZJAVCmNLfb7hSEsBS5C2+/e66LABn8hQopAMpVRYXdGQhhKaoqzAXgrfXVOH1KbooTb3UlPlyghxCJwlewS8DrZ7Y0aE4KMmgeMeYBOAyAB0ANgDoAbuS7gGGqA1lz3KfdeLA4rggVYqJ4IGl3Cu/qfzd0496tvTmJHR0Zw0UrN+DOxXNRXSBnENhsie4L9Oe5TwNAEsAggGEAcQDrmLGONF7PBq1OxsLxPOc0IQVTAMycedykYcfgUgYtBWgpwEEwCmv3fIkM/gBgJAvjIhUhrGIkC68A+N8N3bh5szW3+u3P6/EhKQL+v4q9v/Kt8W3/fSYRACYQwdB9gdUAPU3gp+M0+DQikVEbcnwHuwsA0mcHToRBFw5haBlAe5ell85AW6gyXRsAZqCIrgoV4kDSG9bbncJb5GPw30eKgIKmAVgM8GIGvqRzXRK+1nuJHXfGY6tXwMYBz541AC0tFW5v4FLdF1gPA/8E+GIAsictj4xEApktMbvTEMIy6dBqu1P4t3wO/vvsKwJG0pm89iuy5gboEibjed3bus7tC16ClhZbFmXltwBobq7UvcEr9SFtIxFuA9Cc1/7FW4yveMHuFISwRGb7NqQ3b7I7DQD2DP77SBFQZIjmEvh2fVDr0r2tn893IZC3AsDtbT1dH68Kg/h6ADPz1a/Yv7HnnoXRs8vuNIRQNvq3v+x5pWUzOwf/faQIKEKEWSC60T2krXb7gkvz1W3OC4Ca2a1TPd7gPUT0BIjm5ro/kYVMBrvv+UNBfHAKYVYqHEJq9Sq708D1G7fZPvjv83p8CJ9ZvREp+bddVAiYT+B/uH2BP9QeGpyS6/5yWgC4fcGlToNWMfFHc9mPMC8VDmH0gfvsTkMIU4wdOzDy69vsTgPP9SVx48ZtdqfxFs/3DeD6rq12pyFMIOBjzjSv1P2tp+SynxwVAMscurf1OwR+goDCOp9TvMPoow9j9KEHZSZAFJXMlhiGrv8JeGTE7lTww/XdBbl36VeRnegdS9mdhjBnOpie0n2BbyFHY7X1QZubK3Xfuj+D6BoAsh+lGDBj9MH7MXzbLXJAkCh8zBh/aQWGrvshjP58n/nyTqHkMNYN7rY7jXc1zoz7d9j/PRKmOQB8z+MP3IPm5kqrg1t6DkBDc3O9kaq+H+D3WBlX5Eeq/XUMdHag8vQzUHHyKdDq5b4AUUAyGaQ6OzD64P3IxKJ2Z/NvbySGLItFAD4z+xD8fssuDFi0iO+NxBDgm2pJLGEPZizTU5ManPPmndO7bp1lT2mWFQC6f5FupDL/APgIq2KK/OPRUYz+/QGMPvQgHP7ZcM1fANJ1aLqnYM9aF6WJMxnw4ACMeByZrd1Id4TBuwvvSbtn3JopdgLwg8N9+PjMyThjio4L29dbUgTsklcApeLU9GjFM7p/0WmJyCpLjnK1pACYOfO4SUM8+HeAZPAvFczIbN6ETIHsrRaiUFU71N90vnnwB4CF7hrc1XaYJUVAtUPufCshbUDmwZkzjzuju/sl5WrYgp+MU5xDzsE/AXSCeiwhhCguc2snKbXfd6XvvsF/n4XuGvz+yHnKVwkfppifKDCME4e0oT8Cpyg/wCsXALqv72dgOks1jhBCFKMlDXWmz9/f9+T/iVmT3/X3W+ur8dsj5qJe4Xz/03J0FbGwEeFs3d/7E9UwShWE2xs8F+ArVJOYoBGA1oM4xoxhjZD/5epMH2Tw9Lz3K4QoWLVOBy6aNRm3ZHkI0Nun/fdH5XXAYr0Wx3jqsmpT3GgrET+c714NRh0RasDkBXgegNxPuzB9Qfe1/jMR7TB9kIvpAsA9q/VQIv6V2fYTkALhUWJ6XIPxTF+0Yy1sviZQ9wWeASAFgBDiLT4/Zzqe6Uli7dDEXstOdPDfx0wRUOt04MeH+1Be933yhngkfJnNSVCjr3W+AVrKoPcBfAYAVy76Aeg3bl9wVTIa2mwmgNlXABppdBeAXOwT6wbwpbTLOSMRCZ8dj4Zu7ot2rIHcESyEKFCTHBrubDsMh9dVH/RrK4jw09bZEx7899m3JmBK5cHHEk+FE3csnotmef9vB+6LdqyJR8M3JaKhs9JOmgnwlwHk4lhGnWDcBZir80wVAG5f8NMAlphpewB9RPS5RK1xaCIa/r+hrpU9FscXQoicmVLpwt+OXoArD53+rgv3CMBJTfV48NjDcc70RlN9tNZX49HjWvDxmVNQ6XjnZ34FET48vRGPHdeCIz21pvoQ1hraGNqViHb8NOHafSgBVwCw+GQmOkH3Bz5pqmW2DeqmtzU5XONrAZj7CX53v8ukKq4e3Nbea2FMy+19BXCKmbZHempx71HzrU1ICFGQRg0DKxND6BoexZjBmFZZgSP1Gkyrsu6218F0Bq/FBxEbGQODMGNSBY7Sa+GpsPR8t7xb9tpavB43fbjSs4louKAPoqttXjzZkUpfT8DHLQzbY2SM+QPdnVkVF1n/pGjO1Pdh3eA/DKLLE5HQnRbFE0II21VpGo5rqMdxDfU566PO6cDSybLCv9jsnd0+X/cHngLjFwAO/t7o4CZrDu0aAF/IplFWrwAaZgRnEvGns2lzAP0a+L0y+AshhCg3iUj4DsMwTgFg1evu5U2zFme1SD2rAsBwGV8GYMUc1k4H+IT+aMeLFsQSQgghis7Als7XHOCTAeyyIFxlWkt/KZsGEy4AapsXTwbTpdnn9A4DgPb+vSv7hRBCiLLVF+1Yw4wPAJacbXNZ3fS2pol+8YQLAGcqfQHU31UwMZ+fiK5eqRhHCCGEKAnJWLgdhAugvt29xuFMnT/RL87mFcCFJpJ5CwL9NB7reEg1jhBCCFFKEpHwAwCuVw5EPOGxekIFgGdWsBXAQtMJAQDzhjgNfEsphhBCCFGiEq7dXwewXjHMEZ6ZgcBEvnBCBYBBPOEphf1h4HJEIqOqcYQQQoiS1NU1RsDVqmHYgfMm8nUTOgeANJyq+Gbi2WSs40mlCEXu9fgQZj/xut1pCCGEKGDxaPgR3R94HowTzcZg4FQAB51xP+gMgO5fpINxhNlEAICZf6jSXgghhCgXBrRrVdoTcFRDc/NBT6GawCuAzMkAzF9GDXQlYx1PKbQXQgghysZAZPUTADYqhHDyeNVJB/uigxYAzHy0QhIAcBfkJj8hhBBiohjMdysFIDrmYF9z0AKAgHkqSVAG96u0LyhMxX3LhhBClLJS+ozW+AGV5kQ47KBdTCCMyhV2u+Ld4Q6F9gWFCNld4C2EECJvSukzOhHpXA2w6RtymXHQsfsgBcAyB4BmswmA+BWU1PQ/u+3OQAghxP6U1Gc0A/SKQvu5OMgYf8DfrJu+yQOg0mzvBCqp8/7ZmouQhBBC5EAJfkavU2g7ye0NHLAgOmAB4KjI1Cp0DsNQWsVYeJgMu1MQQgixHyX2GU3EG5TaO9IH3Ap4wAKA0pk6lc4BTqi1LzDEI3anIIQQYj9K7jNaSyq1zlQc8CH+wAWAA0ozABrRkEr7AtRndwJCCCH2q7Q+o9kYUGpPhvkZAEODS6VvQ+O0SvsCpFSNCSGEyKmS+ow2NKQU2x9wDM/mOmAhhBBClAgpAIQQQogyJAWAEEIIUYZK59jEAkeEQQCdduchhBAFroUZijvQxERIAZAnzLw6Ee0wfb+zEEKUA93X+jxAJ9idRzmQVwBCCCFEGZICQAghhChDUgAIIYQQZUgKACGEEKIMSQEghBBClCEpAIQQQogyJAWAEEIIUYakABBCCCHKkBQAQgghRBmSAkAIIYQoQ1IACCGEEGVICgAhhBCiDEkBIIQQQpQhKQCEEEKIMiQFgBBCCFGGpAAQQgghypAUAEIIIUQZkgJACCGEKENSAAghhBBlSAoAIYQQogxJASCEEEKUIafdCQhRP7OlgRz0aSL6EBjzAVSDeRtAKwjar+Ox1S/YnaMQQpQaKQCEjZY5PL61n2XgewA84Df9FtFcAHMZxid1X+BhI2NcNdDd2WVTokIIUXLkFYCwhdsbaNO9a15k4OcAPAf58jM1h/Yv3R+8YfLkltp85CeEEKVOCgCRVw0zgjM9/sCtRHgVREdn0dQF5i+kqrW1ujd4Yc4SFEKIMiEFgMiL+pktDR5/4LqMkzcwYznM/+zNAPGduj/wRKM/MN/KHIUQopzIGgCRU7WHBqc4M/gcmK9ihpusCsw4PQOEPf7AbxwZ53d7t6zcZlXoUqfPXuADO5eCMZsIFXbnI4oDG7ybiDaknPTU0MbQLrvzEeqkABA5oc9e4IPh/Aqn+WIAVTnqxsmM5Wkt/QmPP/CLlNP5k6GulT056qvouWe1HkpEP4WBs7B3Bob5II2E2IcIDMCZ5nHdF/hd2klfl0KguMkrAGGpBm/L4bov8BsYzg0ALqfcDf5vVs2M/3Km0hHdG/hZ48yFM/LQZ1FxewOnkUZvgHA25N+9UFMB4NPONL/hmRkI2J2MME8+CIQ6v7/K4239hO4PPGeQ1gngUwBcNmRSDcJVGYexUfcGfuv2BY+wIYeC45ndGiTC/QDq7c5FlJQZ7MBjTb4Fh9idiDBHXgEI0xp9rQsyTMvBuJAJDSic6eRKEC4i8EW6r/UFAv2yJlP7t+7ul3bbnZgdOIPbQaixOw9Rkqan4PwJgPPtTkRkTwoAkZW66W1NmnP8w6ThExnGibBsVV+u0AkMnDDkGEp6vIF7AOPueKzzJQCG3Znlg+4PnAxGNtsthcgKAR/1zGn5enxTZ8zuXER2pAAQB1U3Y36j5qw4R2NexjS+FICzgJ72J8rNhMsA7TK3L7ADTPfDYdxXl6p7vpRnBojpg1yEf1miqDiMtPY+ALfZnYjIjhQA4l25Z7UeCg2naIxlTLQUYBcX/NP+xBAwDcSfgUGfGXQMjeq+wIsEehqMUMbQ1g5065uBZ9N252kFBi+wOwdR+giQn7MiJAWAgD57gY8MZwtAi5iMY8F0DIApAFAqg/7+7N2lsJTBS0GA5shA9/WNMwIbCVjLjHWkYZ0GWpsxeF0yFo7bnXNWCBUyASByjYkr7c5BZE8KgPKgNcwITmcH+RmZ2SDyA/AzsICAFhio3zNGcOmP+BNTsfeJZgERAAYMMIgA3ReIA4js/bWZwdvBNACNkxpjiDUa1DJGb39s8vqCmEUwsK3w12mIYkcgOYirCEkBUELqprc1OZ2p40AIAOxngh8G+0HkM8AVAANvGg1kXDDFs/fXYgAg0J5vJO85JAUGYJAG3dc3DAT/5oDxP33RjjV2JctELxD4Irv6F2WCWK7sLkJSAJQAz5wWr5HRfkQYP5ffvP+eAVBxDfMEoM7pwEA6Y3cqqmoAviAD+qjubf1KItZxox1JOFwjfzZSk34KOQNA5M76RKTjObuTENmTg4CKnNsbOI0zWoiAj8Gew3cs06bX4q/HLMCKk4K42DcVTq24ipf9qADRDbo/cLUdnfd3dQ2A6dt29C3KAhP4iyiTbbWlRgqAIub2BY8gwgMA3HbnouLwumr8ctGh+MvR87HYXYNapwPfnDcLDx97OE5qKpEHV8aP9dktC+3oOhEL3Qjiu+zoW5Q4xjXxaMfDdqchzJECoGgtcxD4DgDVdmdi1mK9Fr9e3IyHjjscZ0zxvOP3D6udhDuPOAx/PGoeFrmL/iA7JwztOzb1zYlIx6fAfA2AcZtyEKVlgEGXJmLh79mdiDBP1gAUKY933QcYCNqdhxlLGupw+ZzpWNJQN6GvP9ZTh/uOWYAnexL4+cZtCA+M5DjDnPng5MkttT09nUM29G0kYh3fdfuCd4F5OWk4FcyzAXLYkIsoTuMAbyBoj6ac+JXcBFj8pAAoUkzGh4ppHT8BWDrZjSvmTDf9NH/6ZB2nT9bxz94kbty0HW8k7BhHlbgy1RQE8KJdCSSjoc0Avm5X/0KIwiEFQJFiUGsxDP+NLifOndGEj86YjNk11pwVcnKTGyc3ufFKfBC/je7Ckz1xZIrksBtmrdHuHIQQApACoGgRMLH5cxsQgOMa6vCfsybjjCkeVORoK+Ixnjoc46lD9+5x/G7LLvxpay8SKfvP3jkg4gJPUAhRLqQAKF4Ft5jL7XLgzKkN+KR3KubWVuWt35mTKvC1w2bi6ubpeKF3EPft6MXjuxJIG4U3LcDEJXvxkBCiuEgBUKQYGC2EVwBulwPvnezBB6c14LjGOrhsPHioUtNw6hQ3Tp3ixq6xFB7Y3ofHdiWwKjkMgwujGNCYxuzOQQghACkAihaBRmHTLS/1TgfeO8WDM6d5sKSxPmdT/CqmVLpwqX8aLvVPQ8/YOJ7YlcQTPXG8Fh/C7ox9Z5YYZMgMgBCiIEgBUKQYnNcZAF91JY7W6/C+qTpOaHIX5KC/P5MrK3D+rMk4f9ZkjDNjVWIIK/oH8XL/INYNjSCZyt+xww5oo3nrTAghDkAKgCJFQM4GErfLgZa6aizWa7G4vhYL9Ro0VZTGj0oFEY721OFoTx1w6J7/r3c8jY3Du7FxeBSRkTFsGNqNzSOj6N49ZvnuggwcUgAIIQpCaXyqlyHVNQAEYHKlC7MmVWJ2dRXm1lZhft0kzKupxtSqor5SIGtNFU40VezZUfBmY4aB6MgYNo2MYsvIGLpHx/FS/wA2DJkfw11ISQEghCgIUgAUKQKNmF0DUOXQsOo9i1CpyUnQB1KpaTisdhIOq5307//vh+u7sWFoh9mQ3OMci1uSnBBCKJIRoEgxw/QxnKMZA+kCWRVfbHaOKe2+jKOrS3YBCCEKghQARYpgmH4MBYCdY3IejRm9YymV5tutykMIIVRJAVCkGKQ0mPSqPcmWrV3jSoWTUtEmhBBWkgKgSGlMajMA40pPsmVLcQZACgAhRMGQAqBIZTijNAPQozaQlaXdGQNJtbsGdlqVixBCqJICoEhNSjmUCoDIsKxFy1bX8KjS2YsMljUAQoiCIQVAkdq5MzQMYMBs+65h2Y6erU3Diqf4ErZYk4kQQqiTAqC4dZluKAVA1jYofs+IeK1FqQghhDIpAIrbGrMNe8bG83oGfinYpFYAGNVjVRusykUIIVRJAVDECGS6AACAzSMyC5ANxRmAyLZt7SNW5SKEEKrkKOAixjD+tedUf3PWD+3GIneNhRmVrjHDQEyhAGBApv/FRJDbG9DtTuLd1KQrxqSILS1SABQxB7BWZRJ/dXIE582wLJ2S1jkwgnGF45NVZ2tECWturvSkqz7FrH0C4KMAVNid0rsZcY1D9wW2EvAIDLoxviXUYXdOQo28AihifU2VXQBMH+nXnhy0MJvS1p4YUmovMwDi3XhmBgKe1KTVzHQLwMejQAf/N5nBwKWs8Uq3r/UHkDGkqMlfXjFrb09BYSfAhqFRDKZlIeBErEoOK7V3EORpSbyFZ3ZrkB14gYF5dudigpNA39B9rbfanYgwTwqAYsd41WxTgxlvKA5s5aI9qTQDMNbvHFlpVS6iBPjM2Fu1AAAgAElEQVT9VWzQXwHU252KGrpE9wcvsjsLYY4UAEWOgRdV2q9UnNouB1tHx7BzVOXoZHpdrgEWb6YbtcsBNNudhyWYf4i2NpfdaYjsSQFQ5BzQlAqA1xOyDuBgXo8rF0kvW5GHKCFEF9qdgoWme3rHT7M7CZE9KQCKXH9s9b8A9Jtt/3p8GMMZWQdwIE/3JhUjGEpFmigtM2ceNwnAIrvzsBITjrU7B5E9KQCKHzPwitnGY4aBFX0yC7A/GQae7zN95QIAwInMSxalI0rACA83AnDYnYeVyMBUu3MQ2ZMCoASQ4jqAZ3oTVqVSclYlhxAfV7oCeHNvdI3cAij+LePgklt5y0SymKgISQFQEowVKq2f7kkqXXNbyp7uUSyOiJ+3JhNRKpKxcBxcYjdDEsJ2pyCyJwVACUg0Vb0AwPSL6l1jKXQMyAmf7+bpHrX3/2zgYYtSEaWEcL/dKVhoLO3Ao3YnIbInBUApaG9PAfyUSoinVJ90S1Bs9xjWDe1WCZEmzfmEVfmI0sGgnwFQ+uEqILcPbQztsjsJkT0pAEoFkdKT5gPb++Q1wNvcv03xe8J4MRFZJZWVeIdkNLSZiL5kdx6qGFhDjopv2p2HMEcKgBKRdtDDAAyz7aMjY3Io0Ns8uN307koAAEOm/8X+xSOhWxj8FSj8u7VZyOHkM+Kb2lX3yQqbSAFQIoY2hnaB+XWVGH/dpjbglZKVyWFsHDF//S8AOKBJASAOKBnt+IlBtATA00DRTML1gPGdBA0e07+xo7QWM5YZuQ64pNDDAI422/rhnX349vyZqNSkLrxvW59aAMaW/tjqTmuyEaVsIBJ6BcCpDTOCMw2ncTQzNdmd07shjcY0Njb01/Lr6Ow0fQupKBxSAJQQMnAfO/Bds+2TqQz+0ZPEB6Z6rEyr6KSY8cgOxdkQwr3WZCPKRf/WUDeAbrvzEOVDCoASEu8Oh3VfYDWAhWZj3NPdU/YFwCM7+tGXUjr8ByDjbmuyKR1N8+bVZUYqfSDMZhh+IsxipsnQuBFMjQCaADRiz6tJJ4C6t4UYAbDvUqU4mHuZqI9AvWDuA3E3Q4uAOWJkUpHBrWsVp3GEKG1SAJQcvhsg0wXA830DWDs0gvm11VYmVVR+G1Xe0fSvRKRzlRW5FKXm5kr3+KRWIl4IpgAIAQDB9CgmQ9v3mpv2vPAmAEwTjVy99xcAeEA0Z09L3hMHtCcqAQ6nC7ovMMDAvzRCCIwQawgTVayWRWtC7CEFQIlJafidy8CPoPB3e1dsF354uN+6pIrIG4khrBpQO6mVGXdZlE5RqJndOtXFdByYTgD4OKTQBkIlQHsHZtvUE3As896LagyAMW7o/kAnG7SCYLzIoBXJWHiTrVkKYRMpAErM8OaOnR5v6z+Y6AyzMf62rR9XN8/A5Iryu+L7jpjy07/hcPEfrMilcC1zuL1rF5FGZ4H5gzBwBAAqkkXsGhgBIg4A9BkCoPsCESI8YRh4SnNWPCEzBKJcSAFQiojuBmC6ABgzDPypuxdXzDnEwqQK387RFB7fGVcN82wpbo2aOfO4SYPa8Jmaxucxrz0DQD24KAb8ifAzYzkRlnNmfFz3BZ5jxr1GuuJvg9vae+1OTohckQKgBE1KVdw34hofAFBvNsZdW3pwqW8aKh32zuHm069jO5FSHdSISmf6v63NpfeNf4AZHx3C0FkE1JbOmL9fFQBOI8JpDtf4TR5v6z9Yoz9pzt1/7e/qUrsXWogCIxu+S9C2be0jIPqtSoyesXH8rrt8jvfuHUvh7i3Kf96eBAb+ZEU+dmo4tHWW2xv4qt4zvhGM+wn4GIBau/OygZOJzgDjN5nUpJ0ef+DPbm/gNLuTEsIqUgCUKGZcDyCjEuPmzdsxnFEKUTRuiuzAaEb5RNZfIhJROz7QPpruaz1H9wWeMtIUJcKPQJhld1KFgoAqZiwjwpO6PxDy+IOfnT69rXy3yoiSIAVAiUpGQ5vBeEglRv94GnfGeqxKqWDtGkvhj+qzHSlHRrvVinzyqrm5UvcGL3T7Ap0A/Q3AqbB77X6hYwSY+eYR1/g23R+8oXHmwhl2pySEGVIAlDIyblANcevm7UimSnsW4MZN2zCWUX25Tff0da/eaklCeeCZ0+bWva3f0VOTtoL4TgLm251TEXKD+QsZh7HR4w/cqs9e4LM7ISGyIQVACUtEO58BsFolxkA6g9ujOyzKqPBs2T2Ge7vVF3qzYdxoQTo5N3VqsEb3Bq/kzPh6EF2DPSfvCTWVzFgOw7nB4w/cKjMColhIAVDqCNerhvhVdAe27B47+BcWoe+v3YJx5aXttCK5pUPpJsaca2tz6d7glWNVvAnE1wOYYndKJcjFjOVph9Gl+wI/dXsD5X2mtih4UgCUuIRz9x8BiqrEGMswvr+25La247neATzZk1COQ+AfWpBOzri9gdP03vGVMvDnBwFVAL5IhC7dG7wSOEW2W4uCJAVAqevqGmPgB6phnuxJ4Nne0jkgbZwZ31sbUw9EeC0eDT+qHsh6jf7AfI+39TEiPAmgxe58ylADiK/XfX0r3d7gqXYnI8TbSQFQBpLReXcQsE41znfXbsGoobxVriD8KrITG0fUd+yxwd9AoZ2B29bmcnsDX80wVqkcCS0s00rET3n8gT/XTW9rsjsZIfaRqamycG8G3PqDvUcEmxYZGcWvIztxeZEfEbxtdBy/2LRNPRDh+WS040n1QNZp8AePNXrHfwUqmif+YTBv23OtL/pA3EegUQAJAGwwZ4i0FIGrAMBgriNQFRiNIG5kUCMBUwE02PqnmABmLHO4xk/2+INXxSOhP9qdjxBSAJSJeKzjD7o/8F9gBFTi/HzTdpw6xV201wUzgP/ujGC3+qE/APjbFgSxRnNzpZ6qvtZgvhqFN7OXZmCDxhQCIWQwb2A2IkZlRWSoa6UlB000NDfX8+gkHzTyM/FcAK0Aggy07H0nXyimMPMfdH/rx9IO7ZKhjaHyOW5TFBwpAMqHwQa+T4Q/qwQZMwx8KRzBfccuQAUV33kxd8d24Z99lhzp/nQi0vGsFYFUNXgXthgp4/cAL7Q7l712AngRwAsa8FI/Da7M9QmJe8/pD+/99SbLHA3e9fMzMI4njY8H0xIAzbnMZUKYznKmOeTxBT4dj4YfsTsdUZ6kACgjyVj4L25f4GXC3vvRTfrX4Ahu3LgNX24uru3OkZFR/GhDtxWhDDb4q1YEUkQeX+ByA8aPAUyyMY9xAC8w6DHNwKPxLaEOG3N5m3sz/TF0AugEcBuw566DTIreR4T3AzgNQJ1NyU1l4CHdF7i5NlP7le7ul3bblIcoU1IAlBcG6HKAXwXgUAl0a2QHTp2sY7G7xqLUcstgxlc7o5ZM/RPhVwmb9/03zZtXlx6t+A0D59qUwhgIjxPjz+Ta/fdiuilv73XNtwO4HW1tLk/v+GnMOA+E/wCg5zkdAnD5kGP4eLcv+OFkNLQ5z/2LMlZo7wpFjiWjoTeY6XbVOGmD8ZXwZoyki+OY4FsjO/FqfNCKUP3p8YpvWBHIrLrZwXnp0YqXYc/g/yLAF5OjYmoiEj47Hg3/vpgG/3dob0/Fo+FHE7HwpxKu3dNg0NlgPAAgnd9EeBGBX6/3L5RdGyJvpAAoQ2xkvgGw8vm3G0dGcXXH5gLbA/dOr8QH8X8brTmmn4i/MbitXf3sYJN0f+Bsh8GvAjg8j90mQXyDxlprIho+PhHt+E18U3vpHAqxT1fXWGJL6MFELPwfTsPpI9A3VQ/RylKDxsbDHl/wvyEXMok8kAKgDA10d/YzkyVPsU/sSuCO2E4rQuVE71gKXwhtQtqwpExZGY8sUJ49MUv3Bq8E428A6vPUZYQZXwM5/IlIx1X9sdWdeerXdr1bVm6LR0PXJqKhOcT0IQZeylPXDgZf6/EH7oHfX0i7F0QJkgKgTCVj4V8R8IoVsf5nfbdV0+uWShuMz4U2YtdYyopwTAZdCdxrwzuPZQ63r/WmvUf55vzfLANriOjjiWjj3GQsfF0iskr9vOTiZcRjob8no+ElIJwC0DP56JQZ5+lc96jcJyBySQqA8mUwGZ/BnhXcStIG44rQZvRaM9Ba5n/Wd+O1+JBV4W6Obwk9b1WwiZo6NVij+9bdT6DP5aG7LjBfmIzOD+w5qObZPL8HL2yJSPifiWhoKWAsBWhFHro8BYQVun+RPw99iTIkBUAZS0Q6VxHoe1bE6hkbx/LVGzGWKYwVAX/d1offWPdqoqtylPK+7c8zp809VmU8BvAHc9xVHwGfT0QbFyRiHXfbM8tRPBLRzmcS0dAJxPQhAOtz2RcBC8CZ5+tmB+flsh9RnqQAKHPxaMN1Vr0KWJkYwudCG2F3DfByfBD/3RmxKpxBBn16587QsFUBJ8LtDXiQGX8coBNy2E2aCLelXc4F8Wj4F/LEn514LPT3RFNFK5iuApDLRZEzHQY/p89uKZSDnkSJkAKg7D2bNgw+H4Alc+VP9yTwnTX5XDj9VhuGRnHZyi6MszVVCBH+N99T/zWzW6eShn8ycEzOOmF+lTI4Ih4JX2bVcbyW8vur3N6A582/Jk9uqbU7rXdob08lYqEbXGTMVz1l8yCmwNCerp/VclQO+xBlRg4CEkhu6dioe1u/AaIbrIj3++4eeKsrsdw/zYpwE7ZrLIWL2tdjwKKzCRhYk8DgNZYEm6C66W1NDmP8H8jd9b27mfHdZGzBT+ya6q89NDjFkeKgptFcgP0A/MyYSUAjgxsBagSD3r4RLlWtQfcFAGAAQC+Ye6HRDoA3A1qEDGw0CB3JaCiCPN/Q2BPp3AHgox5f610MuhmANwfdNGia9qTbGzg1GQu35yC+KDNSAAgAQCLW8XPdF/gQAEvuLb9uw1ZMq6zAhw7JzyVtiVQaF76xHtvHlNc07jMO0CdyfYb9m+n+RTp4/HHkaPBn4CUwPpGMhTe948j8nDnFWe/vb3PAWAoDJzPRIqR5Kgjgt83S7PmvCW1/rwdQD6I5exoRAAbTnv+l+wIDAIWZ+XmAn65JV67Ytq19xNI/1n7Eox0PNzQ3B4xU9S8AviAHXbiJ+LEGb8vJ/bHOf+UgvigjUgCIfTjtpI870/wGAOVD/g1mfLFjExiMsw9ptCC9/RtIZ/DJNzZg3aB1R6kT0VWJSOgNywIexPTpbdUjGH8QwBE5CJ8mwk8TjRXfQnt7rrdqkO5vWQho7wHTUqDvJDDqGZTPo23qAT6eCMcD9LUR1/i47g28DI2eAfHTiWrjZXR2WlYpvt3ekxEvdHuDDxLxrbD8qmJqMoierpsdPHlwc2idtbFFOZE1AOLfhjaGdmlE58KCrYEAkGHgSx2b8cD2PivCvauBdAYXtq/H6qR1a/QY+EM8ErrFsoAH09bmGqkYvx+ME3MQvVsDTopHwl/L5eDvmdPidXsDX9V9gfVgbSUY/7d390K+Di06kAoQTgLzd2Dgn/qQtlP3Be9yewOnIYdlSTIW+gs5jMVgfjUH4ac6DH5ssr8lv+/ZREmRAkC8RX8k9DKYv2JVvH1FwIPb+60K+W+D6Qwuet3awR+EcE2q4lLrAh6cuyd1IxinWx6Y8LyLjKP6o+GcnGKn+xfpujd4oe4LPMkZLUKEH6EQrto9OB3gC4jwpO4Lbvb4Az9yz2o9NBcdxTd1xhIVoyeB6MYchPenWHto6tRgcdzIJQqOFADiHRKxjhsZ+KNV8TIMfKlzMx7eEbcqJJKpDC5oX49VA5buzksaacdH8vW+GAB0X+CbRPwZywMT35CINC7duzjNUg3elsN1X/AucGYHiO/Enit1i/TsevYx46uk0QbdF3jS7QsutbyLrq6xRCR0JYMvATBmcfS2sUr+PbBM6XZPUZ6kABDvqmqULgVg2b3uaYNxZXgj7t6ySznWrrEU/vO1tdY++QPMoIsHuldtsDLogXh8gY8DsOQgpjdJE/FnE5GOq6ze1++Z3RrUfcG7DNJCexe4VVoZ32YE4DQC/0P3Bd5wewPLYHFRk4x2/BqEMwBYOx1GOFv3r/mppTFFWZACQLyrnTtDw2zwfwBQH7H3yjDw7TUx/HhDt+k9WmuHRvChV/6FtUPWLfjb6zvJaOivVgfdH312y0Lecye9lYPMEDGfE490/NLCmPB4W453+wKPsEGr9w78pf60uZgIf9Z9wX2FgGWfk4lI+J9GxjgGVp8gyHSl7g98ytKYouRJASD2K7mlYyMbfCYsOiRon1s278AVqzdi1DCyavdS/wDOe3Uddo5avZaNfp2Ihr9vcdD9qpsxvxGGdj+Aauuici+DTo7HOh6yKqLuX+TX/a0PMmkvEPB+q+IWD160txBob/AFjrMq6kB3Z1faSScCtMqqmAAAxk26b+FiS2OKkiYFgDig5JaO14np4wAsPTTmkZ1xXLqya8KH9jywvQ+fbN+AQYsO+dmHgUcT0Qbr38Hvn6Y5XXcD8FsVkIEdlKGlyahF2xbb2lx7rh7OhMF0liUxixovMoAVui94V23z4slWRBzaGNoF0t4D4EUr4u01CeD76qa3NVkYU5QwKQDEQcVjob8z47NWx32hbwBnv7wGa4f2v+YubTB+vKEbV4U3W3a875u8UTFinJfPM/B1f/DbFj9NxzhjnBjvDltyso/ubz1F7x1ftffq4cI7etc+BPAFzlR6ne4NXmnFortEZFXCNWKcAeBZ9fT2YZ/mGr8TRbsoU+STFABiQpKx8O0M/qHVcSMjozj75bX4y7bed/xeXyqNT65cj1s2W76QHQC6tTSd3dPTaenrjQNp8LUuAfM3LQy5lQ1eOtDd2aUayDOnze32BX4PpmcAHG5BbqXKA+Lr3b61L9TPXDRXNVhPT+dQdariTDCesyI5ACDgAx5f4HKr4onSJQWAmLBktOObxLjV6rjjhoGvdETwvXUxpPY+5a9MDOHMlzqxom/Q6u4AYHtGo9P6t4a6cxH83Uye3FJrMH4L6xbQ9WhsvDe5pWOjaiC3L3gEZ8bbCfi4FYmVAwKO1RyZdo8/+DHVWNu2tY9oFbvPAuE1K3IDAAZ+4pndGrQqnihNUgCIbHA8Fv4sEW7LRfA7orvwsdfW4RebtuM/X8vFYj8AwHYHYWm+j1BN1dBNIFJ+YtwrAc043Yqz4N3ewHICvwggJwfhlLg6Zv6D7gveNX16m9KCzv6uroFMKvV+AJ0W5VbJBt0Nv7/KoniiBEkBILLF8Uj4Mwy+ORfB2xND+GnX1ly87weAXRprp/dFwmtzEXx/dH/gbDBdaFG4cQZ9JLG5c7VKkIbm5nqPP/AnItyK0trPbwO+YMQ1/lqDd6HSJU6DW9f2QUufCWC7RYkF3UbddyyKJUqQXAYkzOBktOMKt68VBPqc3clM0C6NtaX9sdVWPWFNSENzc72Rwi8sCscgWp6MhJ5WCdLoD8zPpPAIgNkW5aWEgVEAEQARYuwEoY9AfQZzhsC7ibS0wVwHAJqGBmY0gdAEhh97dlMUwn0DhxtkvOTxtX4sHu142GyQxOY1Ubcv+EEC/xMWLMIkwpfdvuC9lu0QESVFCgBhFiejHZ/XfcFKgC+2O5mD2OkAv6cvtnpNvjvm8Uk/BmGmReGuTURCd6oEqJ+98OiMkXkYILu2io2D8TI0PAtgJRsIJWPhzYDps6Ew2d8ybdygAEhbRMBJAJ8Ee4qCOgbdr3uDFydiobvMBklGQ2/os4LnQ+P7oD5L6yTwrcCyY4F7rd1DK4qeFABChZGIhi7V/cFuMBfqVOPmjEbvT2wO5/3aVH124CQ2sNyicA8nomGl73G9f+EZmmH8BaB8b+97g5keB/jpmnTFi1bftbD3voMdAJ4E8L/AKc56f3+bA/weZpwG4BTk7/RCJ4h/6/a1TklGO35iNkhiS+hB3R/8vkX/ro7UfWuuSkQhxwWLt5A1AEIVJyKha8B8JYDsjvbLvZDTcJ5gz53pyxxg/ALW7MeOZNKpi6Dw/dV9rR/W2HgA+dvbvxVEN4KMxYlouC0ZC/13MhZ+Kj8XLT2bHoiEXolHwj9KRMOnOZGeBaarALTnvm8AABHof3V/8AYofMYmIqHvATD9OuFtKV3TNGvxdGtiiVIhBYCwRCLWcSPA5wKw/JB+k57SXLtP7N2ycpsdnXv865aDEbAg1G7S+OzBrWv7TOfiC1wB0L3I/WI/A+C/MtNpiWjYm4iErkxEOq097taE3uia7YlY6IZENHwkNGMRgF8gHz+nzF/Q/a13KBwaZDDjAgCbLcimNk1py8/xEMVNCgBhmUS04z4NOBWA6cHKEsR3JZoqPtDf1TVgR/dub8DDbFhyyx8BX4lv7giZbe/xtn6CgRuR23/rBhHu1dgIJKId5yZjoX+g8GaDAACJzZ2rE9Hw59Mupw9E3wWQyGmHTBd6vGtvMts8GQvHDcP4KAD1PbGEC+tnLzxaOY4oGVIACEv1R8MvkUGnwJqnlmwxgO8nIh2fRHt7Tg4RmAgifMuiRXYPx6Nh09stPb7WM5noDuTuWNgMAbczqDkeCZ9nxbkE+TLUtbInEQldw4w5YL4GQE5OnAIAJlym+4PXmG0/sKXzNTB+YEEqpBnGzyDHBIu9pAAQlotvCXUYGeNIBh7LY7eDDFqWiIa/DYUV5ar02Qt8AKw4hnVX2kmfhsk/S70/eAyD/oTcLfR9w9C0JfFoeHkyGrKj2LNEMhaOJ2Id33UiPQ+gu3PWEfN3dG/rF8w2T8TmXwtrLg5aovsDZ1sQR5QAKQBETgx0d/Yno+EzGXwtcj8g/yuj0VHJaOivOe7n4AzXtwBUqIZh4i8MbQztMtO2wbuwRWN+BECNah7vIgGmqxLR+UcPbF79ag7i26I3umZ7Ihq6EDCWMpCb7aJEP3N7A8vMNb43k3Fon9p7ZoIaxvchn/0C8kMgcstIRju+SeCzkKt3rYwHyFGxxJ6V/m9VP7OlGWDlE/8YeCQZ6fiTmbaT/S3TDDIeA9Cgmsc7EB5Mu5yHJWKhG0p1T3ki2vlM0rV7MRF+DOsLV40Id3u8LcebaTy4afV6AqxYyNfq9reaLEREKZECQORcPNrxcMahHQOgw8KwKQZ/JRELnxPf1J60MK5pmsPxbQAuxTCDDid/xmwKKWh3AZYdPLRPGkTfTUTC5wx1reyxOHbh6eoai0fCX2XGewHstDh6JZN2T930NlNrRBK1xnWw4t8R0zVWXGksipsUACIvBjetXp+gwaOIcB0UV4gzsJYNXrL3oBXb3ve/mdsXnA2wBbfp8Xf7N3ZsMdNS9we/Dcbp6jm8RUwDn5yIhK5Bga7sz5VkLPyUlqYjQXje4tAzNdf4XTCzGK+zc5zY+AwUf+4JmO/2rvmISgxR/KQAEPkTiYzGI+GvaeATAZi5xpaJcFvVKB2Z3NLxutXpqSDw1VA/bW5jwjVq6t4Aty+4FMzfVOz/begZZizqj3ZYsfisKPVvDXUnIo1LAZjeyvduCHi/2xv4ipm28VjnCiLcq5wDkan+RemQAkDkXX+040XNtfuIbK4VZmAHgc+KR8KX7dwZGs5lftlyewMeAJ9SjUNMV6OrayzbdrWHBqcQ+G5Yedwt44HaTM2ZyVg4blnMovVsOhENX8GMr8HCGSciXOvxLjzBVFsHfxmA6qmKR3pmBU9UjCGKmBQAwhb9XV0D8Uj4MgadiwO/Z2UAvwfjcJVb1nJsOZSP2KVn4rHQ3800dGb4dwAsO+aVGLcmYvM/0t39UqGc6lgQkrHwdcy4DIBVCyCdDOMPewvIrPRv7NjCTDeoJsB7CglRpqQAELZKRkN/dY0YzUT0OQYeASiKPQXBagA/B7S2RDT8icJ9El3mIMIVqlGIM98y0073By+08r0/g38Yj4U/U6qr/FUlY+HbAV4GK07mAwDCLIBMrexnI/MTAGoLYBkfdHsDc5RiiKIltwEK2/X0dA6hB7cAuMXuXLLl8a77ACuuumfg0USsc0W27dzegAfMP1bp+6158M3JaMc3rIpXqhLRjvs8/uBFzPw7WPAQRcTL6/3B3w5EQq9k026gu7Nf9wevV7wxUAPxxQDk770MyQyAEApYMy5VjmEY5j7Aia8FMEW1fwBg8D3JaMfnrYhVDuKR0B8JMH2y39toGvNNZrblkeb6GYB+lc4J9CngFHkYLENSAAhhUuPMhTPA9AHFMP8Y2NL5WraN3N5AG4GWK/a9z9NJ1+gnUWbb/FTFo+Gb9m5rtUKbx78u67/P+Kb2JINVZ84O0f19ZyrGEEVICgAhTDIc/Ekorrwn4P9MNNOI8EvVvvfqdI0YZ5vZfSCAeCT8dWIydWrj2zHztbWHBrOe0akg/gUAtb8/pkuU2ouiJAWAECax4sE/DKyNR8OPZttO9wcvAHCkSt97DWtsnNfT0zlkQaxyxY5JY5eCeYMFsTyOtHFNto16Ip07APqdWtd8Rt2M+Y1qMUSxkQJACBM8s4KtAA5XCkK4HtnvK9fA/F9K/f67f7q8mK7wLVS969YNkkEfAaC8bZJAn26cuXBG1u0yrLol0KU5nf+hGEMUGSkAhDCBNf6oYoghh3P3H7Nt5Pa2ngvVwgMAA39MREJ3qsYRe8S7w2Ei+pIFoSozDuOLpvoHstpF8HZEpPozLYqMFABCmMDAuYoR7unv6hrIshERaV9X6xcAsLlqlJR3L4i3ikdCt4DwoAWhLjNzWZABvl2pV8ZSM2sQRPGSAkCILDX6WhcQMF8lhqE5sv6w9nhbzwR4kUq/AEDMXyi045RLBWnG5wGofm9rNNfYVdk2qhjhPwEYVOjX4cyw7AYoI7L3U4gsZUDvV2lPwLqBzatfzbYdk/Y1C46ivy8e63hINUhRYqZPvzAcJKJjibRpDJ6kGYgbRFtcGv/zl0uqt6p2Ed/UGfP4W69lNne63z4E+rzuX/STRGRVYqJteno6h3R/631gutB0vwadAeAOs+1FcZECQIhsEd6nMg4zIettY/X+4DFgPt58rwCAYXIYWT9ZFp2QTLUAACAASURBVLsLHueaitrdl9OK3VeCtD13JjCDADABBEbaAC55YXeYyPh5arz67t++h0bN9hev4Z+6h+gCAhYopF0Pw7gIQFaL+4jxZwZMFwBM/N49hwI9mzYbQxQPeQUgRBamTg3WMEPpBjXN0P6cdRvmC1T6BAAC/TC+qTOmGqeYXLpi+KjKmt1riHEdDnphEgeY6Tana/f6i5/bfarpTjs7x8GkfqoicdYDebyp8gmonQzoafD1Hq3QXhQRKQCEyMJ4FZ9MQJXZ9gys6Y+t7syqUUtLBaC866DfUTX2c8UYReXS50fOYabnAMzKsuks0vjJi1eMmN5umYyF/gHC82bb73WEZ2YgkFWL9vYUWG0hokF0hkp7UTykABAiG4STVJpr4Kzfv+tDdCZAWa8Kf5vre9etU1kgVlQueWHkw3tftZgt1ogY/3Px88Nnmc3BgHat2bb/5sT52TZhkNq12UxKM1yieEgBIEQWGFii1p6zPvkPINXp/wFm/EIxRtG45IWRDwO4B4BLMZRGRLde/SJPMtN4ILL6cRCyvufhzZjxiWwvCXJUjDwBpeuK+Zg9s06i1EkBIMREtbW5wGhTiDCUcI29mE2D+pktDQCULhxixs3JWDiuEqNYWDj473PIYGbk0wrtVWcBZri9607JpkF/V9cACC8r9FldP4CFCu1FkZACQIgJauhLtQGoNh2A+JlsL90hB50DoNJ0n0DGxc6yePefg8F/D6LzzDZNRMIPAtio1r3xn1m3YXpcpU/N4VDdcSKKgBQAQkyQYRhKq6PZoBXZtyLzq9EBEPNTvVtWblOJUQxyNvjvcdwFj3ONybYMUr2oh5Zm3SnxCyo9MhvHqLQXxUEKACEmirSgSnMNWrYFAAF4j0qfILpbqX0RyPHgDwCuyvpxr9nGnDHuhtoJTnN0/yJ/Ng1q07WvAhg32yGBstt9IIqSFABCTBSxSgEwFteSr2fToMG78HACpin0OeQcMR5QaF/w8jD4AwAoZZg+Iz+5pWMjgJeUEuB0VrMA3d0v7SZgpUKP89DcrPLqSRQBKQCEmBgNjBaF9mFEIlmdLsdkqD39M/7S09M5pBSjgOVr8AcAIjZ9MiAAMOEuxQzMvAZQWQjo1NOVKicZiiIgBYAQE1A3Z2EzVBYAglZn24JBitP/bMXNdAUpn4M/ABgG7VJp7+K06t9F9gUAI6zUo+FQeuUlCp8UAEJMgDOTmasU4P+1d+fxcVX1//hf73tnkkmaZCZb0yXNTNtAaZNJC2GxUKBlk03ZLCB8QHABRXHBD/LF5SPCR0VFxeWjIKjIIlBA8ecCylY2UaC0zUIXuswk3bLPJGkySWbu+/dHW4SuufecWfN+Ph48XDrnfd4lk3ve955zz2GryWYLA+DFCj1aVoJfVGifsVI9+AOIRDs8Slsod4fXbGdgrUKIqeWBoK0TKNliu9+59yOuVWovMp4UAEKMC81Uam7A1sW4pLpuFoAyhR5X9W9pVdkTPiOlYfAHgBceu5gS6mH4BZXWls09KIoSnlYAlvMeKeC8rcgGUgAIMS7kV2k9Rlhj5/OGSYqPX0lpsMlEaRr8QYSHtARixZ8JwdbK/G3bVgwBCDvv0FIrekXGkwJAiHFgtYvh8M7NLfbmkNnexX5vBCunCoB0Df4ANkW2FjypI5AVz3sBCq8DWo6+ExRy2p88Ach9UgAIMS5KTwA2w+aFnwm25nv3NuYylPagzyRpHPwB4EY9j/+BgW0rugFsctqeAAer8nmz0/4ATJMzAXKbK90JiBSqq8srj7oq44aVNe/3Gq68nr5NK6LpzgOMKpDj1g4uwhRw3BuwfXBjk9Kq9UyRzsGfiH9zzwmT/qA1KKMFhNkOW88AFruA5XEbbUIO+wIAo6I/r6IbyPmdJCcqKQByH3lrgh8hwqd5EMcnTMvjfBxLPU6MwucPbibCYybH7+wOr9melkTI+YI8Imx10CzgtD8ArQptM0Z67/zp6bHRgs/qjsrELQQ6z2Fzly8QqY6EbAzqhHaVPQgTrrEKSAGQs2QKIIcVT2us8PmDzxJhGYBTyPnZ6Ok2kxlficO1xltT7/hgFqeqqxcWAHC6Fzws5i5bDWpr8wmoctofOXrikFnSPfjHxzwX3LeElDb/2W9khSmAXRK2pqLI4m6V3tjicpX2IrNJAZCjfIEFPtM9+iIcbCCSwbxE9Iivpv6KVHY6lD9QodKeiHrsfL5suLASUJhwUFr4lX65OvgDAMMIKbW3qNLO5+1+9/bpjw2l777IbFIA5CjmxP8BmJfuPJKAmOhXJdV1KdukhEfIpxTAsncR5jxL5f1/sLMpB9uu/xvnX/831rqeJK1z/qC/FvR7zk/W4A8AlklblAIY9u7I4wlT6QkAgFLF9iKDyRqAHFQ6s76BLVyW7jyShQAPmcYtAP4rFf0lyPIYKrUyI2Lr4xaXqzwAILZUL/r7dc2rsdkJ5ssJfAZA9cMY9gLAJ18ZjgK8BuDnwfjDvSdOWuEkfroHf0+/56KfnU0jSe1oZKQHLud/PYPJ1h255aGIMea4OxCowHlrkenkCUAuslIzMKYTAxftnptPOpNcSne5lmlvUCE2i1T6IzKUHvvu7RP/jJZ94pWdv7XYWkvgbwE4AWDvfz7BXgAfAOirIHrzk68MvfCJl4ZOsNPHhBj8AQxsXdsHhd35LGZb3408DCj9nZggrwHmMCkAchAzHZfuHJKNAM+Qa+f8VPRlEStdBA2O2zqX3QLUCg5KDKu0f69PvTJQR5b7dQJdhfE/MVxMBl78xKtDt1/zJh9yQJ8og/9uFgDHfZHNAbk3bu+7tzcDUgDkMikAchATbC0UylZsWSlZoGRAbZ6bGLYuwgap9WdapHTR3+O6F7iIYT4JOHpv3STGTRyL/fFg6wTSveBvbMzzkRQO/nuo9GfvuxEKqT0BUPzui8wmBUAOMoD+dOeQCmzQQGo6YlOlecIw7WzcAmZS6m8s4bLV34GMuGI/AqC02JLB5wyXDD+8vycB6b7zT/aCv4NwPCtPZPvfFQNwvJMhc1p2XxQpIgVAblI7BjQ7sBW31M47H6eEYSosowJMi2xdRMlwPkAAgMsYU75of/q14QARX60aZ7cL9n4SMEHv/Pdw/Fid2fbTAwOA44KSjLT9OxIpIAVADkqQ8US6c0iB51N13K3dOfy92V1DYNmcMtinvaE+b5tI8Oeh8S0hBp8T8w4/cs2b7J7Ad/4AAFZY40GwNyBXVy9M6fSVyC5SAOSg/tDqfxDw73TnkUQM4v9NVWeqF0HT5sItgy2luy6yXEpvEQAAAx9WjbFPTMb5Vmz4RUycBX/7sdhFCgWABcvWd3HQNaxUADDUvosis0kBkJvYAF8N2Hv/PIvcGQm1LE9VZxarDRgW2N4WzGwoHX7EhtriyE+8OuyHs4V/47EQE3bwByoDXRVQ2uXRsPU77caY2vbf8gQgp0kBkKN6wi1rLMP4IAM70p2LVkQ/jYSPuDGVXZrEQ0oBmG3t7EeUUNy+1d5mMftIqC38yzxpn/N/V8JyKe6tb9ma9kpYzg+xAgAmqH33RUaTAiCH9W9e/TonrDoQ/wTZ/2bAP9ngD0ZCTV8AHtNyPvt4jZiq+6nbG5BV+yNCtVJ7g3Nm//dMmPN/LyarRqU9Edna5dEy1fbyt9ufyC6yFXCO271Q7ouorb2pLF54JAMzLYuL053XeJCBUbK427DMlT1bVqdkf/v92VmW3+vrHmU4fHRrGLB117dzc0WPz98Th+PfT2ums3bvUnoLIXPsuvO/JwPu/N9FFAA7P5/XYHTaamBxhdK20pbeXSVFZpECYKLYsGGkF/gXdv0j7FixYgz+YD8A7yE/ux/MdjdmWh4HGrYCbOvo1/90aCjN3xugTkvlEPmMkNxT/ZxiZqXpFQPxkL3+qJxUzpVEPCVv2oj0kCkAIcZH5U7IwWNfDjnvjoNQuO0bHYu1ANCymVB6ZObgDwAgBBVaD3eH19hb00MOi8jdRvPyulTai8wmBYAQ40LbFRrbfyTP2KzQX4kvsMDxhf++JaURMF5X6D9tMm3Ofx+MeudNEdr1H+NHoIDT/gCMDW6olScAOUwKACHGReWOHDOApbZ2Y2PiVoX+QJw4Xqm9QfeotE+PzFntvz/emuAsAFOdtjcILXbbMDDLaX8A2lK94FaklhQAQowDqxUAbl/gnRm2+iNTaZtjBi9RaT991PMggPUqMVIp4+/8AYDUfibMcPKdUFkQGlJoK7KAFABCjIsRUmlNHK+z8/k8HlU8z4GUBptbllDcYutiIBveA8/sO/89SPFnArJXAJRU15URMMV5h6wyDSWygBQAQoyH2pw8QGiw8/Hu8JrtULsDm+2bOVdpAdhvTixaTYQrkcELArPizv8/Fqs0NuPGG3Y+b7jI1ndub6RY9IrMJwWAEOPgsmitSnuLycnq7xdU+gS7TlFqD+CeEwqfAOGjyMgiIDvu/AGg3F8/F8B0p+0ZWGt7LwzLXtG5b5/WGpX2IvNJASDEOOy++Kq8CrjAdgum5Qr9AUwXKrXf7d4TCh/PvCIgg1/1248E6CMq7Ql4zkEjlVcOkTBN24sORXaRAkCI8XO8MI+AI0qq62zty+5i81mn/e3CZ1YG6hTmgP8js4qA7Br8AYCAy1XaM8j20yAGnaDQ5dDAptUbFNqLLCAFgBDjRaSyMI9M0/iAnQbd7Su3QW0lvmsM5qUK7d8nM4qA7Bv8ywINH2BgjkIIyxpzv2inQfH0I8oJOMJxj8wtACzH7UVWkAJAiHFitpRW5ltg2+/mE6uuA+ArlNrvJb1FQPYN/gCQYEv1Z7B6YNsKW4fyuMy846F0CICh9BqqyA5SAAgxTiabSucoENOJdtsw8T9U+gRwVOnMeqXFYHtLTxGQnYM/AgEPgS5RCUGEZ+w3wkkqfbKcGTIhSAEgxDj1tq1+G4DzrVEJx5fOarR1oFCEBv8GIOK4TwBs0Y0q7fcntUVAlg7+AEq5+JOAvdMg90H8kN0mDD5TpUvLwMsq7UV2kAJAiPFjAK8ptHdxYuRUWy1CoRgRlin0CQAfLalecJhijH2kpgjI3sEfjY1uBv23YpSWvs0ttqaeyqY3VAOwtfHU+3H3wOamrNkFUjgnBYAQNhDxq4ohzrLdwjIeUOzTNF0J1YFov5JbBGTx4A/A2z1ypeMjnd/F99ltkTD5LKjM/zO9CpuHDonsJAWAEDYQw9Zq7P1EOAc2f+/62la/CmCjSq/MuLp0Vp2DY4kPLTlFQHYP/sBSk0BfUQximQnzEbuNyMC5Sr0SXlJqL7KGFABC2NAbnvtvqKwDAKb6AvV2F2gxiB5U6BMA3JygbyjGOCC9RUC2D/6At2btxwEcrhKDmJ+xu/ufL7DAB8YHVfo1wU+ptBfZw5XuBETqFE9rrDDd8RnMVs4UfobL6urb1NqWuh4fSxAFn2XGxU4j7G673FabhPUAGfQNKBXt9PEyf/A3veFmlXUMB3TvCYWPf+qVIYOBBwG4ncQgwpOeqOfSbNje90CKpzVWEI1+VzmQYfzOfqPE+QDyHffJaO9pa5EtgCcIKQByXWOju7R79BoGPg2M1gMAOZ8dzDicMODzB7cy0/0A/yDa1tyX9D6BpwDnBQCBLgIWfx5YPu675Wh7y0afv/6PAF3ktF8AhkW4G1h8lJ2+7bhnUeGyT7483Anix2Fv9fs2Bt147wkFv09GXqlkusduh+rKf6Ctb1LiCbuNmLFU5debDMjd/wSSM3eCYl++mXP9vu7RNxj4OYD6dOeTRNOJ+GYirPXNDCq9/zweLo7/HWqLpCaX1vTaXwxI/L+K/QKMoK+m97NKMQ7h3hMLlrtMOhqEh3Ho3eS2MXCD4Sk47NeLsn/wL5lRdwzAV6vGIeLvorV11E6bCv/cqQScodLv7uJWTBBSAOSoCv/cqbBcLwGYn+5cUmgyW/h7mb/e9o57duw6qpf+qRKDDetTdttEQq2rtFygiW9VPSr4UO5aWBC694TCyywY84jwZQB/wq7NZdaD8CJAd5FhnRndVlDz60WFP/7V0TSUzHxSorY23zCMe6F+Xd3W54r91m6jBNxXQ+2p7s78YbK/6ZDIWjIFkKPiZN4NRlJWfWcyAjwW6OHKyrq6rq7WwaR1xNYykMJhK0xnl82un9G7saXdTjOT6DaL+WzH/e5SgoS5DHV1J9q9y7TrN4s86wCsA/CjZPaTCbxjnh8BakfwAgAId2DDBrtrIIgVnzww8KeOjqadKjFEdpEnADmozB9cCKYPpTuPNKoZm2R+MpkduNj9ONQOSzGtMbJ9we4NNf0LDk6G2wfRsaWD5reV4wgAgLem4SMEuk5DqB73Tuse+/0HTwVQe9APHWLyiAiP2e1XZDcpAHKQRaTtBLhsRcxJ/Xew+6Q+te1SCZ9FIOCx3866Vanf3Rj85dKaerV3xgW8M+pnE/G9OmIx4weOnlztmmY5+CB/8NWB/REMPG27X5HVpADIRYzGdKeQbgwchSR/v5lhe4/2vUz2csl/2W0UCbUsJ6ZHFfsGAGKi+0qq6w5+5ygOqLKyrogMWgbA1hkPB7A+mjd8p91GpTMa6gm73/13/grA4wiFsnbfBeGMFAA5iMFl6c4hA7hLZzUWJ7ODvGHrYQADKjEM8H/Dwe+hy0h8EUBUpe/dyg3T+HtloG6KhlgTS2Oje7TQeAy7ik1lBHzRwdw/mPjLUBn6ARiAlicYIrtIAZCblE6PyxHxvk2zkrcIEMCuR7WsdCfOwByfv/48232HWncAfJtK3+8xawzGP3yBBT5N8SYC8nWN/ooApVP33g1GWNYXbrb9hodv5lw/CJep9M3AmmRtDiUymxQAOYiAt9KdQwZYDTyWSHYnlmHaXrC1L7oNDn4XI+GKnwBYrd4/AEYQnPijozUJE5DP3/ADEK7SFG7AiBs3OGppuf4HQJ5K56R2wqXIYlIA5CCytMwPZzUG2z5ExYn+zatfB2iVYpi60kCDg50Fl8eJjc9B38lti71c/MS0aY2FmuLlIvLWNHwH4C/rC8nfsrvnPwDsPuL5Sg0JfKw00PBRDXFElpECIAf1tTe9DOC5dOeRRttNd+xXKeuN8WP1GHwLGhtt75/f17b6Feza6VELAs7e6R59tqS6TtaR7GOxy+cP3kvEN2sM+s/dT3JsIzNxC/Ts5WIy8wNSBEw8UgDkKDKtjzOwI915pMEYM13Ru2FDf6o6jFS6HwbD1oY+e2Ngjq9nzNEWvRH38I0AVqj0/14ELCTTeCVZxwdnpdrafJ+/+xEAH9cYtQ9kXu7kXIYyf3AhAToHbJOZf+fz11+oMabIcFIA5Ki+Ta1tlkGLAaxPdy4pFCXgvGhbU2qffqxYMcbA/ynHYf5m8bTGCtvtNmwYYYsvgZ63AgAABMzluPGKzz//SF0xs1VloG6Kb6zwOcWDmPbGxHxlJLQq5KCtYTHfCcWV//vhBugRKQImDikActjA5qZ1RYmiBUT8VdU71AwXBfB/brKOcLKSWgcyzLuh+EogAJ/hGnO0sj/a3rKRmfTufkiYAViv+WoavqA1bhbx+euWjLHxFsDOt33eDwL9sK+t5S+OcgoErwTRsTrzeQ8pAiYQOQsgx23Z8towgO8C+K53Rv1sMjGDLcqRnzuxCdrR23b42lSs+D+YSGhVxOuv/ymBvqYSh4ivKfPXP9AbbrF92FC0relxr7/+F5q2pN0jH8R3+vzBxcz4eCqOW84QhrcmeCOAbwMwtUZmfr2v2HL0PSmefkQ5GN/Tms++9hQBl0bCLX9Icl8ijXJkIBDjEW1v2QhgY7rz0E/Pm3CqiFx3gBPXAShVCGNYoLtRV9fo5KCeqDt2g2+scL7uO1YA5xMhWDqj4erdi0xzlndG/Wwy6F4Ai5MQfhu5eKnTQ5hMV96PAZ6sO6n9kCJgApApACE0iYRWRcCwvZXrftT7Bo2bHLXcsGGETPc5SE5VNJsNftHnb7i/aHZDKgah1GpsdHtrgjfBoBYkZ/CPgqxz+ja1tjlp7PPXLQHY9tbRCmQ6IMdJASCERsauvdx7NIT6mi9Qt8BJw75NK6Iuy3U2gJCGPPZGAF/hivO6XWsDlup9PJ4mXn/DKd7u0SYi3E6A9s2QGIiRRR+KhFod7Rmxa5dG87fQv/DvUNwALZNXBHOTFABCaNS7YUM/mL+lIVQ+2HiounphgZPG3e0rt5mEswDu1pDL/vh2rQ1Y+5a3pv5iZOm1pHRGw4mlNfVPE/g5Ao5IUjcJInxUZeqEOfELgP06k7JB9gnIUVn5SytEJou0VfwSQIuGUPMGzcHvO23cE2pea1l8NoBknonQQESP+vzBd3w1DV9AbW1+EvvSprRm/iKfv+HPbPBLTPTBJHbFDPp0JNT8pNMAvpqGKzW/8++EFAE5SAoAIbRbHjeIbtQU7LO+QPB8p43721vfgIFzoHGPgAOYBeI7fWOF63z+4Nd9M+em6271gLw1wVJvIHitzx98g8l6GeBzk9ylRcD10XCT45P2ygPBI0CsbadHRVIE5BgpAIRIgt5Q09MA/qohFIHxu+KZDXOcBohsbn7JYOMEALb3m7eP/QBug+UK+fzBN301DV8onn5EefL7PZClprcmeJrP33A/EbYQ4y4AR6eg41Emvqwv3Ox4g6iKOXOK44w/AEjqsdY2SRGQQ+Q1QCGShczPgRMnAyhSjFTisvhPZbW1xzrd4ri3bXWr199wIrH1dxAdppjPeDWCuNFwuW/3+RteA/gFYuv5vkrP61ixYixJfVJpdbCeDToFBp8CXnsSAJ++85LGpZ9BF0RDzc8rxKDESN6vCZirLSt99hQB6As1PZzuZIRzUgAIkSSR0KqQz19/C0B3qMZiYA6PFtwPLL3I6aZH0XDT5qLZDYtccf4bgEbVnMZr16p6XgJgCZNxq697dCfVBF+FgZVgNFmgtWDebHeToWnTGgtjrvhMixJzwFQPovkAn8hAJcApHvPf1cGgs6PhJqUjuX3+4NeYsVRHQkRYBgt9TLhWR7zdpAjIAVIACJFEkfDcO33+tZdCx2Nnwnm+mrV3RNrwJachBjc2dVbMmbMkHsv/fQrmwA9kEhPOAOMMYNccBwjw+YNRAnYwqBvEPQSMAGCLETcIbma4wCgHoRxAxRBGq3aFo90vx6VnxH+PVrb4vGh7s9JmW95A/SVg3Kopp6iZcH2pu33l9tKaIKQIEO8lBYAQSfVYAlT3KbDxOgDbx/3ug/BFX0395khby0+dhuhet24AwId9NQ2fB/H3AeQp56WHlwEvwHPeewNPAPi9/yMj0QP5MXymo6N5p0oU38zgSbDwO+j6mxK+1N2+chsA9LU1f0aKAPFesghQiCSLhFpXEfE3tQUk+pE3UH+JYhSOtDX9xLKsRQA260hrghpmxjWRcNOVHR1NSoN/6cz6Blh4EoCeVykZf4qEmn/73v+nr635M8S4W0v8/5CFgVlKCgAhUqAv1PI9gF7QFM4kpgdKaxo+pBqov731DTLzjgT4CR2JTSQMrCWLjo22Nd+jGqukesFhlkV/h9o5Eu/VMWby/u70pQgQ75ICQIjUsMhMXAUgoime2yJe5q0JnqYaqG/Timgk3LKUgOsBOHrLYIKJg/gnk8byGvvam5Q3fPIFFgQMI/EcAVN0JAfAYuYrdm5u6TjAn3NfW/N1YNynqb89TGb+XUlgfjI3VhIaSQEgRIr0bWptY8Y1uuIR4CHC/1fqD56lIRz3hZt/7iZrDkAPIANW1GWoNy3LOj4Savnitm0rhlSDlVQvOAyceBGEGTqSAwAC/zDa1vLMIT5mRdqaP5GEIsBtsPXwpJn1VZrjiiSQAkCIFIq2NT8G4EcaQxYw8KS3puEjOoJ1hVp3RMJNV4KwBECrjpg5ohdMX4yEm4/rb299Q0fAcn/9XMNMLAdQoyPeLvRCX7jiq+P8cLKKgFI342bNMUUSSAEgRIpFwuU3AViuMWQeET/sCwSv0hUwEmp+MVJkHUWEmzGxpwXGmOkuK2EdFmlr+gkAS0fQkkDDcQnQywCm6Yi325a4C5cCy+M22iSnCGC6AjK+ZDz5AQmRcsvjcRddAmCLxqAuMH7rCzT8BLpeIWttHe0LNd8OMv0A/gd6jjnOFiMM/iXIPDza1vSZ/i2tvboC+/z1FxjMzwPQuUXyGLF16eDGpk4HbZNRBJSV++sdb18tUkMKACHSYHBjUydbfAEApVfH9sH8eV+g/j7U1Wl7tz8SWhWJhJtvy4+RH0xfRErOFEibnSD6qZkwZkfDLddFQqtCOoP7/MEbAHocQKHOuCBc09fW+qpCBCvS1vwJYvxDV0oJgqwDyHBSAAiRJtH2ljdh0WUAHG3te0BMV/oG6bkK/9ypOsN2dDTtjLQ1/SRCA7UE+iwIzTrjp9kWALclxvICkVDTF3q2rNZb5AQCHp8/+GsAP4T+6+5tkVDzfapBSmvqL2OiUzXkAwCwEqy3uBXaHfRR4e5dqV50Hp3fAVMuzR8eDscnc/EgQOu0ZiNyA3ElmDQuBHtXF2BdEgm36tp/YB9lNfPr2LCusBgf0/gaW6oME+EvsOiBvrayp2zOnY9b2fSGanbx4wwcpzs2gx+Jhlsug+JbG6WBhpuZ+dvQt9cig3g1mBwUtzwHIKcHaA0AWO+wbeYhLgErHN5l4OTI5uaXDhj+YG2VCwAhRLqNgXBTJNR8J5L6at9Ss9S/9gwLuIKAc5FZR9i+1xgxXmDwg/kjxh9Ud+87lFJ/8GwG/w6giiSEfz5SZJ2F1tZRlSBlNfXfTBDdkrG7LAvnpAAQQgB41kwYV2l/tL1fS01vzdoFAE4jwmkATgBQkPx+9ysBYBWIXmWLXzFcef/o27QimvReAwFPKYpvYcaNSMJUKwH/Nj2jp+8+18ExGfxznBQAQohduBvAtZFwyx9S2m0g4PHxpIUg82QwzwfQAGAmknC0DwM7iNAMpiYQHSiE4QAAIABJREFUvwyYL0ZCq3TtvjguvkDdArDxIIC65PRAq5j5FLvHJ+9NBv8J4BAFgJwGKMSEQRUAnvD5659wIXF9d3jN9pR0GwrFIsAL2PUPAKCysq5obBJqASMAYCYYM0BcDqZyBspp18mJXrz/7jkKIEHMPRZRDwE9RNgGUCgBbOZR98aBbSu6U/J32o/q6oUFO12D32TGl5GkaysDaxIufHBwowz+Qp08ARBiYoow4yvRtuZfQ9PmNhOZtyZ4GhHuAjA7aZ0QmseITz/IHv/jUuYPfiMB3CqD/wRwiCcAB52bogR59WckhMgAPiL8yucPvlE6o+HEdCeTrcpm18/w+RvuJ8IzSObgD6xIjOadojz419R/05LBf8I41Bh+0ALAAmt9j1gIkXGOYoNf9PqDv/cFFgTSnUy2KJ3V6PXWBL9rxekdgK9IameMlwz38Cmq0xtl/uA3EkS3aMpKZAELfNBXcw/+BMDkfL3pCCEyEBHwUXBivc/fcL/X3zAz3QllqqqqhknemuBNnBjdTIT/ByDJ10j6Q5FVdGbvhg1K+6nIY/+JiUz2HOzPZRGgEGIP9+672aU+f/AeBv04Gm7anO6kMoG3JlhqGPzpEbZuoOS8078PAt3RF266KaK4RqOspuGWBPibMviLvclWwEKI9yHAA+B6Am/w+Rv+XOYPLkx3TuniCywIlAaCtxNhEzN9J0kb+uwtQcDn+sJNN0LH4E8y+Iv9kycAQogDMQA+1wLO9fmDK5jxK3fB6MOqm89kAcNbEzzFMHANc+ICTu11socNviyyuUX5UB7fjPm3WWR9XQZ/cSBSAAghxqORCHfHY3l3+PwNyxj4fTQ850XgMb0HGaWRL1C3gGBcyowrAUzlJG6cfABvkmldFNnU2qYaaNedvwz+4uCkABBC2FEM8CcI+ITPv7aDUf8EYDwRrXC/jBUrxtKdnE3k889fAFgXEHAxM+akfszfg++N0OD12BSKqUaSx/5ivKQAECLbMZKwqe64VBHoOoCv83WPDsAffI4JT3Pceq5/S+uGtGR0CJNm1le5GIvJojOZcCZgTQGSekrSoUSY+NPRUMujOoKV1TTcYsngL8YpyQUAbwAolNw+0opAqABQBqZdh50QDwPoBaMbab2uiAmD2ARRLRgz0phFMYDziXE+mQa8/uAOAv0TxK9Qgt5k02hO9Z781dULCwaMwXkAjiLgBICPh7X7aFVKV830HoyXyGVdoeORP7DrVT8L/E0dsZIkAvBKwPYRwRP4OssBgGqTFT2pBQCb+E10U/N3k9mHEGIXr7/hIgL/AsDkdOdCwBSALwTjQjYY4AR8/mAbgGYw3gF4M8HYDMbmeMK9Y2Dbih44uJCX1daWULxgWpy4BkwzYSFgGJgNRsMgBmsJMN+XVQZgIGYQvtUXPuIHutZQlNU03JLhgz8A+AC43UPWh7u6WgfTnUw28M6qv5kS+E6y4ssUgBA5IhpueqKkuu4FwzB+BMKVyJQR7z9qANTsyorAYIAA0xiFzx9kgHsI1MPAIAOjBOx8X2tCPhiFADy7Dwwqt8bgBgBi2vMZpGHx3vgxXrJMuia6uWkd0Kwl5J7V/lqCvcfiCi/eigyiP65znSctGiukP0+b1njOtm0rhjQGFg5IASBEDunf0toL4CrfzOBvYOEeAIenO6dxIoAqGKjY/T/2xe/7cNYhYAAc/+zA5jXrdMXcNeevf/A/d0oZflw/E2sHh3HFivWIjMV1hl885B75e2Vl3VnyJCC9ZCMgIXJQZHPzS0WJogXM+H8Acv29/azAQDEbrmfLaurm6Yi3Z8GfjljvtWfwdxmE+pJCPNB4OHxu3feKtGiskJ6qrKwr0hxY2CAFgBA5asuW14ajbc3fc1muI4jwK8ixv/bpn06ossh4XrUISMXgv4cUAblLCgAhclx3+8ptfaHmay2i4wE8m+58skpy5hqUioBUDv57SBGQm6QAEGKC6A81/TsSbj6d2FoE4Pl05zPBOSoC0jH47yFFQO6RAkCICaavrfXVSLj5VGY+A1IIpFOVRcYLpTMa6sfz4TJ/8BvpGvz3kCIgt0gBIMQEFW1reSYSbj4VhrUAoAcAZNtWvrlgMhv83KGKgF2b/OBW3Z3bGfz3kCIgd0gBIMQEF9ncujoSbrrScPFsBn8bwLZ055SxGIMAujRHPWgRkEmD/x5SBOQGKQCEEACA3o0t7dFwy9cj4eYZzDidCI8B0PoCeBZbwYxr3cPWVDLzDgPz65rj77cISNbg/+GpZbgzOMvR4L9HfUkh7jvqMJS4zEN/2BZaNFZo/HnatMZCzYHFXqQAEELszYq2NT/bF2q+OBEfmwKmjwH0FwA5c/TvOL0Nom+Z4HmRcPPR0bbmX3V1tQ72bVoRJVf+GckuAspmBq9J1uD/o/pZMDW84TDfOwn3Nx6ehCIAi4fco3+VIiC5pAAQQhzQwNa1PZG2pvsj4aYPGXEKgOhLAJ4DMJLm1JLBAvAmiL5lsFEfCTfXRUJNt/SEW9bs/cG+TSuiDDoTwArNOUxmg5/11TR8wUrwLzXH1jr47yFFQPaSAkAIMS69W5u2REJNd0bCzaflx6icmD7M4F+C+Z1056ZgOwO/J+Yr4m7XlEi4+ZhIqOmW3rbVrYdqGG1r7iMz79QkPAmoAvGdINJ6fU7G4L+HFAHZSc4CEELY1tHRtBPAn3f/g0kz66vcFk4AaBEBxzOwAEB+WpPcVwLAOgJeZaZXmK1Xo+0tG1UC9m1aES2d1XgGx0f+AaJjNeWpXTIH/z32FAFXrliv+QChd4sAOUBIMykAhBDKdm5u6QDwh93/AFjsKvd3HxZnBEFoIFAdgFoAAQDJXuE9AiBMzJuZqBWEZrbQXGwVvb1ly2vDujvL9CLg3Cll+GHdzKQO/nvM907CQ0fPkQOEssRBCwBic4wVtg+nBEuBIcSEtDzeE8YaAGsALHvvnxRPa6wgMzbTMKiaiSYbTBUMLgdxOdgoArgEABiYREAeAIBggRHd/d+HmDFIRN2wuIcIPSDqgUVbDAube7as3ob97OIfTeLfNpOLAK/bhKmw2t+uPW8H6H8SMPGOEt41hjr/2RGbB93b46ADdCIRjxiG82koglniuLEQIicNbFvRDaAbwBvpzkWnTC0CHmrvAgG4da4/Zccoy3SAJobpheX8RCqyrJ6Dhj/YH7qJlTa8IOYKlfZCCJFNkvh2gJIH27vwP2vCSTjc8MBkYaAGCbUx1DIOPoYftACw2NWh1Dlhpkp7IYTINkl8O0CJFAFZyKBZKs1d5Nl+0PAH+0M2+7eodA6GUvJCCJGNdG0WpHuwliIgu5DFajfRAwMH3db7oAVAJBSKgMn5BA5hKrBU+09dCCEynY4iIBlz9lIEZIvFLgamKgSId3evGzjYB8axwo8jCgm4SmvWL1RoL4QQWSuJ2wYrebC9C197OwSLU1cG7HlFUP8BQu++IphTBwj5AtETQHBcMTHQd6jPHLoAIGp3msCuHvhzSu2FECKLZerCwIe3dOPra8IpLQLkFEEbOK40dhJwyLF7PO/4KX1pmflDMg0ghJjIMnVhoBQBGcsAcJZKAOZDv2Z7yALABXpIJQkAhaWBty9WjCGEEFktU6cDpAjIPKX+4EcBTFKJQabr94f6zCELgO5w6ctQPAaULeP7SM56FiGEyBr6igC9o7UUARmFGLhdKQJTPLK59tVDfWwcUwDL4wCUDswAobpkVvAypRhCCJEDVIsAIiyzLONyAFo325ciIDP4AsGPAahWiUHE7wCPHfLGfXz7/LL1iEoyAGAk8MvSWY1e1ThCCJHtnBYBRFjWFyq/vL+96WFmliLgoLKvCCirrS0B+KeqcRh4eDyfG1cBEM/L+znU96Qo5vjo/YoxhBAiJ7zn7YAXx/N5Au7pCx1x2e6nsoi2tSyTIuBQsqsIsMY894GpWDEMJ+JjvxjPB8e1On+0d8dQQenkCwGqUkqLMCe/bMrWkUjHW0pxhBAiB4xEO2Ox2hkPFQzHhwE6EkDBfj62mYg+2xdu/i7wNu/VvjXfO3kdEV2A8T7RHYeW/iF0jY5hSYUXRKlZvjU5341F5SV4qqMPMcv5KbT7ohrLjZOK8yofGxrqGtUYWCvvzOA1xHSjeiRa2d/eeue4PjnekKX+eZczzAedJ7UbU4KBD0bbmp5TjiWEEDmiunphwU5z4BQQGgDyMqOTLHqjr73pVeDg57J7a+ovJqKHcIgTXu36aHUF/neuH0aKigBgV/FxxYr1iIxpfbABgF9xD/FZXV2tg5oDK/PWBE8j0NMgVn5lnsi6rC/UOq4pABs/1aWmz7+2E0CZw7zexcCICSzpDTe/phpLCCGEFAHjk3lFQJm//vgE6DkCPBrC9UbC5VV7pokOxUa18TZ7fFVxAB90mNi7CHBZhCsKvVVvxaKd76jGE0KIiU6mA8Yjs6YDSmvqz7UM+hsB+VoCMt8Ui77+r/F+3NbjhlhlyVsey/0FaEiWABPgyzy+qkQs2vkK9B98JYQQE4oUAeOREUWA4aup/x8Q7iaQric20UgxX4qurnHv22NvvqG3N1HonTzERGfaTm2/iACc4imtOiWvaNorI/07evXEFUKIiUmKgPFIXxFQPLNhTmFJ1ZMgXLl7DNSCiG+IvdP6b1ttHPRj+PzBdQBqHbQ9mDFmusNKjP5wYOvaHs2xhRBiQpE1AeORujUBxdMaK1x5ozeyhRtAen8mDKyLhpvn4RCLRffmZMUh53ur/kmET0Hv9r4mEU40DNf1Ht/kskLv1K3D0Y4ujfGFEGLCkCcB45H8JwGlMxrqPb7JNxum9RCAxSB9P4tdmIn49Fika7vdlo5/et6a4N1EuMZp+3FqYvBfwMbzbCVW9m9plSkCIYSwQZ4EjIe+JwEl1XVlZBhHATiVQOeAOKghwQNiol9GQ03XOWnr/CdXW5vvixc0gXG44xi2cR9AIQC9YAySgbSv4hRCiExnMWYQ+Didc85AzhUB3QC9TGRvZ0UG8sEoAlAKcACgUs2JHRAR1vZNsuajtdXRWKj0U/POqJ9tGGhhkI73F4UQQmSZ3CoCsgcBMQs0Lxpu2uw0htKuQyP9nX0e3+Q1AF0MOe5XCCEmnNxaE5AtmGEZH4m2Ndla9b835W0HY9HONfmlUzoJOEc1lhBCiOwjRUCKsfGlSHuT8uF6ygUAAIxEOt4s8E1xAzhJRzwhhBDZRYqAVLFui7S13K4jkpYCAABi0Y7nC8omF4HpeF0xhRBCZA8pApKLLb4j2tb6VV3xtBUAABCLdD7j8U7uw66dAmVNgBBCTDBSBCQHM26KtrfcojOm1gIAAGLRzn8X+Ko2gOnD+jc8EEIIkemkCNBj1wE5NGYQXREJN9+tO772AgAAYtHO5nxf1V8N4CwA3mT0IYQQInNJEaDOAIVBiVMjoZZnkxE/KQUAAIxEO7YXVpb8hqy8OQzMTVY/QgghMpMUAc4R4zGzYPTM3o1r2pLVR9IKAAAY7u0dGY52LCvwTnkLRCcDKE5mf0IIITKLFAG2dYLpukhb89eHenqSutttUguAPWLRjvXFeRW/YreRB8ZxsjZACCEmDikCxiXOjO97Ruiinm1Nb6aiw5QUAAAwNNQ1Got2PFNQXnkfYJgAjkxl/2JiYMjrJ0JkIikCDoTiRLjXcPFFkVDLH3bu7BhLVc8pH4BjfV3RWKTj6SJf+a+ZjDgTDidgUqrzELlJBn8hMpcUAf/B4E4w/SzPsC7pCbU8MtzX2Z/qHDLgernULAusOz3BfAUB50GKASGEyGn/NaMSt871p3QAWh3diStXrEd/PJHCXvexE8CTFhkP9IcOfxZ4LK3JZEAB8F6LXWX+nmMYdAqDTwH4yFQerSiEECI1JsYpgtwHGG8R8DwRnu8Nlb0JLM+YIwwzrADYV/H0I8rdLtcci4zDwFwORhERF4FI9heY8MgL5g8zUKAtomFgxvFnwpWXpyukyABjw0No/9czALO+oERdAP+VgKSu1M4EzHwYgMWA3tE6x54ELAfwZxD1GGy9MxaPrxvYurZHdyc6ZXwBIMT+lM2un2HF6SUAAW1BiXDUVV/BrNMu1BZSZI53nn4Uqx/4ke6w/8yP0RkdHU07dQfONN6a+ouJ6CEALp1xc+hJgMWg06Phpud1Bk0mWYUvss6kmfVVZoKeB1CrM279pZ/FYWddqjOkyCDltfVIxOPoWbdKZ9gZlomjY9WVy9DVldb53GQbiXa2FngnbwbReYC+V7lb+ofQOxbHkkpfyu5IJ+e7sbCsGH/r6MOIpe2pEBHjlOK8ynuGhrqy4qmQFAAiqxRPa6xwGdYL0Ly75LyLPoW551+tM6TIQFX1x2BsaBC9G1r0BSXM9oxiXix68hPA2xrnGDJPLNrZVOCdvEl3EdDUP4Se0bGUFgFTPHk4vqxEbxFA8CbcwEi0MyueAkgBILJG6axGL9HoPwAs0Bm39sxLELz0szpDigw2peEDGOrpQCS8XmNUmpfv7Zk8Eu34q8agGUmKgIMj0LGesvIHYpHuqJaASSQFgMgK06Y1Fo4Zo38DsFBn3MDJH8JRV39F99omkcmIMPXIRejfsgkD20I6wx6d752SPxLteE5b0AwVi3Y25XsnryWiC6C5COgcGU3pPgFTPHk4sdyrc58AF0AUi3Q+rSNYMkkBIDJfXV2ekbD+SMCpOsNWH3cKjvn0LSBDdqaeaIgI0446ET3rmzDUvV1jXJyY762KjUQ7X9UWNEPJmoCDofp8b9VdI9HOmIZgSSMFgMhsjY1uXzTxBIHO0Rl2WuNJOO7678Aw5VdgojJMF6qPXYyOltcR6+vWFpcIp+aXVu0YiXSu0BY0Q8mTgAPKg4HNmf4dkKufyGBLTW/ejgcIdJHOqFX1x2Lhl26H6XLrDCuykOHKw/RjlmD7ylcxOtCnKywRcHZB6ZT1sUiHxtWGmWkk2tma7528TncRkO3bBhNQFIt2/k5TakkhBYDIVFTqN+8C6GM6g5Yf3oBFN/4IZp5HZ1iRxVz5HlQfvRhb31iOsaEBXWEJwHkFvslvxaKd7+gKmqlybTrguNIi/GlHL+JqG0fN8JRO+2kssiNjpwGkABAZyedvuAPA5/TGPBwn3fwzuArkuAnxfq6CQkw9chG2/Pt5xGNDusKaAF3gKa16JRbpDOsKmqly6e2AqZ48VHnceKYzohLGILZejUU7db5uopUUACLjeGsavkPEX9EbczZO/uovkFdUojOsyCF5RSWY0rAQ7f96BonREV1h3QAuzPdWPTMS7dS32jBD5VIRUFdciNd6B7A15nxPHwa1jUQ7M/atECkAREYp9Td8DcTf1BmzaMoMnPzV/0O+t0xnWJGD8r2lqJx3NNpfexZWXNux7PlEfGGht/Kvw9GuLl1BM1UuFQGT8914cnuv4/ZE6I5FOx/VmJJW8v6TyBil/uDnGPy/OmMWlFXhxP/3M3h8FTrDihxWNnsejr/h+zDc+RqjUoVFxj98gQUBjUEzVl9by4PEfBUArdsjP9jehf9ZE0aqtltcVO5FWZ7S0QdatyvXTZ4AiIzgCzR8DMBd0HhAlcdbhpO//gsUVVXrCikmiEmTp8E7oxZbX38OrO8EwRKAzy3ylT8+FO0e1BU0U+XCkwCDgDcjg9i00/E6PjMW7fy+zpx0kgJApJ3X33ARge+Hxu9jfrEXJ3/tLpRMD+gKKSaY4ml+TKqchm1vvaTzGOEyi4wz8ooqHx3p7xrWFTRT5UIR0Bzdibeijg97NGPRTq1PNXWSKQCRVr4ZDR8m8MPQeMSou3ASFn3lJyipnqkrpJigahadhQVXfllvUEbQNI2/VVbWFekNnJmyfTqgwKV0X5KPDB5n5QmASBtvTcOpMPiPtOuXRAsz34NFN96J8sOCukKKCa5s9jwQEbrWvKUzbLXlpuNilSWPorc3p48RBrL7ScDzXRGVJwAjsWjnbTrz0UkKAJEWZf7gQhD+SkChrpiGy40TbvgBJtcdrSukEACAyrlHIT4SQ887TTrDzvJY7vpYdN4TQEjLKTSZLFuLgPvbO7F5yPFroVFZAyDEe/hm1s1npn8A8OqKaZguLPzi9zBlwfG6QgrxPlX1x2K4rxOR0DqdYY/w+GIzY9GOPwEpW9yeNtlWBMQtxq3r2xFLOK7PNsWinb/UmJJWUgCIlCqe2TDHsOg5ANreyyPDwLHXfQvTj12iK6QQ+yLC1AWLMLg9jP4tm3RGnu/xVZXHop1P6QyaqbKpCHi5px+PbFE6KOqfmbwPgBQAImVKqutqTaLlAKZqC0qEoz5+MwInna0tpBAHQkSY1ngS+javwWDHFp2hj/V4qzgW7XxRZ9BMlS1FwFdaQ9imshMg40nZCVBMeGXTG6rhohcAzNAZt+Hyz6P2jKU6QwpxUGSYmH70YnSvW4Wh7h0aA2OJxzd5MBbtfE1f0MyV6UXAY9u68bu2TqVcDOLbM/kwKCkARNIVzW6YDPDzpHlXrOAln8Gcc6/UGVKIcTFcLkw/5hR0Nv8LsUiPxsh0er5v8paRaOdKjUEzVjKLgG6FImBlZBCfa9qkehpgAuS6Xk4DFBOWL7DAZ1jWMwRofS/viPOvxrwLP6kzpBC2mO48TD92Cba/9QpGB5ROjXsvItA5+d6qNSPRzrd1Bc1kySoCmvuHsHHnMJZU+OA2xl8GPNMVwbWrNmLY+cK/3ejFSHj13YpBkkoKAJE0ZbW1JWyZzwBo1Bl39hlLMf+yz+sMKYQjrnwPpjeejK1vLMfYkLbdfQ0inFdYOuXN4UjHBl1BM1myioD1gzH8paMXFXlu1E7ygOjAhUB4aATfWtuOO97ZilENOz8y4/aRaOcK5UBJlKpDlcQEM21aY+GQe/RvAE7WGdd/4jk4+pqvg4yM3VxLTEADO9rx4q3XIBZ1fnLcfgwRGx/sa1v9is6gmay0pv6/mOg+JOHmdGp+Hk6b7MMC7yRM8eQh3yD0jcaxfmcMr/T04/W+fiT0vYg5yIyaaFtzn7aISSAFgNCvri7PO2g8ScBZOsNWH7sEx37u2zBMeXAlMk+0fQNevO3TGN05oDUsYCyJhFdPiDUBAOCtqb+YiB6Cxu3B0+DHkXDzDelO4lDkNkpottQs3Wk8qHvwn9JwHI797G0y+IuM5Z1Ri0U3/hhmfoHWsID1dPHMhjk6g2ayaFvLMmK+GprPDkgVBmJkWnemO4/xkKup0Mnw+s0HAFyqM+jkumNw/H/fAdOdpzOsENoVlFehbNZcbP3Xc2BL2/g1ybBwXkF55ROxvq6orqCZLFlrAlKDvxcJtf4x3VmMhxQAQhcqrQn+EoSrdQYtOyyIRTf+CC69d1VCJE1RVTVKqmdi6+vP6ztGmOAF0zlm2eTHxiKdjk+mySZZWQQw2j0jxqU7d3aMpTuV8ZACQGhR6q//PhNpXZrvrTkMJ938M7gLJ8SpqSKHlEyfiUmVU7FtxUs6w5abTKd7Sqc9ksnvlusUi3Y25XsnryWiC5D5RYDFRBf1bG1an+5ExksKAKHM5w/eBtDNOmMWT/XjpK/9H/KLfTrDCpEyPv/hcBcWo6NJ68Z+UwA+yeuZ8mi23GWqGol2thZ4J2/O+CcBRLdGw02/TXcadkgBIJT4Ag1fBPAdnTGLqqqx+Ot3weMr1xlWiJQrr61HIh5Hz7pVOsPOsEwcHauuXIaurqxcKGdXpj8JIKZHI+GmzyPLTnSUAkA4VupvuA7gn+qMWVA+GSd/7RcoLK/SGVaItKmqPwZjQ4Po3dCiLyhhtmcU82LRk58A3s6qQcepkWhna4GvahOATHsS8Fyk2PoIurri6U7ELikAhCO+mvorQPgVNO4lke8tx8lfvwtFVdW6QgqREaqCx2GwYwv62zdqjErz8n1dlSPRzr9qDJrRYtHO5gLvlJUgnAfAne58ADxZlCj6SP/Gt0bSnYgTUgAI23z+uiUg41Fo/AV0FxbhpJt/Dm/1LF0hhcgYRITpR5+Mga2b0L81pC8u6BiPd3JvLNr5uragGS4W7Vhf6Ju8nEFnAyhOWyLEP4mE536yv//vzs8LTjMpAIQtpdXBIAx6GoC2pfmugiKcdPPPUDrrCF0hhcg4RISpR52InvVNGOrerjPwaZ6yqhdjkc6wvqCZbTja2e6qnH6/YVnzABye4u6jTHxVNNTyw2yffpECQIxbWW1tCbP7JQBTdMU08z048cYfo/xwrYcFCpGRDNOF6mNORkfLG4j1desKa4Jxpqty+v2jvTuGdAXNdKO9O4Zi0c6HPaVVYQaOI403JQfAIH7AhcQFfeG3/5XkvlJCCgAxbvlF0+8GYbGueIbLjeO/9H1Mrj9GV0ghMp7hzsP0Y5Zg+8pXMTqg7ayYYjPBNbFox+O6AmaLWKRz1aTKknvYcscB1AMo1NwFM/AUE10ZDTX/fCjare3Yx3STw4DEuPgCwfPB0La9pWGa+MAXbse0xpN0hRQiqwz3dmH5rddgZ9c2jVH5wki4JSu2oU2GqqqGSaMefIzBlwNYCLUxrgPAY2TR3X3tTRpf4cgcUgCIQ6utzfeNFawFENARjgwDx37mFsw4/oM6wgmRtQZ3tGP5bZ9GLKJtOmBb4VjeYdu2rZgwUwEH4gssCDASHyTGIuwqBvw46AmD3A0YzSC8BE68GAnPewl4LKf3WZACQBySz1//ZYDu0BKMCEd9/CbMOuUCLeGEyHb97Zuw/H+vxehgv5Z4BPp6X7jp21qC5ZLGRndJRyIAGvMRGV4AMGDE2IwPgN3hSGhVJN0pppoUAOKgSmc1ejkxuglAmY5486/4Eg47U+thgUJkvd4NLXjpu9cjHtNy496fGMubPbBthbbHCiI3ZdJuSiIDsTV2NTQN/nVLr5XBX4j9KKutx/E3/ACGO19HuBIzb/R6HYFEbpO3AMTBUIF38n0AKlQDzfnQFaj7yLXqGQmRoyZNngbvjFnY+vrzYPVjhI+IVZYO6o8uAAAHnUlEQVT8DL29OT2HLdRIASAOyFvTcCoIN6jGmXXqhVhwhXIYIXJe8bQA3AVF2KF+gmCRJ+FaH4t2NunIS+QmmQIQB2QQX6IaY+qRi3DkVTfqSEeICaH2zEswY+Hp6oEMukI9iMhlUgCIAzEY+LBKAI+3DEdf+w2QIV8zIew48qqvwONTnHljLC6prtOyfkfkJrkyi/0qralbCEDpTN76Sz6D/GKfpoyEmDjyikow//LPq4ZxGy7zQzryEblJCgCxf2SerNK8uGoG/CeeqysbISac6g+cDl9A7ZwbZj5DUzoiB0kBIPaLyfqASvtZZyyVR/9CKCDDwOFnX64WY9cOeELsl1yhxX4xk+MTesgwUHOCbPMrhKrq405FfrFXJcTMykCdttM7RW6RAkDso6j2yEpSOPK3/PAGmfsXQgPD5cbUo5Rm45CAuUBTOiLHSAEg9mGMjAZU2lcecZSmTIQQVQ3HKrVnxixNqYgcIwWA2AeREVBpXzprnqZMhBDlhwVVQ8zUkYfIPVIAiH2QQdNV2hdPqdaVihATXmH5FLg8hY7bW7DkF1LslxQAYl/MRSrNCyum6spECAGgsML5lhwEQ+n3WeQuKQDEPpgxyWlbwzRh5nt0piPEhOcuLFZp7vj3WeQ2KQDEPghwPIKTK09nKkIIAK4850U1gws0piJyiBQAYh8MGnba1hob0ZmKEAJAfDTmuC0p/D6L3CYFgNiHQRh02pYtC/HYkM50hJjwxoYGnDcmVmgscpkUAGIfzJbjAgAAdnZu1ZWKEBMeWxZ2dm5TCAApAMR+SQEg9sGg7Srto+0bdaUixIS3s3MrEqMqU2u0Q1syIqdIASD2QYb1jkr77rWrdKUixITXtWalUntmXqcpFZFjpAAQ+ygc9awHwE7b71j9GtiyNGYkxMS1Y/U/ldqTgfWaUhE5RgoAsY9t21YMAdjstP1Qzw50r5enAEKoGhsaxPZVSgUAx12ut3XlI3KLFABi/xgvqzTf+PdlujIRYsLa9NwflV6tZWDt4IaVXRpTEjlECgCxfwa9oNJ865svor99k65shJhw4rEhrH/qYcUorPR7LHKbFABiv8hIKF042LKw8nd3AOx4KYEQE9qaP/4aI9EetSBsSAEgDkgKALFffZta2wj4t0qMrjUrsPHZJ3SlJMSE0bO+Ce889YhqmEHPCJ7SkY/ITVIAiIN5UDXA6od+it6NsgZJiPEaifbg3z//BqxEXDES/bGjo2mnlqRETpICQBzQmNv1KIAxlRjW2Ahe/cGXMLAtpCcpIXLY2NBOvPL9L2GoR33vHovoIQ0piRxmpjsBkblGe3cMeUon1wI0XyVOYjSGrf9+DpXzGlFQWqkrPSFySizSjZe/ez0iYS2v7b8dDTf9NxT28xC5TwoAcVCTfFVrGbgOAKnEiY/EEH7lKbg8hSivrdeUnRC5oXvtSrz8vS9gcEe7noDMX45FO1frCSZylRQA4qCGI53dHt+U+QDmqsZiK4GOptfQu3kNymbXIa+oREOGQmSv0Z0DaHr4Z1j1uzswNqRtun5zpK3iWiAk23GKg1K6qxMTQ/Gs+YebCasJQL6umIbLjZoTzsRhZ34U3prZusIKkRWGe7uw6bk/YMM/lmFsSOnwzX0w8yXRthbZiUsckhQAYly8/vpvE+irSYldcximHXUiKo5YAK//cHhKSpPRjRBpMza0EwPbNqNrzUp0NP8LXWveStZ5Gc9Gws2nJyOwyD1SAIhxmTatsXDIPdoKIJDsvlyeQuQX++AqKIBhupPdnRBJwZaFseGdGBsawOhgf/L7A2IuwpE9oea1Se9M5AQpAMS4lcycf6xhWS8DyEt3LkKI9yOi6/pCTb9Mdx4ie8giQDFuI5GOrfneqlEiyCNGITLL45Fw81fSnYTILlIACFtGop3/9Piq6gDMS3cuQggAQAuZeefH+rY7PzZQTEiyE6CwiyNF1uUgPJPuRIQQ2EKmdU7fphXRdCciso8UAMK+1tZRMvKWAliZ7lSEmMC6TPAZfZta29KdiMhOUgAIR/o2rYiCzFPAeCnduQgx8VDYJJzUE25Zk+5MRPaStwCEmkDA4+Pi3wO4IN2pCDFBNLks11nd7Su3pTsRkd1kEaBQE4nEY9HOZR7vlD4QToV8p4RIIn6CzPwLesNvdac7E5H95AmA0MYXCJ4MxkMApqc7FyFyzBCDPx8Nt/w63YmI3CF3a0KbWKQz7PVMudtywwTwAcgaEyE0oL8w6EPRcPPz6c5E5BZ5AiCSwjezbj4s4w4Ap6U7FyGyVCuBb+oLt/w13YmI3CQFgEgqX6BuAdi8AeDLIE+chBgHWgXGjyNtcx4CHkukOxuRu6QAECnhnVE/mwj/BeByEB2W7nyEyDCdIHrESiQe7G9vfSPdyYiJQQoAkXJef8NRgHUKQEsIOBFAcbpzEiLFRgF+HUTPg63lkXDly8DyeLqTEhOLFAAi3Qyvv8HPRIcbVmIOGTQNFnxMmESE/HQnJ4QKizlhEPWDOWoxdZOB9Sbzup4i3ojW1tF05yeEEEIIIYQQQgghhBBCCCGEEEIIIYQQQgghhBBCCCGEEEIIIYQQQgghhBBCCCHS5P8HBUbTlCLIfckAAAAASUVORK5CYII=;fixedWidth=0;" vertex="1" parent="1">
          <mxGeometry x="360" y="40" width="120" height="120" as="geometry" />
        </mxCell>
        <mxCell id="-tSm10FkZ4Ool6qzO1sV-3" value="" style="shape=image;verticalLabelPosition=bottom;labelBackgroundColor=default;verticalAlign=top;aspect=fixed;imageAspect=0;image=data:image/png,iVBORw0KGgoAAAANSUhEUgAAAgAAAAIACAYAAAD0eNT6AAAABHNCSVQICAgIfAhkiAAAAAlwSFlzAAAOxAAADsQBlSsOGwAAABl0RVh0U29mdHdhcmUAd3d3Lmlua3NjYXBlLm9yZ5vuPBoAACAASURBVHic7d15lKV1fefxz/e5S21dVb1WN8jSYDdg2jEsKipmIi6ARJOZZOx4FGggGUlcikVplow5lcUFMM2inozJJNCgZiQxmSQSwAxiNIIYkIYBpRfEZuu9u7r2usvznT8aZpBgd1Xd57m/+9zn/TrH4x9Wf+/nWPfW73N/z2YCgJz69E1/uaQg+6BiO8NNR5upLNd2uX8vjqKvXTW45uHQGYG0WOgAANBsQ0NDUdeC5VdJulLSvJ/zY+7S3xbK0Ycv/93zdjYxHtAUFAAAubJu3e1dtcLE11x678z+hW2tR/FZV3/sgifSTQY0FwUAQG6sW3d7V7Uw8feS3jWrf2jaEhdLb7zqwx/cl04yoPmi0AEAoBnWrbu9q1KY+AfNdvGXJNeKQrX6R8mnAsJhBwBA25vzN/+fVal59ajfu+S/7kgqFxASOwAA2lpCi78klUtR8VeSyAS0AgoAgLbV0Lb/K3DZSUnMAVoBBQBAW3rxm79J70xsqGtZYrOAwCgAANpO0t/8X2I44XlAMBQAAG0llW/+LzLflPhMIBAKAIC2keAJf68o8sKdacwFQiiGDgAASXhx2z+Vb/6SZH735YPnPZbKbCAAdgAAZF6q2/4HTERe+ERKs4EgKAAAMi3tbX9JsbldePnFfPtHe6EAAMisFM/2f1Es2YVrL1nztZTmA8FwK2AAmZT6Mf8XFv8rLl6zPqX5QFAUAACZw+IPNI4CACBTWPyBZFAAAGQGiz+QHAoAgExg8QeSRQEA0PJY/IHkUQAAtDQWfyAdFAAALYvFH0gPBQBAS2LxB9JFAQDQcppwe1+Z27dkzh3+2oS76iYfiVUYiQrxWCwfmSpXnhy66KKJ0NlaFQUAQEtpxuKP3HDJnpZ8k8ueiMzvV8HvXfuRC7aHDtYKKAAAWgaLP5rBpR+Z6Vtx3b8+vX/rd4aGhuLQmUKgAABoCUNDQ1HXwuVfl+s/hc6CPLGt7n5bXLTbrv7omk2h0zQTBQBAS/jsjTdfabLPhM6B3HKTvmEeferyS857IHSYZqAAAAjuc5/76uJaqfKkSX2hswAu/e/I/A/XDl7w3dBZ0hSFDgAA9WL1/Sz+aBUmvdPdvnPNjbf84zU3ffmI0HnSQgEAEJxZnNa1/kAj3iOvPXbtjTd/7Pbbby+EDpM0CgCA4Fx2dOgMwM/R77Kbnto2fs81n/+Lw0OHSRIFAEB4plLoCMDB2S+rXnj4mhtubptLVCkAAIJz17bQGYBDMg3I7K5rb1h/degoSaAAAAguMrX12dZoK5Gbf+raG2/5wtDQUKbX0EyHB9Aeaua3S6qHzgHMlEsf6Vp49FeHhm4vh84yVxQAAMFd/bELnpD8y6FzALPi9ptdCyf+emjo3mLoKHNBAQDQErqsNOjSj0LnAGbF9avdC7be7O6Zu7EeBQBASxgcPGfE64Vfc+m50FmA2XDpnOtuuvXToXPMVuYaC4D29pl1t62wQv3bJr0qdBZgNsz8grWDF9wSOsdMUQAAtJzPrLttRVSo3yspzduwbpDZ5hTno5liFdy874VbSh8p6bAAKSa8rjdeedn5jwd47VmjAABoSU0oAbsit3defsmaR1Oaj4BuuunLfRNeeW3khbfF5qeb9MtSE244ZXp8smP6jUMXXTSR+ms1iAIAoGVRApCU6/701oG4Gr9f0ofkWpXma5n7l9ZecsHvpPkaSaAAAGhplAAkaWhoKOpZcMyvxfLfl3RiSi8TR7G99fJL19yf0vxEUAAAtLzPXH/z8iiyeyUtT+kl9sXSu666+PyHUpqPFjM0NBR1zl9+jpnWSVqUwkv8n8l9R588NHR6LYXZiaAAAMgEdgKQhmtu+vIR8tpXJf1S0rNNdsnai9fcmPTcpFAAAGQGJQBpGBq6t9i1cOtn5fp4wqP3TBa7lw99ZPVYwnMTwY2AAGTGVZeduyWO/Zck/TSll1gSm3/7MzfeckpK89GChoZOr10xeP4nTD4oKU5w9KKu6sRFCc5LFDsAADKnCTsBuyO3d7ATkD/X3njLh1z670pufdw22efHDl1wwVRC8xLDDgCAzLnqsnO3xPXC6ZKeTeklFsfm91x3w/rXpTQfLWrtxef/maRPJjjysM5RuyDBeYmhAADIpCYcDljM4YB8uuLi8z8l6StJzYtcv5XUrCRRAABk1lWXXvDTuF54l9LbCVgQSXddd+Otr01pPlpUlxU/LNOWJGa5dMpn192S6s2H5oICACDTmrITIP/G5z731cUpzUcLGhw8Z8TkF0ryJOZZ5OcmMSdJFAAAmZf+ToAfXS9V/iid2WhVawcv+K5kX05kmNkH3b2lTrynAABoC004MfDCT11/W4gnzCEkK1wtaTqBSUdcc/36X0hgTmIoAADaRsqHA8pFq5+dwly0sCsGz3lWZrcmMSsq+NuTmJMUCgCAtpLq4QDT6xOfiZZXj/Q5JXAugJtRAAAgTSkeDuBEwBy6+qNrNsn0/YYHuX65lc4DoAAAaEsplYDhBGchS+JETgZcsG7dzWndvXLWKAAA2lbSJcCljUnMQfZY5HcnMadWsBOSmJMECgCAtpZkCbA4uiOBSMigtYPnPynZ1sYnRcc3PiMZFAAAbS+hEnDXFZee9+OkMiGL/IGGR0ROAQCAZmqwBIx7XZ9IOhOyxhI4BGRLG5+RDAoAgNx4SQl4ehb/rGquNVdedv7jaeVCVsSbE5jR1/iMZFAAAOTKVZeduyUqR28wt2/N4MefN4vetfaS87+eejC0PJP2NDzEo94EoiSCAgAgdy7/3fN2rr1kzTvc9B5J35A08ZL/OZb0A3NdNtk5vXLt4Hn/EiYlWo5ptPEh3jI7AMXQAQAglCsHz79D0h1DQ/cWS/3PLilEXuq24R2Dg4NJ3PsdbabuNpHAt+buxkckgwIAIPeGhk6vSdoWOgfQTBwCAAAghygAAADkEAUAAIAcogAAAJBDFAAAAHKIAgAAQA7l4jLAnW972zyv9QxEtdp8Fd1C5wFyx6OxuFYdXvrAPTtCRwFwQFsWgL2nvLPfy6XfiC0+w2RvUUVHSnUpMilm/QdCKBRK2v2Ws/ZL+qFk98T12u0DD/xzAvdWBzAXbVUA9r3prOV1syti8zWSd5lY7IEW0y/pdMlPjwqFP979lrPuletTi++/657QwYC8aYsC4KecUtrbseTqunSl5J2h8wCYsdNlOn33W876ByvGH130nW8+EzoQkBeZPwlwz6nvPmJPx5LvuDQkicUfyKZf9Vr08J43n3lW6CBAXmS6AOw67azjvaDvSXpT6CwAGrbIzf5x92lnrQkdBMiDzBaAPae++whz3S35UaGzAEhMUa6/3HPamatDBwHaXSYLwOZ3v7vDC/73ko4OnQVA4iJ3W7/zze8+KXQQoJ1lsgAsHPE/lnRy6BwAUtMZWfwVX/W+cuggQLvKXAHYc9qZq9x1SegcANJmr9kzf/TjoVMA7SpzBSCO7ffVJpcvAjgE1xV7T3lnf+gYQDvKVAHY8x/PONJMvxE6B4Cm6Y87ilwVAKQgUwXAq9EHJRVC5wDQVOeGDgC0o0wVADOdHToDgKY7Zcep71gaOgTQbjJTAHzV+8ounRo6B4Cms2Kh+NbQIYB2k5kCsKdv/7GSuCQIyCFXdELoDEC7yUwBkNsRoSMACMPMjwydAWg32SkAFs0LHQFAGC7rDZ0BaDeZKQAmL4XOACAUPv9A0jJTAAAAQHIoAAAA5BAFAACAHKIAAACQQxQAAAByiAIAAEAOUQAAAMghCgAAADlEAQAAIIcoAAAA5BAFAACAHKIAAACQQxQAAAByiAIAAEAOUQAAAMihYugA7ajmfsifKchk1oQwBxHLFR86KtpYZFKkwG9EAEFQABIwFcfaMTml4UpNlXqsWIdeVU2mUsE0v1TU4o4O9Zaa86sYrlS1e7qikUpNVY+b8ppobSWL1FcuanFHWfPLpdBxADQJBaABLumZiUltn5iawZL/8n/rqtRdO+sV7ZyqaGG5rGN7u1VIaVugUo+1ZWxco9VaKvORXVWPtWe6oj3TFfWWilrR26NyxNFBoN3xKZ8jl7RxZEzb5rD4v5K9lYoeHx5VLYU9+cl6rMeGR1n8cUij1ZoeGx7VVL0eOgqAlFEA5mjr+IT2V6qJzpys17VpdEyeSKU4oO6uTftH2e7HjFXjWBtHxlWfwbksALKLAjAH47W6dk5WUpk9Wq1p91Rys5+fnNJUzOKP2Zmq17VtYip0DAApogDMwfbJqUS/pb/ctqnpROa4Szsmk5mF/Nk+NS02AYD2RQGYJfcDZ9KnabJW13S98W/t+2s1tnExZ3V3jVTTfa8DCIcCMEtVj2d0nX+jJhM4CWuyxkl/aMwkh4+AtkUBmKVmLP7SgROxGlXnLj9oUC2BnSgArYkCMEulqDl3TSslcB12kWu50aAk3ocAWhOf7lkqmqnYhBLQVSg0PKO7yK8XjekqNv4+BNCaWCFmyWRaWC6n+ho9xYI6Co3/anpLJRVDP3AAmVUya9otqgE0HwVgDg7r6kj18SmHd3cmMsckLetKZhbyZ1l3J48JAtoYBWAOOguFxBbpl5tfLiW6w3BYV4e62cbFLHUXC1rW2RE6BoAUUQDm6FXdnVrUkeyhgHnFglb09iQ6MzLTcX3z1JHAOQXIh45CpON65yni8BHQ1igAc2Qyrejt0VHdXWr0nEAzaaCzQ7/Q35fK0wA7okir5vdqYQePesXBLSyX9dr5fYmcgwKgtXGGT4MO6+7U4q6ydk1WNFypaCqOVZ3B9fdFM5ULBfWXilrSWU7krP+DKZlpZe88jXXWtHu6opFaTdP1urhVQL5FJnUUCuorFbW4XNY8TvoDcoNPewJKFunw7s7UzgtI0rxSkT/yAAAOAQAAkEcUAAAAcogCAABADlEAAADIIQoAAAA5RAEAACCHKAAAAOQQBQAAgByiAAAAkEMUAAAAcogCAABADlEAAADIIQoAAAA5RAEAACCHKAAAAOQQBQAAgBwqhg7QDmpxrD2VqoYrVU3X66rGHjpSWypFpo5CQfPLJS0ql1SM6K8AMFcUgAbtnJzWMxOTqjmLftpqdddkPdZwparnzHRET5cGOjtCxwKATKIANOCpsQntnJoOHSOXqu56amxCE7W6ls/rDh0HADKHPdQ5en5iisW/BeyYmta2yanQMQAgcygAczBVj/XcBItOq3h2fErT9Th0DADIFArAHGybnFIsjvm3iljOLgAAzBIFYA72TVdDR8DL7KtUQkcAgEyhAMxS1WNVne3mVlOJXTUuvwSAGaMAzBLX+LeuCsUMAGaMAjBLRbPQEfBzlPjdAMCMUQBmqRRFKrDQtJyCmYrG2xkAZoq/mLNkkuaXS6Fj4GXml0uilwHAzFEA5mBZV2foCHiZpdwSGABmhQIwB/OKBS3pLIeOgRcMdJbVW+Ku1gAwGxSAOTqmp0e9JQ4FhNZbKmp5T0/oGACQORSAOTKTXtM3TwOdHTJx8LnZTKaBzg69pq+XY/8AMAfsmzbATDpmXreWdpa1Y2pa+6Zr3CQoZSWLNL+jpKWdHeopFkLHAYDMogAkoLtY1DHzijpmnhS7qxpTAtJQiiJFfN0HgERQABIWmamjwDdTAEBr4xwAAAByiAIAAEAOUQAAAMghCgAAADlEAQAAIIcoAAAA5BAFAACAHKIAAACQQxQAAAByiAIAAEAOUQAAAMghCgAAADlEAQAAIIcoAAAA5BAFAACAHMpMAXCpFjoDgDDM+fwDSctMAbAoHgudAUAwo6EDAO0mMwVAUeG50BEABOL+bOgIQLvJTAHYO09PSqqGzgEgBHsidAKg3WSmAKy8885pSQ+GzgGg+VzF+0JnANpNZgqAJJn7naEzAGgulx5ZfP83OAQIJCxTBaBWKH5FkofOAaCJ3L4cOgLQjjJVAJb+6x0/kfQPoXMAaJqRUiH6i9AhgHaUqQIgSbHbH0iqh84BIH0uXT//X+/YFzoH0I4yVwAG7r/zYbn9aegcAFL35JT3XhM6BNCuMlcAJGm0Y/Jylx4JnQNAaqomnXvk/X89GToI0K4yWQCO+fa3p9z9v0jaGToLgMS5pA8tuu+u+0MHAdpZJguAJA3cf/eWeuRnSLYjdBYAiYklu3jxfXfdEjoI0O4yWwAkaem/3v1IXTqNwwFAWxgx+erF9935+dBBgDzIdAGQpKX33fnklPe+2aV14omBQFbdG9frr190391fDx0EyIvMFwBJOvL+v55cct9dH7eC/aJJfyWKAJAVP5Tr1xffd9fbBx74582hwwB5UgwdIEmLvnvnjyR9YOcbzr6sUPT3x5Gfaa63SOoLnQ2AJKkq2aOS7vGofvuSf/3mQ6EDAXnVVgXgRQP/9k/bJd3wwn+0+83veZUXKsssLvQrjtti1wPIlGJh1KV9iyd3PGUPPcRTPYEW0JYF4OVeeJAIDxMBAOAFfBsGACCHKAAAAOQQBQAAgByiAAAAkEMUAAAAcogCAABADlEAAADIIQoAAAA5RAEAACCHKAAAAOQQBQAAgByiAAAAkEMUAAAAcogCAABADlEAAADIIQoAAAA5RAEAACCHKAAAAOQQBQAAgByiAAAAkEMUAAAAcogCAABADlEAAADIIQoAAAA5RAEAACCHKAAAAOQQBQAAgByiAAAAkEMUAAAAcogCAABADlEAAADIIQoAAAA5VAwdAO3Hb1t8WEXRqVHsx8eyRWbqD50JyKVYoybfE8s21Yu1B7rP2fts6EhoHRQAJMK/OrC0VvEL3ewD1VivNUkuk0mSBw4H5JX9/89hsV5UZf3SJ8z8r6pR7S8pA+AQABriX+lfULl16Y3Vqp5ys09Lem3oTAB+Hj/BXX9QrBefrKwf+O/+l8uWhE6EcCgAmLOpW5b+arXW8YTcByV1hc4DYMbKki6qFuInpm9Zsjp0GIRBAcCcTK8f+MPI/H9JGgidBcCcLTSzr1XWD/yJD7Ee5A2/cMxaZf3Sm0z6pHTgED+AzLuseuzAze58pvOEAoBZqa4f+KTkHwudA0DCXOdVbh24JnQMNA8FADNWvWXgDJeGQucAkA6TPjF968Cvh86B5qAAYEb8S4d3u+lL4j0DtDMz15/5+lctCh0E6eOPOWak0llbK2l56BwAUreo6pX/FjoE0kcBwCH5XyzuNdlg6BwAmsTsQ37rUq7waXMUABxStVRYLfmC0DkANE13zf2c0CGQLgoADi323wwdAUBzufn7Q2dAuigAOCi/aUWHTG8NnQNAk7md7F/pZ+evjVEAcFDVvuHXitv8AnlUqNU7TwodAumhAOCgPCqsDJ0BQBguPy50BqSHAoCDMo8Xh84AIAyTcT+ANkYBwEGZjO1/IKdi17zQGZAeCgAOwXmPAPnFw4HaGH/cAQDIIQoAAAA5RAEAACCHKAAAAOQQBQAAgByiAAAAkEMUAAAAcqgYOgAAoDXtGvjgFQ9u+J0PSz4ut3GL9Gzs2mjyTVL0f7pKlftWrVo1Fjpns5jijgS+N08nkSUJFAAAwMH0StYrk9z1apN++cD9gVyT1VL1wQ2bfyDF98SKbn/jiSsfDx02VV7slcWNjZCPJJSmYRQAAMBclSQ/TbLTIvnvP7hh00My3VabtJvf9KaVLbPQJcbi/gSGjDY+IxmcAwAASMopct1Q7PRnH9yw6cYfPP7UstCBkmTSqxue4dYyxYgCAABIWq+kwaha3fzgI5s+8eCDD5ZCB0qCuxp/PLL53gSiJIICAABIyzy5rlOx7+GHHtn4S6HDNMpMJzY6w6XNSWRJAgUAAJC2Ve72Lw9u2HRjVncDPv2F9Yskva7ROeZ6IoE4iaAAAACawSQNqtj3zSyeGxDV/R1KZM2sb2x8RjK4CgCZFseukdGqKtN1VWt+yJ8vFSN1dETq6y3JouY+6rxSiTU2VtV0JVYcHzor2lexaCqXC+rrK6nQ5PdhC3hbVK3e/2+PPHHWG37xhJZZDGfg/QnMmJ7fVftJAnMSQQFAJlUqsZ59bly7d02pPofFtFAwLR3o0uGv6lapmO5G2MhoVc88M6aR0arEuo+XiCLTokUdOuqIHpU7CqHjNNNy8+i+H/5w83tOPnnl/aHDHMq6df9jYVX6lcYn+fcvuuiiauNzksEhAGTOyEhVjz66Vzt2TM5p8Zeket31/LYJPbJh74GFOQ0uPfvsuB7/0T6NjLD449+LY9euXVPa8Ohe7dvbMjeIa5aFceR3/duGzSeFDnIotaj0O5LKCYy6J4EZiaEAIFNGRqv60RPDqtYauxvXi6q1WD/+8bDGxmqJzHupnz49pmeeHWfhxyHV664nNu3Xvn25KwF9Jr/r4YefXBk6yM8z9KUvdbv84iRmWWTfSmJOUigAyIxa3bVp4355wsfP49i1afP+RI/L7907rW3bJhKbh3zYsmVElWoy5TZDBuoWf+Phh5+aHzrIK+ma6rhUpoEERo32l6d/kMCcxFAAkBnPPzee2Df/l5uermv79slEZrlLW5/OzfNRkKBa3fXcs+OhYwTgx9Wsequ7t9QZkZ+98dajJF2VxCx3fb2Vjv9LFABkhUu7dk+l+hK7diUzf3S0qqmpeiKzkD+7d08lvsuVBSa996FHNn80dI4XDQ0NRVL855J6kphnpi8nMSdJFABkwuRkTZVKulujEwm9xv6RSgJpkFe1umtsPPlzUjLi2oce2rIidAhJ6lqw/AqTzkhilkvPHXNY97eTmJUkCgAyYTrlxf9FlWrj39wrFb79ozE5fg91eiH+YugQn73h1jMl/WFiA83Xr169uuV+qRQAZEKzNkQ9gRdKYgbyLefvoTP+7ZFNvxHqxa/5/K2vN4v/RsndJ2eqXi9+IaFZiaIAIBM6Ss15q3aUG78ZSxIzkG85uynQv2OuP3b3pq9P19x085sUx3dJmpfUTJf9+e9deu62pOYliQKATOjqLqqUcgno7CyoXG78NXr7MvmsE7SIKDLN68n9TVpPeGjDlqbuAlx7w/r3yO0eSYsSHFsp1erXJTgvUbl/lyEbzKRFCzu0fUcyl+q9ksWLOxOZ099bUqkUqZq/67mRgIULOxTl7/kA/5751e7+N2aW6gGRoaF7i50Lf/oH7n6lkv5SbPqzj3/8wmcSnZkgdgCQGUcc0ZPag1NKxUiHHdadyCyLTEcdmciVQ8iZyExHHsF75wUn/vDRLaem+QLX3bD+dV0Lt37H3K5W0uuha2e57p9MdGbC2AFAZpRKkVas6NPGzfsTPSvQTHr1ij4VC8mVi4ElXdq/v6rde9K9dwHay/Jj5qmzM9/H/1/KFZ8r6ftJz732izcv86pdFZt/WJ7OOujS5ZdeesFwGrOTwg4AMmXhwg6tOLZPkSWzWBcKpuNW9mvB/CSe8/ESJr361b2JHVZAezOTjlneq6UDXaGjtBa392/evLkjqXHX3Xjra6+98ZYveM1+ItOg0vsS/J0rLl5zW0qzE8MOADJnyZJO9fQU9fTWMe3bP8eb7pi0cEGHjj4qvW9cUWRa+eo+LZhf1tPPjGt6uuUuA0YL6O8r66ijezSvh5NHX8HCkYn6aZLm9BCdoaF7i10Lf/p6uZ0u6X2x4mY8eXA4jn1N2ucuJIECgEzq7i7qhNfM1/R0XcPDFU1P11WrHfrzVipF6uiItGBBR+pXFUiS7MDJhYsXd2p0tKrR0aoqlTjRBw8he4oFU7mzoPn9Zbb8D2HPnv0fv/bGWw55d0CXR7KoX+79ko4y6TjX1hPk1tuEmP8vRiS78IpLz/9pE19zzigAyLSOjoKWLs3Gtmlvb0m9vXzLA2ajUCyc7dLZh/5J+5k7KAWp2K7PX37Jmr8L8dJzwTkAAICW1dfbm5XLIu+ZHO6+PHSI2aAAAABalpmpq7PFT6Y1/VBT9f88NLQ6U08CowAAAFpad1cLH+YzbYlK0buvuOK3RkNHmS0KAACgpbVuAbCNhaj2zst/97ydoZPMBQUAANDSiqUWvFLC9WDd6r/0iY/+9tbQUeaKAgAAaGmFYotdsGZ+92Sp+/SrBy/cFTpKIygAAICWViq0zFLlct00v6Py3qGPrB4LHaZRLVarAAB4mYRu/d0Q106LdO7ai8//ZugoSWmZWgUAwCup1wM/Wtv0v1Son7R2sH0Wf4kdAABAi6vVgj1H4yduGrxy8Pw7QgVIEwUAANDSarVas19yn+TXl+o9n7vsstWTzX7xZqEAAABa2uTUVLNeapek67us+MXBwXNGmvWioVAAAAAtbWIy1QLgct3nkd021TF129BFF02k+WKthAIAAGhpE5OJ78K7pMcl/7qZ3bb24vOfTPoFsoACAABoWeMTk6o3fhJgRabNkt3nHn+r7rV7f++S/7ojiXxZRgFA5k1N1TU9XVetFuQJ4G3NTCqWInV1FlQqcdUwmm98cnKLzB4+9E/Gsdz2y22/LB6VadRcm2S2cfmy7p+uXr062KUErYoCgEyKY9f27ZPasXNSU1N8rpuht7ekVx3WrQULO0JHQY4sWbzwyisG13w9dI52RAFA5kxO1vTExv0s/E02OlrVE6P7tWBBh1au6FOh0AJ3Z0O7m+6wjm+FDtGu2NNDpkxO1vTYY/tY/APat29aj/9on+KYQy5Il0nfeN3rjt4XOke7ogAgM+LY9cTG/arVWXhCGx+v6amnRkPHQJuL3W4LnaGdUQCQGdu3c7y/lezcNaXx8abfoQ254du7y5U7Q6doZxQAZMaOnW17R87M2snvBGkx+5NVq1ZVQsdoZxQAZMLUVJ1v/y1o3zB/n5EC156pjvhLoWO0OwoAMmFqmsW/FVUqdTmnZCBpZte99YQTOMkkZRQAZIJzxnlLcpecBoBkbe7v0Q2hQ+QB9wFAJpTLhdAR8AqKxUhRxP0AkByzaHDlyhXToXPkATsAyISu7gI3nmlBvb2l0BHQVvwvTvnFFXeFTpEXFABkQmSmBQu4BW2rWbSI3wkS87hqxiU35QAADcZJREFUvYOhQ+QJBQCZceQRPTI2AVpGV1dRixd1ho6B9jBmdb3v9a8/fCJ0kDyhACAzOjsLOvroeaFjQFIUmVas6KWQIQlVj3z1Kacc9+PQQfKGAoBMOWxZt448okdi4QmmUDAdd3y/5vVw/B8Nc3N96A2vO547/gXAVQDInCOO6FFPT0lbnx7T5CS3om2mBfPLWr68V52dXJWBhsWSPnLKScfdEjpIXlEAkEkLFpQ1f/5CjYxWtH+4oqnpWPVaHDpWWyqVI3V1FrVwQVld3fzJQCIqJj/vlBOP/1roIHnGpxmZZSb195XV31cOHQXAzO2MY1v9xpOP+5fQQfKOcwAAAE3hru9EcXzSG09eyeLfAigAAIC0TUn6/ac2r3z7ySef8HzoMDiAQwAAgBTZtxTFH3n9645/InQS/CwKAAAgBfY9k/7olBNX3h06CV4ZBQAAkJSque6MZde/4aSV3w4dBgdHAQAANKIm6fuSbo9i+58nn7xyV+hAmBkKAABgpuqSnpK0UdJjHvm/dBdq3121atVY4FyYAwoAAOAVzRt94Gt+2EXrCnE0FsfRWFfX1PZVq1ZVQudCMigAAIBX1DW55advOPH4H4TOgXRwHwAAAHKIAgAAQA5RAAAAyCEKAAAAOUQBAAAghygAAADkEAUAB+fmoSMAAJJHAcBBudl06AwAwojkk6EzID0UABxCPBw6AYAwXMbnv41RAHBQFuknoTMACCOSngydAemhAOCgilHlMUlx6BwAmq9qhUdDZ0B6KAA4KPvg/n1ybQidA0DTPdl13vNPhw6B9FAAcEgW2d+GzgCgudz19dAZkC4KAA6ppsJtkqqhcwBoGlcxWh86BNJFAcAhdZ33/NMy/VXoHACaw1x/33HO9h+FzoF0UQAwI7Va7b9JGg+dA0DqKnFUuDp0CKSPAoAZ6b5w7zNy+2ToHADSZdKnO87b9uPQOZA+CgBmrLRmxw0m/UPoHABSc0+xa+cfhw6B5qAAYMbM5EWzD0i6P3QWAIl7tDRV/Q1brXroIGgOCgBmxc7bMV7q8jNcujt0FgCJeaBUKr7DLtq3P3QQNA8FALNmq3eNlad2vleuP5HE0wKBLDP9aSnufpt94PndoaOguSx0AGRb9dYlb3W3z0s6MXQWALPhPzaPPlY6f8c9oZMgDAoAGuYuq3x54Nesrg/L9HZJhdCZALyiWLLvuvSn5ad2/LUN8ZyPPKMAIFH+1YGllZq9w1xvcvnx5lqsSPND5wJyybVf0h65Nkr6QbUe/++e39r9fOhYAAAAAAAAAAAAAAAAAAAAAAAAAAAAAAAAAAAAAAAAAAAAAAAAAAAAAAAAAAAAAAAAAAAAAAAAAAAAAAAAAAAAAAAAAAAAAAAAAAAAAAAAAAAAAAAAAAAAAAAAAAAAAAAAAAAAAACglVjoAGk56a6bftHkZ0r2Zrm/xqUBSQtC5wJyakzSsOSbTPZDme6ZHtn3rcdXD1VCBwPyqq0KwKrbh8qlvgXnmWtQ0n8InQfAQe026RazeN1DZ126LXQYIG/apgCcfPcN7/HYbpJ0TOgsAGZlUm6fHZWu2XL24HToMEBeZL4AvO3emzuHp0ZuNOlDobMAmDuTHo4L+s0NZ1y8OXQWIA8yXQBO/Lvr51tX9Pdy/cfQWQAkYp979N4NZ3/se6GDAO0uswXglH/8UndcnPymZKeFzgIgOS6NRpFO/+GZFz8UOgvQzqLQAebE3eLi5G0s/kD7ManXY33jDXd8cVnoLEA7y2QBOOnOz/+OZL8eOgeA1CyrWe1WuWd2lxJodZn7cL3hji8uq0W1JyT1h84CIF3uds6Gswe/EjoH0I4ytwNQi6pXicUfyAWTf/qUB79UCp0DaEeZKgAn/t318yX77dA5ADSJ6aj67qn3hY4BtKNMFYCos/CbkrpD5wDQPJFrTegMQDvKVAFw+a+GzgCguVx6+6n/dFNf6BxAu8lOARgaiiS9NXQMAE1XrEb+ltAhgHaTmQJw4qn9R0niWwCQQy5fFToD0G4yUwDcIh7yA+SUuR0bOgPQbjJTAIxv/0BuxXz+gcRlpgDIvRw6AoAwIllH6AxAu8lOAQAAAImhAAAAkEMUAAAAcogCAABADlEAAADIIQoAAAA5RAEAACCHKAAAAOQQBQAAgByiAAAAkEMUAAAAcogCAABADlEAAADIIQoAAAA5RAEAACCHKAAAAORQMXSAtuAu7RuV7x+Xpquyau3Q/6YYycslWV+PtKBXKhbSzylJleqBrKOTskpVqsfNeV20psIL78PeLvmCPlmZPwlAXvBpb5DvG5We3SlV/v+i7zP5hxVJE9Py4THpuV2yZYukZQvTiinFsfTcbvmu4QOFZaY50f4mp+X7x6TndksDC6TDF0kRm4NAu6MANMCf3yVt29v4oHosf26XND4pO/ZwyazxmS9Vq0tbnpWPTyU7F+3FXb5jrzQ2KVvxqubtSgEIgpo/R75zOJnF/6WGx+RP70h2pkv+k+dZ/DFz45Pyp7axRQS0OQrAXFRr0nO70pm9e780MpHYON+1TxpNbh5yYmRcvns4dAoAKaIAzIFv33vgmHpa87ftTm7Y9oR3KZAf2/eETgAgRRSAWXPZ8Gi6LzE2KVXrCc2ZwRUJwCup1KTxydApAKSEAjBb1bq8kv6i6pPTjc+YaHwGco73ENC2KACzVUvgm/kMWC2BktGkrGhfnsROFICWRAGYJS806dKoBK7DtgK/XjSI9xDQtvh0z5KVClKU8HX6r6SjnMCMUuMzkGvGewhoWxSA2TI7cPveNJVLUlcCBaC3mzu6Ye7MpLTf6wCCYXWYi6Up3rJXkpYuSGZOIZIW9SUzC/mzZH5zdrsABEEBmIt5XQce4JOGrg7ZkvmJjbPDFkklbumKWSoVZWk+mwJAcBSAObKjl8m6O5IdWirIXv2qZJ8FUCoemMk3OcxUITrwninxqBCgnVEA5qoQSccdJUtoJ8B6OqUTlqdz4l5Pl+z4o6XOBM4rQHvrKMuOP0rq6QydBEDKqPiNKETSsYfLxibkO/dJ+8eleBZPUDGTertli/ulBfNkSvFbeneH7BeWS7v3y/eMcIc3/KyeTtmifmlxf/JPowTQkigASZjXLZvXfeDpadXajG6/66WCrFho7ln6ZtKS+QfOMYjjA7d6raf3TANkQDE6sNXP1SJA7lAAkmSSysUD/5nBjwYVRRwSAIAco/YDAJBDFAAAAHKIAgAAQA5RAAAAyCEKAAAAOUQBAAAghygAAADkEAUAAIAcogAAAJBDFAAAAHKIAgAAQA5RAAAAyCEKAAAAOUQBAAAghygAAADk0KEfXI8ZcGl8Shoel1eqUq0eOlB7KhZkHSV5/zxZT4ckC50IADKLAtCosUn5s7uk8cnQSXLBJWnbHqmnUzpy6YH/BgDMGocAGrF7v3zTMyz+Afj4lHzj09Lu/aGjAEAmUQDmyIfH5Fu3S+6ho+SXu3zrDmnfaOgkAJA5FIC5qNelrdtDp4Ak6YUSwHkXADArFIC52LGPBaeV1OvyncOhUwBAplAA5sD3suXccvaNhE4AAJlCAZitWl2aroROgZebqkj1OHQKAMgMCsBs1WqhE+DnqVZDJwCAzKAAzJbxf1nLivjdAMBM8RdztspFybgDXcsxk0rc1woAZooCMFtmst6u0Cnwcn3dFDMAmAUKwBz44vmhI+BljN8JAMwKBWAObME8aR67AC2jt1uaPy90CgDIFArAnJjs2MOlcil0EJRLsmMOC50CADKHAjBXpaLs+KOkHnYCgunplJ1wFCf/AcAc8JezEeWi7IQj5btHpF3D0sRU6ES5YN0d0sACaVF/6CgAkFkUgIaZbHG/tLhfqtbk0xVZlecEpMFLBVlHmW/8AJAA/pImqVSUsTilhov8ACA5nAMAAEAOUQAAAMghCgAAADlEAQAAIIcoAAAA5BAFAACAHKIAAACQQxQAAAByiAIAAEAOUQAAAMghCgAAADlEAQAAIIcoAAAA5BAFAACAHKIAAACQQ5kpAGaKQ2cAEIbz+QcSl50CIBsPnQFAIO6joSMA7SZDBSDeGToDgDDMjc8/kLDMFICpjvImSR46B4Dmc8UbQ2cA2k1mCsDjp39kzFyPh84BoPliL34/dAag3WSmAEiSm74ZOgOAptv6yK98dFPoEEC7yVQBUBz9VegIAJruq6EDAO0oUwXg4V/52INueiB0DgBNU61H0Z+HDgG0o0wVAEmS6w9DRwDQNLc+eubHngodAmhHmSsAG9598T+56xuhcwBImWm4HpWvDh0DaFeZKwCSVCv7b0vaHjoHgPR4bB999Mzf5fp/ICWZLACPvfOSHbHpA5KmQ2cBkAK3P9lw9uBXQscA2lkmC4AkPXLWxfea7AOSKqGzAEiOu25++Ad714bOAbQ7Cx2gUSfdddM75f41SQtDZwHQEHfTpzecOfhJmXHXTyBlmS8AknTSHV84WlF8i+RvC50FwJw872Yf2nDW4B2hgwB50RYFQJLkbifd9fn3y/yTcr0mdBwAMzLips9PTk9ds/HXruCJf0ATtU8BeNHQUHTyqfPf5bIPSn6mZAOhIwH4GVOSvufuXyuUum5/6F0X7Q8dCMij9isAL+VuJ/7zTSuimp0g88NiWb95dk98BLLKLR41Rfss8k195b7Hv336BVOhMwEAAAAAAAAAAAAAAAAAAAAAAAAAAAAAAACt4v8CizacSuOvpdoAAAAASUVORK5CYII=;fixedWidth=0;" vertex="1" parent="1">
          <mxGeometry x="200" y="40" width="120" height="120" as="geometry" />
        </mxCell>
        <mxCell id="-tSm10FkZ4Ool6qzO1sV-5" value="" style="shape=image;verticalLabelPosition=bottom;labelBackgroundColor=default;verticalAlign=top;aspect=fixed;imageAspect=0;image=data:image/png,iVBORw0KGgoAAAANSUhEUgAAAgAAAAIACAYAAAD0eNT6AAAACXBIWXMAAA7DAAAOwwHHb6hkAAAAGXRFWHRTb2Z0d2FyZQB3d3cuaW5rc2NhcGUub3Jnm+48GgAAIABJREFUeJzs3Xd4HdWdP/73mduk29SLVS3bYFsumGrTi4EkQApLTBIgbMgmJNuyu79sNrvftvvd8tvNpof0HsCYEhxaqC6E4gK49yZZkiVZXbr3zr26bc73D1nBRbJmbptb3q/n4QlYM2c+saR73nPmzDkAERERERERERERERERERER5QNhdgFERLlMSukMhULlmqaVCSHs8Xi8WFGUIgDQNC1ssViCmqaFbDbbeCwWU10ul18IETS7biIGACKi8xgYGPA4nc75UsqFABYCaDr1TwOAOgCOBJodBdANoAtAj5SySwhxFMAel8u1XwgRTVH5RNNiACAiOkVKafP7/VcoirICwKUALgMwD5n9rIwCOABgN4BdiqK8WVxcvE0IEctgDVQAGACIqKAFAoGlAG4DcBOAqwC4zK1oSj4AbwDYKITY6HQ6dwkhNLOLotzGAEBEBUVKqQQCgesURblbSnk7Jobzc02vEGKtpmlPud3uNxkGKBEMAERUEPx+f6sQ4s8AfAJAvdn1pNDJU2HgCY/H84bZxVDuYAAgorwlpVSCweDtUsovAViJ/P/MOwzgl/F4/GclJSXDZhdD2S3ffxmIqAAFAoEaIcTnpZRfwMRs/YIihAhomvaYEOKHbrd7l9n1UHZiACCivBEMBhs1TftnAJ8GYDe7niwgAfxeCPGvLpfrXbOLoezCAEBEOc/n81UoivIVAF8CUGx2PVlqnaIo/8vpdG41uxDKDgwARJSzhoaGvHa7/ctCiL8D4DG7nhzxoqZpX/Z6vQfNLoTMxQBARDlHSimCweAXpJT/BqDS7HpyUBTAQ+Fw+P9WVFT4zC6GzMEAQEQ5ZWxsbJ7FYvkJJhbuoeQMAfg3l8v1ENcSKDwMAESUE6SU9mAw+FUp5f9EYuvv0zSEEG9Fo9HPlJaWHjO7FsocBgAiynqqql4spfw5gEvMriWPhQD8k8vl+p4QQppdDKUfAwARZS0ppVBV9UsAvg7AZnY9BeI1RVE+63Q6T5hdCKUXAwARZaWxsbFyi8XyGwB3mF1LARoRQtzvcrleMLsQSh/F7AKIiM6mquoliqK8C3b+ZimTUj4XCAT+S0rJfiJPcQSAiLJKIBC4H8CPwQV9ssWLsVjsvtLS0hGzC6HUYgAgoqxwauOe70kp/9LsWugchzVN+ygXD8ovDABEZDoppV1V1YcxsVUvZacRTdPu8Hq9m8wuhFKDAYCITNXf3+92Op1PA7jV7FpoRqoQYpXL5XrJ7EIoeQwARGSaQCBQA+AlABebXQvpFgHwGbfbvcbsQig5nN1JRKYIhULNUspNYOefa+wAHlVV9fNmF0LJ4QgAEWWc3++vEkK8CWC+2bVQwqQQ4nMul+uXZhdCieEIABFl1PDwcIkQ4hWw8891Qkr5U7/ff7fZhVBiGACIKGOklE673f48OOyfLyxCiEdUVb3N7ELIOD4CIKKMOPWq33MAPmB2LZRyQUVRbnI6nVvNLoT0YwAgorQ7tanPagCfMrsWSpteRVEudzqd3WYXQvrwEQARpZ2qql8BO/98N0vTtOellE6zCyF9OAJARGnl9/tvOjXpz2p2LZR+QoinnU7nKiGENLsWOj+OABBR2oRCoSYhxONg518wpJR3qar6j2bXQTPjCAARpYWUskhV1TcAXG52LZRxMUVRrnM6nZvNLoSmxxEAIkoLVVW/D3b+hcoqpXxkYGDAY3YhND0GACJKOVVV7wDwZ2bXQeaRUs4tLi5+yOw6aHp8BEBEKTUyMlJqs9n2Aqg3uxbKCvdw46DsxBEAIkopm832PbDzp/d93+/3V5ldBJ2LAYCIUkZV1dsBfNrsOiirlAsh/svsIuhcfARARCkxPDxcYrfb9wJoMLsWyjpSSnmjx+P5g9mF0Ps4AkBEKWGz2b4Gdv40NSGEeEhKyfUgsggDABElze/3LxJCfM7sOiirLVFV9UtmF0Hv4yMAIkpaIBD4PQBuCUszGY1Goy1lZWWjZhdCHAEgoiT5/f4bwM6f9Cm1Wq1/a3YRNIEjAESUMCmloqrquwAuMbsWyhk+TdPmeL3eobO/IKUsCgaDizRNm6coyjxN0xqEECVCCIeU0gsgBECVUvqEEMNCiKPxePywEOKQx+Ppz/z/ldzGAEBECQsEAp8G8LDZdVDO+Zrb7f5HAAgGg1fE4/EPCyGux8TS0UUJttkB4HUAGxVFWed0OrtTU2r+YgAgooRIKS2qqh4B0GJ2LZRzVADfE0KsklLOS0P7GoA3hBCPhMPhp8vLy8fScI2cxwBARAnx+/2rhBBPml0H0QyCQohfKIryzeLi4g6zi8kmDABElJBAILAFwHKz6yDSKQpgtaIo/8fpdHaZXUw2YAAgIsN8Pt81iqK8aXYdRAkISim/7na7/1MIETa7GDPxNUAiMkwI8f+ZXQNRgpxCiH9WVXW3qqqXm12MmTgCQESGhEKhlng8fgSAxexaiJIUk1L+h9vt/lchhGZ2MZnGEQAiMiQej38J7PwpP1hPjQY829/f7za7mEzjCAAR6Xbq1b8TAGrNroUoxd6TUt5eSAsKcQSAiHRTVXUl2PlTfrpMUZS3Q6FQwaxrwQBAREbcY3YBROkipZwXi8XWqao6y+xaMoEBgIh0kVIWAfiY2XUQpZMQYo6U8pXR0dEys2tJNwYAItIlEAh8GECJ2XUQZcASq9X6WyllXk92ZQAgIr0+ZXYBRBl0UyAQ+L9mF5FOfAuAiGYkpbQFg8FhKWXBvSpFBU0DcLvb7X7Z7ELSgSMARDQjv9+/nJ0/FSAFwK9HRkZKzS4kHRgAiGhGFotlpdk1EJmkxm63/5vZRaQDAwARzUhKyQBABUtK+RfBYDDvdr5kACCi85JSOgFcYXYdRCZSNE37/80uItUYAIjovFRVvQ6Aw+w6iEx2k8/nu8bsIlLJanYBRJR9AoFAjaIoLZqmtQD4tNn1EGUDRVH+J4APmV1HqvA1QKICJqVUAoFAK4BrhRBXAbgYQAsAp7mVEWUnKeVij8ezz+w6UoEjAEQFJhgMNmia9nEAN6uqerUQIi9fcSJKByHE/QC+anYdqcARAKIC4PP5KhVFuQ0Tw/k3gfN/TBOPxxEMBqGqKsLhMKQEQqHQGccUFxdDCMDhcMDlcsHpdMJiyetVaXNJj8vlahJCxM0uJFkMAER5LBAI3AzgywBuBTv9jIhGYzh5shc9Pb3o6+vHyMgIhoaGMDw8jLExH8bHxxNqt6ioCCUlXlRUVKC8vBzl5WWoqanBrFmzMGtWLaxWDuhmipRypcfj2WB2HcniTwxRnpFS2gOBwEeFEF8BcLnZ9eSzaDSGzs5OtLe3o62tHZ2dXRgcHEQ8nvqbw/HxcYyPj6Ovr/+cr1ksFlRVVaGpqRFz5rSgpWU2mpqaGArSRAhxC4CcDwAcASDKE1JKSzAY/LyU8n8DqDO7nnwUj8fR3n4cBw4cwP79B3D8eAdisZjZZU3JZrNi9uwWtLYuQGvrQsyePRuKwkGgFHnX7Xbn/NoYDABEeSAQCKwE8C0AS82uJd+Ew2Hs2bMX27Ztx759+895Xp8riouLsXjxIlx66SVYvHgRHA4u7ZCEeCwWqyotLR0xu5BkMAAQ5TCfz7dAUZRvArjN7FrySTQaw65du7B16zvYt28/otGo2SWllN1ux+LFi7B8+RVYunQJHxUk5ma3273e7CKSwQBAlIOklOLUcP+3wXf2U6azswtvv70JW7e+A1VVzS4nI9xuN5YvvxxXX30VGhsbzS4nZ0gp/7fH4/l3s+tIBgMAUY4JhUJN8Xj81wBuNLuWfCClxO7de7B+/QYcOHDQ7HJM1dzcjJUrb8QVV1zO1w5nEI3G34xGw7dVV1cHzK4lUQwARDkkEAjcC+D7ALh4T5LC4TA2bnwdGza8jpGRnH6Um3IVFeW48cYbccMN13GuwDSi0dgwIFeWlZXtNLuWRDEAEOUAKaVFVdX/QJ6sQGamcDiMt956Gy+++DJ8Pp/Z5WQ1l8uFlStvxM03r0RxcbHZ5WSVSCQqhcBnysrKHja7lkQxABBluf7+frfT6XwMwIfNriWXRSIRrFu3Aa+88iqCwaDZ5eQUl8uFD37wVqxceRNsNpvZ5ZhO0+Sp1z/lN8rLy79idj2JYgAgymKn1u1/DhOb9FACpJTYvn0HfvvbtRgcHDS7nJxWVlaGO+64Dddeew2EKNzuIxaLQ9M0APKJ8vLyT5pdT6IK9ztIlOX8fv8iIcR6ADVm15Kr2tvbsXr14+jo6DC7FAATM+5LSrxwOl1wu11wuVxQFAU2m+2Pd9bRaATRaAyapkFVVQQCKoJBFaOjY1nzZkJLSwvuvfeTaG5uNrsUU0QiE6+FCoHXysrKbjW5nIQxABBlIZ/Pd6GiKK8DmGV2LbkoHA7jhRdexKuvvnbqTi1zbDYr6uvrUVdXh7q6Wairq0NlZQXKyyvgcNiTajscDmN4eBgDA4Po7Z3Yb6C7uwfd3d0ZX5FQCIFrr70Gq1bdhaKiooxe20xSSkSjsVP/jvUVFWU3m1xSwhgAiLLM2NjYBRaL5XVwOd+E7Ny5E4899jhGRkYzcj23242FCxdg7ty5p9bgb8z4wjrRaAxdXZ1obz+OI0eO4uDBQxkbLSgrK8O9934KF11UWItQSim3j4+P31BVVeU3u5ZEMQAQZRF2/okLh8N48snf4o033kzrdYQQaGmZjWXLLkJr60I0NTVl3fNwKSU6Ojqxf/9+7NixCx0dHZBSpvWaV165HPfee08hvTb4stvt/pDZRSQju35qiQqYz+ersFgsW6WUc82uJde0tbXh5z//FQYGBtJ2jTlz5uCKKy7HxRdfhPLy8rRdJx2GhoaxY8cObN36Lo4fP56261RWVuCzn/0MLrjggrRdI1sIIX7gcrn+yuw6ksEAQJQFpJQ2VVVfBnCT2bXkEiklNmzYiKeeejotW/CWlHixYsUKXH31VZg1qzbl7Zuhp6cXmzZtwubNW9OyDoKiKLjjjttwxx23Z93ISIo94Ha7f212EcnI6+8OUa7w+/0/EkJ80ew6csn4+Dh+9avfYPv2HSlvu7m5Cddddy1WrFgOuz25iXvZKhaLYdeu3Xj11XVoa2tLefsXXbQUn/3sZ+B05u1WFUvdbvces4tIBgMAkcn8fv9fCSEeMruOXHLiRDd++MMfp3zIf9GiVtxxx+2YN6+wnsIcPnwEL7zw+5TvhVBVVYW//Ms/R3193k1pUV0uV6kQIrOvXqQYAwCRiVRVvVhKuQVAft5mpsH+/Qfw4x//FKFQKGVtLl68CB/+8O2YM2dOytrMRceOHcNzz72A/fsPpKxNh8OBBx/8HJYuXZKyNrPA8263+yNmF5EsBgAik0gpHaqqvgsgrz4Z0+nNN9/C6tVrUva8v65uFj7+8buwZMnilLSXLw4cOIinnnoaXV1dKWlPURR86lOfwA03XJ+S9swmpfwLj8fzI7PrSBYDAJFJAoHA1wH8vdl15AIpJdau/R1efvnVlLTn9Xpx11134sorV6R9opoajmEkEMZIYBwjahjDgTCC4RiicQ3jkRhimkQ0piEcmwg1DqsFNqsCqyJQZLfCZlHgdFhR7nagzOVAmacIZS4HXI70rjWgaRo2bdqMtWt/B78/NTve3nbbh3DnnR9NSVtmslqtc4uKilI/cSLDGACITODz+a5RFOUPABSza8l2Uko88cSTWL9+Y9JtCSGwYsVyfOITq+ByuVJQ3ZmicQ0nhlScGAqgc9CP/rEQIrH0rERotyqoKXGiqcqNhnI36sqdsFstKb9OKBTCs88+jw0bNqZkLYEbbrgO99zzqVx+Q2Cv2+3Oi1G7nP0OEOUqKaVdVdW9APL/ZekkaZqGhx9+FG+/vSnptqqrq/HAA3+a0gl+UgLdwyqO9I7ixLCKkyNBaGlecGc6ihCYVeZEQ4Ub82aVoL7cldIP+CNHjuBXv/oNBgaS31Bp+fIr8MADfwqLJfWBJd2klP/q8Xj+2ew6UoEBgCjDAoHAlwF8w+w6sp2mafjpT3+Obdu2J93WlVeuwL33fiplq9QN+sdxqHsUezuHMBqMpKTNVPMU23HhrBIsaChDQ3lqRjvC4Qh+97tnsH79hqTbuuyyS/H5z/8ZFCXnBsFy/vW/SQwARBnk8/kqFEU5AqDM7FqymZQSDz/8KN566+2k2nG73XjggT9NyQx0dTyKXR1D2H9iBEP+8aTby6RKTxFaG8qwdHZlSuYO7Ny5E7/+9SNJ7zdw5ZXL8cADn8mlxwFjUsrPT/6HoighTdOCiqKMxeNxv8ViCbhcrh4zCzQiZ/7WifJBIBD4LoAvmV1HNpNSYvXqNfjDH95Iqp3m5iZ88YsPorKyMql2To4G8d6xARzsHkFcM2d4P1WsioIFDaW4bG4VakqSW6BneHgYP/nJz9DW1p5UOzfccD3uvfdTSbWRZVQAR4QQRzRNO6IoytZYLPZWSUnJsNmFnS2pAPDggw/a/P7x5YC8CsB8KVEthFY4+0ISGdDU1Oz8H//jq1daLBYG7/N4+unf4eWXX0mqjRtuuA533303bLbE73b7x0LYdOgkDveMIre7/anNrvLg2oWzUJfE44FoNIrHH38y6Q2Y8uXtgPPQAOwB8AcAL7pcrnVCiNSvXW1QQh9En/70p1uiUfkVu916j9VqK7HZbLBYLLBYcu5ZDlHGrFp1Fy655BKzy8hqb775Fh5++NGEz1cUBXffvQorV96YcBuD/nG8vrcbx/pSv05+NppXW4IbFtWhwpP4vdv69Rvx5JNPQdMSf+PhvvvuwfXXX5fw+TlmWEr5WynlIx6P520hhCkZ01AAWLXqM7U2W/R/ORxFXygqKrYmk66JConb7cJXvvKVpO5I892+ffvx0EM/SHiRH4fDgc9//s8S3pc+GInhzf292N0xZNpMfrMoQuCi5gpc21qHYntiM/P37t2Hn/zkZxgfT2x+hMViwZe+9FdobV2Y0Pk5bA+Ab7hcrjVCiGgmL6w7ANxzz6c/YLXannS5nF5+iBEZc/PNK3HTTYnflea77u5u/Od//jfC4XBC57vdbvzt3/41mpubEzr/UM8oXt3ZhWAkp5d2T1qRzYLrF9XhotmVCQ0Pt7e347vf/X7CkwOLi4vxj//4D6irm5XQ+TmuA8C3XS7XT4UQqVvn+jz0jNmLT37yvq86ncUvlpZ62fkTGWSz2bBixXKzy8haoVAIP/jBjxLu/L1eL/7+7/8uoc5/LBjGmreO4Jl32gu+8weA8Wgcr+zswpNvH4UvgdcbW1pa8NWvfgWlpaUJXT8UCuH73/9hSvd5yCHNAL6jqurhQCBwfyYuOGPIu+ee+77j8Xj/xuE4/14l8bgGKbWUrBRFlE9WrFiOu+76E7PLyEpSSvz4xz9NeEvf8vJyfPnLf4vq6mrD5x7qGcXLOzoxHjV9LlZWslsV3Li4HstmG3+Loq+vH9/85rcxMjKS0LWXLbsIf/EXX8yl1wPT4TUp5d94PJ7U7cx0lvP+7d533/1/43Z7vmO32875WjweRyQSQTgcQSwWY8dPNI2vfvUrBbe9rF6///2LeOaZ5xI61+Px4B/+4cuora01dF40ruGl7Z040J1Y51RoFjWW49aLGgwvM9zf34///u9vYmxsLKHr3nXXn+CDH7w1oXPzSBjAP7tcrq8LIVK+pvS0jwA+8Yn7LnE6nd86u/OPx2Pw+XwYHh5BIKAiGo2y8yeaRnl5OebOLewtZqdz9OjE1rOJcLvd+PKX/85w5z8SCOPhPxxi52/Avq5h/Ob1Q4YXP6qursbf/d2XEt5z4ZlnnsWxYzm/306yHAD+S1XVlwOBgLEfdh2mDACrVq2yOJ2Op4qKik77ukQgoGJ4eBThcHYufUmUbS6//NJCH8acUjgcxi9/+euEXhtzOBz427/9a9TX1xk6r63Ph1+/fhCDvtxaxS8bDAfCeOQPh9He7zd0Xn19Pf7mb/4KMz1Cnko8HscvfvGrhOeG5JlbAGwLBoMpnUw0ZQAoLnbf53S6/njbomlxjIyMFerEDKKEXX75ZWaXkJUee+xxDAwMGD5PCIHPfe4BwxP+dh0fxNqtbWnbma8QhGNx/HbzMWxvN7YZUEtLCx588PMJrfk/MDCAJ5/8reHz8lSdpmmv+/3+ValqcMrviMNh/4/JRX3i8YnOPxbjDFkiI6qqKhN+LS2f7dy5E5s2bU7o3E9+8m4sW7bM0DlvHOjFyzu7cn4Z32ygSYnXdnXhrYO9hs5bunQJ7rrrzoSu+cYbb2L37t0JnZuHioQQa1RV/WIqGjsnANx3332X2O2OemBihu7YmC+p1Z2ICtWiRa1ml5B1xsfH8dhjTyR07g03XGdoLQUJYP2eE9h86GRC16PpvX3wJF7d1QUj079uvfUWXHPN1Qldb/Xqx/ko4H0WKeWPAoHAV5Jt6JwAYLMV/dXk3b/P50t4VS6iQnfBBReYXULWWbv2mYReDWtpacHdd9+t+3gJ4NWdXXjvmPHHDKTPjvZBvLa7y9A+Cffc80nMnm18VGx4eBjPPvu84fPy3NdUVX0wmQbOCQB2u+1GYGJBhkgko6sSEuUVvvp3pvb24wnt8OdyufDgg58ztIzy63u7sfO4sWfVZNyO9kGs331C9/E2mw1f/OIX4Ha7DV9r/foN6OjoNHxeHhNSyh/5/f5PJNrAOQFAUSx1UmpQ1WBypREVsMrKCpSXl5tdRtaQUuKxx9YYfpwohMBnP/sZVFZW6D7njQO9eOdov9ESKUHb2gbw1kH9j1kqKspx//33Gb6Opml47LHH+dr5mRQhxMPBYPDKhE4+67+FxaLYg8EQ/5KJksDh/zNt2fIOjh/vMHze9ddfi6VLl+g+ftfxQT7zN8HbB3uxw8CIy8UXL0toPkBbWxvee2+b4fPynF3TtCf9fn+V0RPPCACrVq3yCiEQCvE9WaJkNDc3mV1C1ohGo3j22WcNn1dVVYWPf/wu3ce39/vw6i79w9GUWut2ncBxA+sEfPKTdye0hPPatb9DNMrH02dpEEI8KqU09K7lGQdXVVV5ubIfUfKqqgyH8bz12mvrMTQ0bOgcIQQeeOBP4XA4dB0/HAjjmXfaC24b32yiSYln3mnHiKpvtr7D4cD9999neKGswcEhbNiwMZES892twWDwn4yccEYAEEIoXOWPKHm1tTVml5AVxsfH8eqrrxk+79prr8EFF8zTdWw0ruF3XOQnK4Rj8VMLLul7e2z+/Atx5ZUrDF/npZde4WuBU5BS/h+fz7dA7/HnDBfE41zwhygZiqJwAuAp69ZtMLw3vNfrNbRozEvbOzFocJ16Sp9B37ihRzF33/1xeDzG3gpQVRUbN75usLKCYFcU5cdSSl3DKucEgJjO5EZEU6usrIDVqv+VtXwVDoexfv0Gw+fdddedcDqduo7d0znEjX2y0L6uYew/oe/74nK58NGPfsTwNV555TWOAkztelVV79Fz4BkBIBqNRvj8nyg5c+Zw9z8A2LjxdQQCAUPnNDY26B4S9oci2LCnO5HSKANe3dkFX1DfI+Vrr70G9fX1htoPBAJ44403EymtEHxNSlk000FnBIBAIMBxNKIk1dXNMrsE08XjcWzc+AfD561a9XFdk8IkgN9v78R4lCOW2Soci+PlnfoW7lEUBR//+J8Yvsb69Ru5Wu3U6gOBwAMzHXTGOKXdbpfhcHrmACgWG6zu0rS0TZRNauoazC7BdNu378DwsLGZ/4sWtWLhQn3zl/Z2DqFjwNjWtJR57f1+7D8xgtaGshmPXbx4ERYsmI+DBw/pbn9oaAi7du3GJZdcnEyZeUkI8U9Syl8IIaYdhsnYg0pHdTOK51yUqcsRmcZZXg0ppeHXm/JJIs/+77jjdl3HBSMxbNzLof9csWHPCcyp8aLIZpnx2I997CP4r//6uqH2161bzwAwtcZgMHg/gJ9Pd4DxDZqJ6LwsilLQa2l0dnbh2LE2Q+csWtSqe++EN/f3IhThsG+uUMMxvHVA3/bBc+fOxYUXGltF88iRozhxgoFwKlLKvzzf1xkAiFJMUYShbVLzzdtvbzJ8zu2336bruCH/OHZ3DBlun8y1o30QQzpf1dQ7EnS6TZs2Gz6nQCwLBAJLp/siAwBRigkISFmYi9LEYjG88867hs5pbm7SvejPxn09XO0vB2lS4g2dowALFy5AY6OxeTRbtmzlZMDp3T/dFxgAiFIsrkloWmF2Urt27Tb86t/KlSt1HdczrOLYybFEyqIscLhnFL0j+naZvemmGw217ff7sWfPnkTKKgT3SimnnO/HAECUYnFt4k6kEEPAli1bDR3v9Xpx2WWX6jr2be7yl/O2HOnTddzy5VfA7Ta2OuCWLe8kUlIhqA2FQpdP9YWMvQWghVV4PTO/CkKU6+KnNuSaeAww88znfBEOh7F//wFD51x55QrYbDN/DPWNBtHW50u0NMoSR3pGMeALocpbfN7jbDYbVqxYjnXr1utue+/evQiHI3A47MmWmXeklCsBnDNRInPrlWoarJbC+TCkwhWMvD8CUEg/8nv27EUkYmwzsSuvXK7ruHePDSRSEmUZCeC9YwP40MUzb5d9zTVXGQoA4XAEBw7sx7Jly5KoMD9JKW8E8O9n/zkfARClWGB8YjEtKWVBvQ64ffsOQ8e3tLToWv41GI7hUPdoomVRltnfNQJVx4Jz9fX1aGxsNNT29u07Ey0r310lpTxn2IUBgCjFhk973UnTCuNtAE3TsG/ffkPnLF9+ha7jdh0fRKxA/h4LQUzTsEfnq5zLl0/56Hpau3fvKajQbUBRKBQ6Z2iEAYAoxbpH3t/+Nh4vjI6rvf04gkF9M7wBQAiBZcv0rQyqd1c5yh27O4egp5u+9NJLDLWrqiq6uvRvRVxINE278Ow/YwAgSrGzV6krhFGA/fuN3f3Pnj0bFRXlMx7XPxbCoM4FZCh3jATC6BlWZzyusrLS8JpoE2zkAAAgAElEQVQARieiFpCFZ/8BAwBRGkRi73f6hTAKcODAQUPHL1s27eJkZ7bLu/+8ta9L32ZRF19sbFKf0TBaKDRNnjPjlgGAKA1849E//nu+TwaMRmM4fvy4oXNaW1tnPEYCOMDJf3nrcO+YriWzW1vPuXE9r7a2Nq4KOCXJRwBEmdA/duawdT5/IHV1dSIa1b+NuMvlQnPzzK+BdQ+pGAuGkymNspg6HkX38MyrRs6ePRvFxedfN+B04XAE3d09yZSWdzRNQtM079l/zgBAlAaHes68c9U0mbcbBLW1tRs6fsGC+bq2Sj7KZX/zXnu/f8ZjLBYL5s8/5+b1vNrajO1Gme8mFiUTRWf/OQMAURocH/CfM8s5X0cB2tuPGzr+ggv0bffaNWRsTwHKPV2D+r7Hc+fq2yp6EgPAmU6NAJyz8B8DAFGa+EPRM/5b07S8nAvQ2dll6PiWltkzHhOJxdE3qv+1QspNvSNBRHVMkp07d46hdjs7+Srg6SY/d6SUJaf/OQMAUZpMdQebb6MA0WgMAwP6l+m12ay6VnfrGQ4iXoCbKRWamKbhpI6g19zcBIuBdbX7+vry7nctUadvSjY6OnrGszcGAKI02dVx7mtOWp5tFWz0g7aurk7X5j8ndEwOo/zQOTDz99put2PWrFrdbcZixoJpPjt9HZKysrIzJicxABClSd9YCFP19fl0Z9LTY2y2tZ61/wF9nQLlB71zPWbNmmWo3Z6e3kTKyTunPXY859OIAYAojbqnWO1MSpk3iwP19/cbOr6uTt+HeP9YKJFyKAf1j+mb61FXV2es3X6OAMTj7887EkKcc+fBAECURm8d6pvyz+PxeF5MCBweNrZSn567uGA4hnAsf0ZJ6PxCkTjGozN/v+vrjQWAoSF9Gw7ls4nX/yb/Hecs1sEAQJRGJ0eDCMemvtuP5UEnZ/RDtqqqcsZjRlQu/lNohgMz7/dQUVFhrM1hfUsN5ytN086YbySEOOcvhAGAKM0O9069oE0+PAoYGjL2IVtePvMGQHo6A8ovo2pkxmP0bB51usHBwUTLyQtnTzYWAh1nH8MAQJRmbx86Oe3Xcv1RgM/n032sy+WCw+GY8bgRHZ0B5ZeRwMyjPnp/fib5fDOvMpivpJRT7EIqz9kliQGAKM1CkTj6z7Olba4+CojH4xgf13+37vWesxT5lEY4AlBw9I76lJaWzHzQKcFgMKfDdTKmGllUFGXrOX+WkWqICtwrO08A06x/L6U0tJlOtggGQ4Y+YN1ul67j1PHc+7ug5Khhfd9zl8utu01N0wwF1Hxxatnfqb70u7P/gAGAKAMG/eMY8k8/zCmlzLmRgGDQ2FK9bre+D289S8NSftH7PdcbIicFAoW3nkQ8fm6YEkKMer3ecyZFMAAQZciru8+/PrmmaTm1SJDRuyu9W7pGciwIUfIiOl4DBPT/DP2x3UhhzSeZeO//3D8XAjumOp4BgChDTo4GMRo8/wdSPK5NN3yXdaa60zgfm82m67jINK9NUv6K6BwB0PszNCkWK5zHSZomp72B0DTt6an+nAGAKINe3DnzznmxWDwnQoDR0QqrVd9mLhwBKDx6RwCMbAgEICfn1iRqurAjhNDKysp+NdXXGACIMqhvNIQ2Hevc50IIMDpnwWqdeRMgAIjFC3PmdiHTOwfA6AhALj1SS8b5fheFUPYIIaacsMMAQJRhv9/WqWur21wIAUYU6BtZRGk102NDKfHt6b7GAECUYTFNw+v79e1UFovFs3a1QL139JP0Po+1WfixVGj0fs+j0aihdo0+Msg153vuDwCKIiJlZd7fTPv1tFRFROe1u3MYYyF9M5Tj8ThisexbMdBisKPWOxxrt/FjqdA4bPo6aqND+jabsZCaS/S8NSSleOl8X+dvGpFJHn+7TXenrmla1oUAi8XYh6veuzeOABSedI0AGB2lyhWT64bM8HkgI5HxL5zvAP6mEZkkGInhpV3duo+f/KXPlnkBxcVFho7Xu3CQXefbApQ/7DpHAIwuPuVwGPsZzQV6Vw61WJR1NTU1U+9HfgoDAJGJDvWM4shJ/RvqTIaAbJgX4HKlZ1U2jgAUHrvO77mqqobaNbpyYLabHAnUQcbj8c/NdBB/04hM9sL2TqgRY+8rx+NxRKMxUx8JFBcXQ0yzv8FUVFXf3ZurKD+HbWl6riJ9r/cZCQAWi8XQ7oHZLh7X/xjQYrG8WF5e3jnTcQwARFngsbeOQsebgWeYHAo0azRAURRDS7OOjY3pOq7cnX/DtnR+pS67ruNGR/X9DAGA0+k0FFCz1fujfvomQAohwl6v5249xzIAEGWBwHgMj28+ltC78vF4HJFIFJrRBJECerf4BSae3+rZP6DMlT93baSPntCnqirC4ek31DqbkZ/NbKVpxuf9KIr4p+kW/jnn2IQrI6KU6hsN4bntM47aTSsWi2X8sUBFRbmh44eGhmc8Ru/dIOUPPaFvcPCczezOq6KiItFyssLEkL+x32dFUdpKSkqmXfjnnOMTqoyI0qKtz4d1e3oSPn/ysUCmXhk0+iGr50O83MNHAIWmzK0nAAwZarOioizRckyladqpR3vG1jwQQkTj8dgNRs5hACDKMnu6hrH5SH9SbUx+iESjsbS+NlhWZuxDtrd35hUQnXYrinS+Fka5r1jn97unx1gwzrURgGTDu6KIz1ZUVMy829jp5xi+ChGl3ZYj/Xjz4Mmk25mcQBSJRE/tFZ7aUYGammpDx+v9EK8uMbbvO+Wu2lJ93+veXmO/D1VVVYmUk3GTz/mTeXynKOKpkpKSRw2fl9DViCjt3msbxMu79S8UNJPJVwcnRwVSkQXq6uoMHd/drS8ANFV6EimHclBDhVvXcUZHAOrr6xMpJ2Pice3UHX9yo3SKIg6WlpbqmvV/Nr5wS5TFDpwYgToexZ2Xz4aSojeaJkcFgDiEEFAU5dT/Gr9AbW0NrFar7o1+urt7EIlEYLeff6JfQ0V+LeBC02uqmjnshcNhnDx53kXtzmCzWVFZmV2PAKTEqeCtpeyNHUVRTpaUeJclfH5KqiCitOkcDGDN20cRS8OzfCnlqc2GYohEon98Bjn5uGCmIUmLxWJoqDUej6Ozc+bHlHXlLlhSlXgoa1ktCmp1PO45frzD0KS42tpaU3cCnPzdmdywJxqNIhqNIh6Pp6zzF0L4hMAiIYT+dyPPwgBAlAP6feP4ybqDGPAn/Luuy5kfWrFT/0T/OFQZi8X/uCjJ5D+NjQ2GrtHefnzGY2wWBbWlzgT/X1CuqCtzwqpjGeBjx9oMtdvQ0IB4XMvIP5O/D5Ov4Z7+z/thOtG/oakJIXyAXFpSUjLze7XnwQBAlCMiMQ2PvnkE77YZex86WVJOBoOJcDAREN7/p7m52VB7R44c0XVcU6W+Z8OUuxp1zvUwGgBaWmafEVLT+c/k74OmSV2jZskSQvRZLMrcsrKyjmTbYgAgyjFvHTyJJ7ccT8sjgUS0tMw2dPzBg4d0TXqaW1uSUD2UO+bUzBwA4vE4Dh8+bKjd2bNbEi0pqymKOFxaWjLb6/Wm5C6AAYAoB3UPB/CjVw+irV/fDnvp1NDQAJtN32YuABAKhdDRMfPNS325i6sC5jFPsR2zymae7NnW1qZrCelJDocDs2bVJlNaVlIU8buSkpKFQgj9fxkztZmqhogos2KahmffO47Vbx2FLxQ1rQ6LxWJ4FGDfvv26jmttMLbUMOWOC2eVQM80z/37Dxhqd86cOVCU/OnahBAxq9XyYGlp6Z8IIVI67Jc/f0tEBarfN45fbDyETYcHoJm0PfD8+fMNHb9z5y5dx7U25OZyrjSzRY36wt327TsMtbtwobGfxWwmhOgA5Dyv1/uzdLTPAECUJ7Ye7cMPXzuAfSdGDG8tnCyjH7odHZ0YGBiY8bgKTxGqvFwVMN9UeIowq2zmtzz6+vrR0zPz8tGnW7BgYaJlZQ0hRNRiUf53WVnp7FRM9psOAwBRHonGNLy6uxs/eGU/dncOZywINDY2weUytniP7lGARo4C5JulzfoW6dm+fbuhdj0eD+rqZiVSUlYQQkhFEa+VlpZUlpSU/Hu6r8cAQJSHYpqG9Xt78NAre7Ht+BDGo+l9Y0BRFLS2Grvz2rr1XV3HLW2u0PWuOOUGm1XBkiZ9AeCdd/T9jExavHgxhMjJBaSkEOINRRHzS0tLb514zz/9+FtFlMc0DXhjfy9+9Np+rH7rGI4PBNI2KrBsmbEVSTs6OtDVdWLG45x2K+cC5JHFjeUots+8Sl9HRwdOnDC2F8bFFye8Kq4phBAxRRGvaFq8says9PqSkhJ9i2SkCPcCICoQ/b4QfvfucQATk+suaq5ApccOa4pmTC9a1Aq73Y5IJKL7nM2bt6Cx8eMzHnfZ3Crs6RiCOVMcKVWEAC6do2/p6E2bthhq2+FwYP78CxIpK6OEEFIIHBZC/MDr9f4g1TP7jWAAICpA+0+MYP+JEQCAp8iGZbMrMbvajXKXI+FNh2w2GxYtWoQdO/TP2t6yZQvuvPOjM64jUOUtxrxZpTjSO5pYcZQV5teVosJTNONx4XAEW7e+Y6jtpUuXwGrVvx5FJgkBVQhlDyCekzL+o9LSsqz4QWYAICpw/vEo3jzYizcPTvx3sd2CuTUlaKxwo9Rlh6fICofNAosQmOnx6mWXXWooAPj9AWzd+g6uuebqGY+9ekENjvaOchQgRwkAV83Xt0DP5s1boKqqofYvu+yyBKpKKQkgpihiTEp0C4GDiqK8F4lE1lRWVqZuX+8UYgAgojOEInHs7RrG3q6p9xmxKgpcRRMfHe4i2xnbCEvNA3uxC5GQ/g/vdevW4+qrr5px8lZNiRMX1JXicE9W3DyRQfPrS3W90imlxIYNGwy1bbFYRlpbF3y8uLhI/5aBKRCJRHq8Xm9fpibtpRoDABEZEtM0jAUnnvNP/u/pnLVzEWnfrbu97u4eHDp0GAsWzLyWwI2L63Hs5BjimV7ogJJiUQSub63XdezevfvQ23vSUPvxeOxnlZWVxlID8S0AIkotb6PxldheeOFFXceVOu1YNrvScPtkrsvmVuve1+HFF18y3L6i4DeGTyIGACJKLbunHEXlxhZjOXTokO5tgq9tnQV3UXZO9qJzuYpsuPLCGl3HHjhwEEePHjPUvhBYv3r1an2bS9AZGACIKOXKWpYYPue5517QdZzDasGNi/UNJ5P5blnaAIdt5vf+AeD55/X9DJxOSvFdwycRAAYAIkoDV81sWItn3uv9dAcPHsLevft0HdvaUIaWam8ipVEGza0twfy6Ul3H7ty5E0eOHDXUvpQ4On/+3N8nUhsxABBROgiB0pbFhk978smnEI/rm8h92yVNKNJ5Z0mZV2y34oPLGnUdG4/HsXbts4avIYT83r/8y7+YtpBOrmMAIKK0KGlqhcVubCe/3t6TePvtTbqOdRfZ8KFLmhMpjTLgA8sadc/V+MMf3kBvr7Fd/wCcjMUiPzdcGP0RAwARpYWwWFE2Z6nh89aufQZ+f0DXsRfOKsESnTvLUeZcNLtS99C/z+fDs88+b/gaUor/fuqpp0KGT6Q/YgAgorQpmb0YFsfMS7+eTlVV/Pa3T+s+/talDagpnXlvecqM6pJirFyif5LmE088hWAwaPQyg/H4+M+MnkRnYgAgorQRFitKW4zv0LZ58xYcOnRI17FWi4KPXd7C+QBZoMhmwZ1XtMCmc/vmffv2G97yFwCEwL8/9dRT+oaJaFoMAESUVqUti2Fzlhg6R0qJX//6YYyPj+u7hsuOP1kxB5ZEdzKipFkUgY9d0YJSl0PX8aFQCI88sjqRS7WNjJT9OJET6UwMAESUVkKxoGLB5YbPGxwcwpo1T+g+vrHCjQ9cpG/WOaWWAPDBZU1ortL/6ufq1WswNDRk+FpSyr9/6aWHwoZPpHMwABBR2rlr56CoTN9qcKfbtGkzduzYqfv4Jc0VuGaBsVUIKXnXLpyFxU3luo9/9933DG/3e8qbjz+++neJnEjnYgAgovQTAlWLrwOE8Y+cX/3qNxgYGNR9/NULarHiAuNhgxJz2dwqXKlzm18A6O/vT3ToPyaE9qVETqSpMQAQUUY4vOUonW18caBQKIQf/vBHCIfP3XlwOtctqsMlLdw0KN0unVOFlUsadB8fjUbxk5/8DKFQIm/viW889thj+oeDaEYMAESUMeXzLze8RDAAnDjRjTVrHtd9vABwy0WNuJqPA9JmxQU1WLlUf+cPAI888ig6O7sSuVyH1Yp/T+REmh4DABFljGKxonrxNYAwPlv/7bc34ZVXXjN0zjULajknIMUEgOta63D9ojoY+S6++OJL2Lx5ayKXlJomH3zkkUfURE6m6TEAEFFGOaubUNK0MKFzn356raFJgcDEnIDbLmniK4IpYFEEbrukWff2vpO2bduOZ555LsGriu8/8cTqVxM8mc6DAYCIMq5i4ZWwufQtFXs6KSV+8Ytfoq2tzdB5S5oqsOrKuVwsKAlFNgs+cfU8Q7P9AeDo0WP45S9/DSllAlcVB2Ox8a8mcCLpwABARBmnWKyoWXYjhGL8IygcjuA733kIHR2dhs5rrvLggRsXYFYZlw02qqbEiT+9YT4aK9yGzuvqOoGHHvoBIhH9EzhPExEifh/X+08fBgAiMkVRaTUq5l+R0LmhUAjf/e73DO8g53Xa8alrLsBSbiCk27LZlbjvugt0r/A3qa+vH9/5zvcSWef/FPn3jz322LYETyYdGACIyDSlLUvhnjUnoXP9/gC+9a3vorf3pKHzbBYFH7q4CXde0YJiOx8JTMdhs+Ajl83GB5Y1wqpzbf9Jvb29+PrXvwmfz5fQtYUQT6xZs/qhhE4m3RgAiMg8QqD5wlYUFxcndPro6Ci+9rWvo7293fC5F9aV4rM3LcTcGm9C185n82pL8LmVC7GwoczwuZ2dXfj617+JsbGxRC9/SAjtwURPJv3OiL/Lli0rise1f0zHhaxFbpQ0LUhH00SUo4pDfXCNn4S3pASDg4MJTRSLRqPYtm0HLrzwApSXG+uw7FYLWhvLUVvqxIkhFZFY3PD184m7yIZbljbihkV1sFuNj44cPXoM3/72d6GqiQ77i2FNU25es+bRngQbIAMYAIjIFMWhPjiDE5/zNpsVHq8bQ0NDSGSyeDQaxdatW1FVVYX6ev170U8qdxdh6ewKxDWJvtFgQjXkMqui4PJ51fjYFS0JT5Lcvn0HfvjDHyMcTmyfHikhhRAffvzxR95LqAEyjAGAiDLu9M5/ksPhgMPuwMjISEJtapqGHTt2Qkpg/vwLDZ9vVRS0VHvR2liOQCiKYb++rYhzmRDAgvpS3Lm8BQvqyxJeK2H9+o34zW8eRjye+AiKEOhds+bRv064ATLManYBRFRYikO9cAannrhXWVWJcDiMEye6E2pbSonnn38BQ0NDuPfeT8Futxtuo9Rpx8euaMGgbxxbjvThwIkRaHk2JCAEMLemBNcsqEVNaeKvRYbDETz66Gps2ZLQCn9nS3jSACWGAYCIDLHE41iyfz+aOzvgUkMIFRejs7EBuxcvQtRqO++55+v8J9U31EPT4ujpMTa7/3SbNm1GV9cJ/PmffwFVVYltClTpLcIdl06seretbQB7u4YRjWkJ15QN7FYLFjWW4bK51Sh3G3ut72z9/f340Y9+knBYI/PxEQAR6WaPRPCh19ZhXlsbnKFxWGMxFI+Po7avH82dXTg+uxkx69T3FXo6/0lerxfRaDSJyWSAz+fDpk2bUVNTg1mzEt8PwOmwYm5tCS5uqYLTYUUgFEUwEku4PTNUeouw4oIa3H5pM+bXlaLYnty937vvvoeHHvoBhocTe1wzjcG9e3f/IJUN0vkxABCRLvZIFB9Ytw5Vg0NTfr0oHEZz1wkcb2pC1HbmSICRzh8AhBAoLS3FeDiMUDDxheBisRjee28benp60Nq6EDbb+UcozsdqUVBf7sIlc6owp8YLm0WBOh5DOEvfHPA67VjSVI6blzbiutY61Je7DL/Pf7bx8XGsWfME1q59BrFYykMQA0CG8REAEc1oovN/bdrOf5LX58Ntr76GF2+9BUHnxLNlo53/JCEE5s2bC4tiQX9/f0J1T9q2bTs6Ojpw//2fxsKFyd+I1JW5UFfmwsqlDegdUdHe50fnoB+9I0FE4+Y8JrBZFdSVudBQ4cLcmhLUljkN7dY3k3379uORRx7F0NBwClslMzEAENF56e38J50eAqQYS6jzP93slmYoFgUnDa74d7bBwSF861vfwaWXXoJ77/0UPB5PUu0BE1vjToaBq1GLuCbROxpE14AfXUMq+saCCIbT87jA6bCittSJhgo3mirdqC11pmXHw7ExH55+ei02b96S8rbJXAwARDQto53/pMkQ8NaVcxBN8lNGCIHm5iZYLZaUTDjbtm07Dh48hI997CO49tprYLGkbjlgiyLQUO5CQ7kLV576s3AsjpFAGCNqGCOBMIYDYajjUUTjGiIxDdG4hnA0hmh84k0Dm0XAYbPCZlFgtyqwWRS4i20oczlQ5nagzOVAubsIdmt6F3KNx+N4/fU38OyzzyEU4n48+YgBgIimlGjnP8nr8+GazW2nQkDyd8H1DfVwOBxoa2tPcGvZ96mqitWr12Ddug24886P4tJLL0m6vuk4rBbUljpRm8Trdpl24MBBPP74E+jpMbbZEuUWBgAiOkeynf+kVIeAyqpKFBU5cOjQkZRMQuvr68OPf/xTXHjhBfjIR+7A/Pnzk24zl+3ffwDPP/8Cjh49ZnYplAEMAER0hlR1/pNSHQLcHg9aFy/CwSPHEVFTs3bM4cNH8I1vfBvz5s3FHXfcjtbWhRAi9c/Ts5GUEnv37sPvf/8ijh1rM7scyiAGACL6o1R3/pNSGQKkUBCtXoSGmksxsOcN+HuOpqjKic1svvOd76G6uho33XQjrrnmKjgcyS2Yk62i0YlXJF9++WUO9RcoBgAiApC+zn9SKkKAFAr8njmI2jxQANRcvBKOkmoMHtwCyNS9ftff34/HH38Czz//ApYvvwJXXXUlmpubUta+mY4f78CmTZuxdes7CAYTX2iJch8DABGlvfOflEwIOL3zP13pnCUoKq9B386NiKqjqSwXqqpiw4aN2LBhI+rr67F8+eW49NJLUF1dndLrpFtfXx+2bduOd955F93d3GmXJjAAEBW4THX+kxIJAdN1/pOKSqvRdO1dGDq0FaPH9yEd+/l2d3dj7dpurF37DOrr63HxxRehtbUVc+a0pPRVwlSIxWJoa2vHvn37sXPnTg7x05QYAIgKWKY7/0lGQsBMnf8kYbGisvVqOKuaMLD3DUSDgVSWfIbu7m50d3fjhRdehMPhwPz58zFv3hzMnTsXzc1NGZ83EA6Hcfx4B44dO4ajR4/h8OEjCIfDGa2Bcg8DAFGBMqvzn6QnBOjt/E/nrGpE03WfwEjbTowc3QmppXet/nA4jN27d2P37t0AAIvFgtraiQ2I6upmoa6uDpWVFaioqIDb7U7qWn5/AENDQxgaGkJ3dw96enrQ29uLkyf7oGm5vVMhZR4DAFEBMrvzn3S+EJBI5z9JWKwov+AyuGpaMLD3LYyPJLeMsBHxeBzd3T1TPmt3OOzwekvg8bjhcrngcDjgPLVngs028XEcjU78PQSDQYyPj0NVgwgEAvD5xhAORzL2/4PyHwMAUYHJls5/0lQhIJnO/3QObwUarvoo1L4ODO7fjGgwNesGJCocjmBgYAADAwOm1pEom6sE0RStvUDmS+9i0kSUVbKt8580GQJsMWvKOv/TuWqa0XT9KlQuvAoWR1HK2i0UFocTla1Xo/n6u80uhVKIIwBEBSJbO/9JkyHgtZuuSmnnP0koFpTOWYKS5oXwdR3AyLFdiI2rKb9OPrHYi1E2Zym8sxdDsbC7yDf8jhIVgGzv/Cd5fT7csmETXrz1FgSd6dk8R1isKJm9BJ7GhfB1HsTY8T2IBn1puVausjlLUNqyBN6mBRBKdr3iSKnDAECU53Kl8580uZVwOkMAACgWK0pbFqO0ZRFCgz0Yad+D4EBnWtYQyBVFZbUobVkCd20LUCB7IRQyBgCiPJZrnf+kTIWACQLFlfUorqxHxD8Cf/ch+E8cRiwcSvN1s4O1yAVP/Tx4GhbA7i41uxzKIAYAojyVq53/pMyGgAl2TxkqFqxA+YVXIDTYBV/3EQT7u6DF8uv1O8Vmh6u6GZ66eXBWNfJuv0AxABDlIXskgg++th6VQ7nZ+U/y+nz44Gvr8PztH0LUasvYdYWiwFndDGd1M2RcQ2ioC4Hedqj9nYhHcnNkwOoohrO6Ge7aFhRXNEBY+BJYoWMAIMoz73f+g2aXkhKlY2NYsnc/ti+7yJTrC8v7YQBSIuwfRnDgBEJDJzA+0gctFjWlrpkIiw3OilkTjzcqGuDwlPFOn87AAECUR/Kt85/U1NVlWgA4gxBweCvg8FagbO5FpwLBCMKjJxEa6UPEN4xIYBgyw8vyCsUCu6cUDk8lispqUFRWA7ubHT6dHwMAUZ7I184fAIpDWTrsLgQc3nI4vOXwNrVO/JmUiAZ9iPiHEVF9iIUCiIb8iIX8iIdD0GJh4wFBKLDYi2B1FMFa7IG12ANbsRtWpxcObzlsxV529mQYAwBRHsjnzh8AVJfL7BL0EwI2VwlsrhJMV7WMRxGPjEOLRf+4WZEWjUACsNjsE80oFihWGyz2IghL5uY/UOFgACDKcfne+QPA8eYms0tIKWGxwVrMTp3MxWmgRDmsEDr/gcpK7Fu40OwyiPIORwCIctTEe/7rcv5Vv/MZKi/HqytvQtzC5WiJUo0jAEQ5KNcX+dFjqLwcL99yM8IOh9mlEOUlBgCiHMPOn4hSgQGAKIew8yeiVGEAIMoR7PyJKJUYAIhyADt/Iko1BgCiLMfOn4jSgQGAKIux8yeidGEAIMpS7PyJKJ0YAHKEpDAAABA1SURBVIiyEDt/Iko3BgCiLMPOn4gygQGAKIuw8yeiTGEAIMoS7PyJKJMYAIiyADt/Iso0BgAik7HzJyIzMAAQmYidPxGZhQGAyCTs/InITAwARCZg509EZmMAIMowdv5ElA0YAIgyiJ0/EWULq9kFEBUKeySCD762DpVD+dv5D1ZU4uVbViJit5tdChHNgCMARBlgjcVxy4bX87rzHyovxys338TOnyhHcASAKM2ElLj+rbdQ099ndilpwzt/otzDEQCiNGs9eBDNnZ1ml5E2vPMnyk0cASBKI48/gMu27zC7jLQZqijDyzdzwh9RLmIAIEqj5e+9B0s8bnYZacFhf6LcxkcARGlSPjKCxhMnzC4jLYYqyjjsT5TjOAJAlCZL9u2HkNLsMlKOd/5E+YEjAERpYItF0dyRfxP/eOdPlD84AkCUBo1d3bDGY2aXkVK88yfKLxwBIEqD2r78euefd/5E+YcjAERpUD04aHYJKTNYUYGXb7mZnT9RnuEIAFGKCSnh8fnMLiMlJu78OexPlI84AkCUYvZIBLZY7j//550/UX7jCABRilnzoPPnnT9R/uMIAFGKCeT2u/+88ycqDBwBIEqxmNVmdgkJY+dPVDgYAIhSLOywI2a1mF2GYRz2JyosDABEKSYhEHB7zC7DkMGKCrx0y63c1Y+ogDAAEKXBQEWF2SXoxjt/osLEAECUBr21NWaXoAvv/IkKFwMAURp0NTYirmT3rxfv/IkKW3Z/QhHlqLDdjhMNDWaXMS3e+RMRAwBRmuxtXWB2CVPinT8RAQwARGnTV12D3prsmgvAO38imsQAQJRGW5ZfAS1L5gLwzp+ITpcdn0xEeWqktBS7Fy82uwze+RPRORgAiNJs50VLTX0UwOV9iWgqDABEaaYJgfU33ojhsrKMX5vD/kQ0HQYAogyI2G14beVNGCktzdg1+2qqOexPRNNiACDKENXpxIsfuBUnM7BK4PHZzXhlJYf9iWh6DABEGRR2OPDyLbdg59Kl0BSR8vZjVgu2XHEFNlx3XU7uSEhEmWM1uwCiQqMJge3LLkJ7czNWvPMOZvX1Jd2mFAIdjY1457LLEHC7UlAlEeU7BgAik4yUleKlD9yKmv4+LN53AI3dPVC0uKE2YhYrOpqbsGdRqymTDIkodzEAEJmsr7oGfdU1cITDaOzuxqzek6gcHoLX54clfmYgiFpt8JW40V9Zjd6aGpyor0fMxl9jIjKOnxxEWSLscODonDk4OmcOAEBICXs0ClskCimAqM3GSX1ElDIMAERZSgqBsN2OMDt9IkoDvgVARERUgBgAiIiIChADABERUQFiACAiIipADABEREQFiAGAiIioADEAEBERFSAGACIiogLEAEBERFSAGACIiIgKEAMAERFRAWIAICIiKkAMAERERAWIAYCIiKgAMQAQEREVIAYAIiKiAsQAQEREVIAYAIiIiAoQAwAREVEBYgAgIiIqQAwAREREBYgBgIiIqAAxABARERUgBgAiIqICxABARERUgBgAiIiIChADABERUQFiACAiIipADABEREQFiAGAiIioAFkzdaHwaD+OvfyLTF2OiIhSTJhdAKVUxgIAICHjscxdjoiIUkqaXQClFB8BEBERFSAGACIiogLEAEBERFSAGACIiIgKEAMAERFRAWIAICIiKkAMAERERAWIAYCIiKgAMQAQEREVIAYAIiKiAsQAQEREVIAYAIiIiAoQAwAREVEBYgAgIiIqQAwAREREBYgBgIiIqAAxABARERUgBgAiIqICxABARERUgBgAiIiICpA4/T/a29tLvd6SdrOKISKiwiWEsqa8vPQvzK6jUFhP/4/S0lJIiVKziiEiosIlpXSaXUMh4SMAIiKiAsQAQEREVIAYAIiIiAoQAwAREVEBYgAgIiIqQAwAREREBYgBgIiIqAAxABARERUgBgAiIqICxABARERUgBgAiIiIChADABERUQGyznwIEU1FSolIJIxwOAJNi0PTNAACFosCi8UCu90Bu91udplERFNiACAyKBaLwe/3YXx8/FSnPz2LxYLiYic8Hg8UhQNuRJQ9GACIdNI0DWNjYwiFgpBS6jonHo8jEPAjGFThdnvgdrshhEhzpUREM2MAINIhFothaGgIsVg0ofM1TYPPN4ZwOIzy8nKOBhCR6fgpRDSDSCSCgYH+hDv/04XD4xgYGICmxVNQGRFR4hgAiM4jHo9jaGhoxmf9RsRiUQwNDel+jEBElA4MAETTkFJiaGgwLXfrkUgEY2OjKW+XiEgvBgCiaQSDQUSjyQ/7T0dV1bS2T0R0PgwARFOQUsLnG0v7dTJxDSKiqTAAEE0hFAql9Ln/dMbHxxGLxdJ+HSKiszEAEE0hFApl7Frj4+MZuxYR0SQGAKKzSCkRDmeuU2YAICIzMAAQnUVKmdFX9OJxPgIgosxjACA6S6afyXMOABGZgQGA6CyZmPx3Ni4KRESZxgBAdBaLxZLR6wkhuEEQEWUcAwDRWTK9UY/Fwj25iCjzGACIzmKxWDIaAqzWzI44EBEBDABEUyoqKsrLaxERTWIAIJpCcXFxxq5VVJS5axERTWIAIJqCw1EEqzX9z+aLi50Zn3RIRAQwABBNSQgBj8eb9mt4vem9BhHRdBgAiKbhdDrhcDjS1r7b7c7IKAMR0VQYAIjOo7y8Ii2dtMNRlPYRBiKi82EAIDoPRVFQUVGZ0tcC7XY7KioquPgPEZmKAYBoBlarFTU1tbDZ7Em3VVxcjMrKKnb+RGS6MwJALBaLm1UIUTZTFAVVVVXwer0Jdd6W/9fe/bzIfddxHH+/vzuzO7vZ7M53JrvGREsVmhCLiqWHYNU2ggUNFLGoEKgI6gqiCJ5KEaql4kEPWlr10qKt9CIK5paDsdJY8FA9mCLxIpV265qd73x3k9hJdub79uJKmu4mOzs/3jP7fj7+gTwP2ZnXfOf7nc/EhKRpTWo1PvkD20kS4T1oiN7y5eaBAweuNJu5iQivUMANNp8M2LdvVi5duiSt1pu3PMlvcnJSpqenZd++Wd74gVsoCln3bojkLQNAVYssay6LyGGnHmDkJUki8/PzMj8/LxsbG7KxcU3a7Y4URUdUVZIkkYmJkkxNTfGMP9AVfd27IJItbm+28yLKAAB2oFwuS7lc9s4A9gTV4m/eDZFsdRPgi0OvAABE10mS5CXviEi2GgC/HXoFACC6P1ar1aZ3RCRvGwC1Wu28iLzs0AIACMpMfuHdEM02vwNgPxxuBgAgsNfX1/PnvSOi2fK5JDNLsiz/k6rcPewgAEAsZvrler36tHdHNFteAVDVIklkScRaww4CAITyh1pt/hnviIi2/SngNE3/oqpfHWYMACAOVVnpdNqnVNW8WyK66VkAaZo+ayY/GlYMACCMdVU9ubCwsOwdEtUtDwOq1arfMpMnhhEDAAjhn0miJ6rVKk+cOdrxj5NnWb4kUvxYRCuDDAIA7Gm/L5dLn9+/f/9F75DoujqdZG1t7Y5Op/OkiN4/qCAAwJ7UVJXvVKvVn6jqzU/RwlDs6niyLMs+qqrfMJMHRGSqz00AgD3DLogkz5h1flav1zntb4T0dD5po9GYS5LkPjM9bmZHVeWAiOzrUxuctVqt6VarNe3dgb1rZmbm8uTk5DXvDvSHmZiqZSLyqqr+tSiKs/V6/RXvLmyNA8qxrZfOnTt39dq1e7w7sHdNz8w8dvz48Ue9O4CIbvkUAAAA2HsYAAAABMQAAAAgIAYAAAABMQAAAAiIAQAAQEAMAAAAAmIAAAAQEAMAAICAGAAAAATEAAAAIKCSdwBGV3lq6u+lyUnOAsDAqOqr3g1AVAwAbKtSqSx7N2DP+7d3ABAVXwEAABAQAwAAgIAYAAAABMQAAAAgIAYAAAABMQAAAAiIAQAAQEAMAAAAAmIAAAAQEAMAAICAGAAAAATEAAAAICAGAAAAATEAAAAIiAEAAEBADAAAAAJiAAAAEBADAACAgBgAAAAExAAAACAgBgAAAAExAAAACIgBAABAQAwAAAACYgAAABAQAwAAgIAYAAAABMQAAAAgIAYAAAABMQAAAAiIAQAAQEAMAAAAAmIAAAAQEAMAAICAGAAAAATEAAAAICAGAAAAATEAAAAIiAEAAEBADAAAAAJiAAAAEBADAACAgBgAAAAExAAAACAgBgAAAAExAAAACIgBAABAQAwAAAACUu8AbM/MprIsu0tk4n2qxRERPSIi7xaxWRGdFZGZIWTwfwSDZEP4N9ZF5IqIXRJJ/mFmF1Ttgoi8kqbpeVUthtAAjBxe3EdMs9n8oJmdVNUTZnKPiEx7NwF7WENVXjCzs2Z2ul6vv+YdBAwLA2AEXLx48Z1JUjqlKl8QkQ949wBBFapyVkSeu3r16q8PHjx4xTsIGCQGgKM8z9/b6dg3VW1JRCvePQD+b13EfloqlX4wNzfX8I4BBoEB4CDP8/cURfF9Ef2scCMmMMoui9hTnU7newsLC5e8Y4B+YgAMkZmV8zz/mpk8LiKz3j0AduwNVXk4TdNnvUOAfmEADEme53cXRfFLET3q3QJgt+xMu93+4uLi4r+8S4BeMQCGIMvyJRF7QkSmvFsA9OyiWfJQvT5/xjsE6AUDYICWl5dnpqamn1OVz3i3AOirQlUeTdP0ce8QYLcYAAOS53laFHZaRD7i3QJgMMzk57Va9Suq2vZuAbrFABiA1dXVw0kycUZE7vRuATBYZvKbWq16SlWvercA3WAA9Nn6+nq93S5eFLFj3i0AhuZ0mlYf5EoAxgnPoPfR8vLyTLvdOc2bPxDOA81m8ynvCKAbDIA+MbOkUpn5lYh82LsFgAddajab3/auAHaKAdAneZ4/ImKf8u4A4MdMvtto5J/w7gB2gnsA+qDZbH7MTH4nIiXvFgC+VGWl3W5/aGFh4Q3vFuBmuALQo0ajMWcmzwtv/gBExEzeMTFRftq7A7gVBkDPksdE5LB3BYBRYp9sNPIHvSuAm+ErgB5kWfZ+Ef2z8OkfwNu91m5vHFtcXLzsHQJshSsAPdEnhTd/AFt7V6k0+bB3BLAdrgDsUrPZvNdMXvDuADDS1pNEb69Wq03vEOBGXAHYJTN7xLsBwMibM7Ove0cAW+EKwC7keX5XUdjL3h0AxkKj1XrztkOHDv3HOwS4HlcAdqEo5EveDQDGRr1SqXzaOwK4EQOgS2Y2KWKf8+4AME6Sh7wLgBsxALqU5/lJETng3QFgnNj9q6ur/F4IRgoDoEtmwqU8AN1KkqR00jsCuB4DoHv3eQcAGEsnvAOA6zEAurC2tnaHiNzm3QFg/JjZx82MJ68wMhgAXWi37V7vBgDjSVUWsyw75t0BbGIAdMXu9C4AMM4meA3ByGAAdEFVj3o3ABhfqsUR7wZgEwOgK8YAANADPkRgdDAAduh/N+9wAyCAXtzuHQBsYgDs0MrKyoxw9C+A3sx5BwCbGAA7pDo7690AYOzt9w4ANjEAdqhS6fCHC6BXXAHAyOBHKXbIzCbW1tb44wWwa2ZmaZrm3h0AAAAAAAAAAADYs/4LrhjuMNZSMssAAAAASUVORK5CYII=;fixedWidth=0;" vertex="1" parent="1">
          <mxGeometry x="40" y="40" width="120" height="120" as="geometry" />
        </mxCell>
        <mxCell id="-tSm10FkZ4Ool6qzO1sV-6" value="" style="shape=image;verticalLabelPosition=bottom;labelBackgroundColor=default;verticalAlign=top;aspect=fixed;imageAspect=0;image=data:image/png,iVBORw0KGgoAAAANSUhEUgAAAgAAAAIACAYAAAD0eNT6AAAABHNCSVQICAgIfAhkiAAAAAlwSFlzAAAOxAAADsQBlSsOGwAAABl0RVh0U29mdHdhcmUAd3d3Lmlua3NjYXBlLm9yZ5vuPBoAACAASURBVHic7N15nFxllfj/z7m3tl7T2TsbCSFhGUCBIMgSBHWULSCE4Hz9ijrjIG4IjvMTSGCmnRFFZxzAleA4i37dwJ3NlbCENRsgyBIIgYTsSXd6q67l3vP7o9PQJN1JL1X13Ko675fRmE7f56S66p5znxWMMcYYY4wxxhhjjDHGGGOMMcYYY4wxxhhjjDHGGGOMMcYYY4wxxhhjjDHGGGOMMcYYY4wxxhhjjDHGGGOMMcYYY4wxxhgzPOI6gMGotnisbzuIGLOAcYjWE0odoo29f0Ha8bQLlU5gF3nWM6vpVZGW0GXcxhhjKpO2tHic+MRB5POzEB2HJ/WgdYT05iWPdpAuQu1EZRex2HoeO+ZVaYlmXopEAaC6yGfj9HkQngHePNBDQQ8DSQ3zUmngBZAXIFwF3jKmb1wlcntQjLiNMcZUJr1tkU9Neh6iZ+B581A9FDgMGFleEnmBMFyFyjLSNavkYvd5yVkBoJs+N4F8eDHomQinAWOK1NRuhPsJ+S1e7jaZ/q2dRWrHGGNMGdM7FkxAuBjRM0FOAy1SXpLdiN4P+lt6ErfJhb90kpdKWgDoMy0Jmna/l5BLQM8HEqVsHwhQluHpD1DvdplxY7rE7RtjjIkQvW1Rgvr0e0EuQR3lJViG8AM6a26Xi28vWV4qSQGgay9vpMb/FMqVwKRStDkE20BupCf/bZn7jXbXwRhjjCkdvfusRtT/FEQwL0n+23L2PUXPS0UtAHTjp8ZD/AqUy4GmYrY1ctIKfAO4WWbcuMt1NMYYY4pHf3HBeBL5KxCNcF6iFdFv4OVvljN/V7S8VJQCQBXhtSsuQeVrwIRitFEEbSAtTN/4TZs0aIwxlUUV4Z5zL0Eps7xEC1013yzGpMGCFwD62j8cSxh8G+Tthb52SSirEf2kzLj5MdehGGOMGT29+7xj0fDbQHnmJWE1Gn5Szrm7oHmpYAWAakuMjbu/CPqPgF+o6zoSgP4b08deJ9KSdx2MMcaY4dNlp8dIN3wRrZS8xL9R23mdnHFfQfJSQQoA3Xj5dPB/jHJqIa4XIY+T5/1y8E3rXQdijDFm6PTus6YT+j9GKjAvebH3y1m/Wj/aC3mjvYBu+MzZqP9EBSZ/gBOIsUI3fPZM14EYY4wZGr3n3LPBf6ICkz/ACYT5FXrX2aPOS6MqAPTVKz8C3q+B8aMNJMImgN6pG6+4zHUgxhhj9k/vWvARQn6NVnpe8u7UuxaMKi+NuADQDVdchfBfQGw0AZQJH5VbdMNnb3AdiDHGmIHpnedcBVo9eQm9Re9eMOK8NOw5AKoIG6+8Gbh8pI2WN/k602+8UgR1HYkxxpi+JX4Lbka1SvMSX+fsO4edl4bfA7Dxs1+mapM/gH6GjVd8yXUUxhhj9rhnwZerOPkDfIa7zx12XhpWD4C+euWnEL453EYqkvI5Oeim/3AdhjHGVDO969xPgeWlPT4n59w55Lw05AJAN1zxQZDvD+d7KlwIconMuPFHrgMxxphqpHee80HE8lI/vXnpnDuGlJeG9KLphiveAvIoUDOq0CpPBp+TZepNq10HYowx1UTvOe8thKHlpX1lCOVkWXDHAfPSAecA6LZP1oPchr3IA0kS8FNde3mj60CMMaZa6LJF9YSh5aWBJRH9qd591gHz0oEnAWbiS4HDChFVhZpD0v+u6yCMMaZqdKctL+2PMAf1DpiX9lsA6KtX/h3IBwoXVYUSLu7dFMkYY0wx6d3n/B1geemA5GK9a8FH9vs3BvuCbvjsONDnKZ9jE13bie8fLlO/tsN1IMYYU4n0t+8dRxC3vDRUwk4COVwW3DFgXtpfD8BXsRd5OMaTD77oOghjjKlYQczy0nAo4/HCQfPSgD0AuuGzJ4A+QgEOC6oyIcKpMv2mR1wHYowxlUTvOPcEPCwvDV9IyKmy4M598tJgL+SN+/maGZyH8hXXQRhjTMXxLC+NkIc3cF7a58XUjf9wBujJxY+pYs3XV684zXUQxhhTKfTOc84ALC+N3Hy96+x98tK+1ZTqkpKEU8lE7DU0xpiCsXvq6Hn7vIZvmgOgG644cc+Of2a0vPAUmfb1h12HYYwx5UzvOvtE8CwvFYLqKXLuXa/npb16AKSaT1MqrND7uOsQjDGm7KlnealQRN6Ul17vAdBtn6wnk9gM1Jc8qMrURTLbLJO+3ek6EGMAFq28akyosXeHwvEgs0V03I41YYMGrEdlnaArM9nkHx/7TEu761iNgT1b/nalNyOWlwqki9qaZjnj9k6A2Ot/3JO4KLIvssTAbwRqwNsTsuZB0xC09/4+euq6ePf3Nrd9ww4K2kPQXaDr/Fzs8YkTpcN1PNVi4crrTlSCfwyQ8xASvVW/9v4nEIATEVCERDKbOW3p4t9oKP/+4Ceuf9xp4FXkuee0oTueP0FUZovKONfxRMX27f81b2L3r6OZl3wPapKQTPT+HiAIIJODdAaC0G18A6sjnb4Q+D707wHYcMW9IGc4C2sfPsSnQGwieE0gg2xaqApBKwTbIbcFCEoa5f5k/bm01tlIwAAyIH9Cwl/mGvwfzhBJuw6oEi16vKU58PM3ovo3g/2d7at0sC8poj/Jinz2sUu/tLU4EVa3hzdoTU0m+CDqXQD6TiDpOqaombPxWuq7/+w6jDd4AmMbobEOGmoYfDNdhc4e2N0JrR0QRqgYUP4k5975btgTvW763ASCYCtRWGMpArGpED8YvMTwvlezkHkZ8puAQW9sJSRsb/gXQql1HUhkibCRkH+dNMb7nohEp3orcxetumZ+qN5tQPP+/t5+CoA+mxW5ePll1y8vWHBVTlW9J14MFiLyVZRZruOJqljQzlHrPtT7kOecwPhGmDwOYv7wvjWfh62tsKs9Iv8WQvzcRDnzd7t6E34YnE4kkn8KUvMgedjwkz+AJCB1GNTMA4lCMa3E8y+5DiLSVJmuwtIt7cGyzR060XU8leB9KxafFar3Ow6Q/IdoiqB/PO3Wa84rwLWq3pMv6qQnXgweALnNkv/+1aefjkbCjMdg7nSYNnH4yR8gFuv93jnTe6/lnkc+dnrvb3q9010se/iNUHv8nrH+CF1rlBLBWtchlAVB5ksYPr51l77FdSzlbOHK6070RH5BYc9JT6rKT99x69VvK+A1q86qdfqWUMPHQU5xHUs5qO96ynUIUJvqTf41BXigrEnCnBmFudZoibwT+goAdVwAeLWQOqb3Cb5QJNl7Ta+ucNccgURgPQDDMEv98N6tbTrbdSDlaNHKqw5Sgl8AqSJcPqXq/fK0by2ZUYRrV7zV63SmF4R/AGa6jqVcNHQ7LgCScTh4au8TfKHEfThkWu/EQaf0DABP110xGTjMWRwSh9Rbe2f6F/zaMUgd3duGI7FgK57aSsBhGK9e+Itt2zSaM38jasHKlgkBsd+CTC1WGwrTNKZ/OvG7iycXq41K9MwzWi/58DfAJNexlItYvo1k7jV3Afh+b/L3izAy7nkwq7k41x4yOULvPmuiR1yOcBgFJOeCV8jeyr14tb1tOKPEAptEPSzKW8Nk+GXXYZSLsx5taUyQ+y1Qis/y3ETIHad87/MNJWirImQT4VcQbGhrGFLZDW4DmDYBEkV8cEwmYKrTKU+CyhEeou6e/r16iBVintIBxJrBc3e/8sMdztouY5dt260uK7eysGjlVWNq/PxvFeaVsNm3eUHsnhO/3uJ+kk3EPfGSHgpc6jqOcpPMbXLXeE0SxpQgXzQ1QK3L+QD+oR7Ioc7aT84pYVsHl66tvcR0m7O2y1g8JGxxHUSUvW9NS1OA/ztETyp548opiWTu3nd985rxJW+7nAThFwB3Y5BlKpV12P3fPG7w5f2FJPQuK3RFwsM81NH4v5cAv4T/eH+8s7kAfmAFwAgt3L5drat5AOc9uniyH+SWgZzoLgqdl43L70/+TouNbQ/gmWe0HuF9ruMoR0lXBUDMh/oSThyvrxvZ0sJCUDnMQ6QEffAD8CeUuEGBWKnb7GWTAEcsGcaCv3YdRNQsXHH17FhMHlQ4xnUswHG+l33ktFuuteGavWQTwVlanBUZFS8WtLlpuLGuNE//fQRocLZSrdlDHT1h+Q56Dl20CYj2OGm3EqjIWa5jiJKFq5ccr+I/AkQp4c4OJXzw1O9eXcp5CJGnyJmuYyhXfuhod/AGB7u2NjorABo8wE0B4DlY5eWiTcAj46TdiiB6lOsQouKCVdeeqSHLiOByMoHJEnrLTlt69XtcxxIVonq06xjKlRc4KgBcbNKTcrYngMsCwME/upAbDQ2nWbUCYORkiusIomDhqiUfE9XfEO3juhsU7+5Tb1l8letAokBdDa9WAD/sdtNwITf9Gaq4ozkA0BCjsFuGDoODTRDEzQstmnXSboWIcsIrutOXtcTGNeZuVOXTrmMZIl+EG+bfsuSQbtn+qVWX3ZpzHZArAnYK2AgJju6Zg506W9Q2nW0IVOcBjvpaHByPqG4Om1NbBTRiEoVDqhy54LFrxo9ryP2e8kn+bxC9tJYJ91b5CoGqfe+OluKoW9zF4UPq7Kjgbg/ocNJ06KDCc/Qkrp5NBDbDc/7K644W31sBnOE6llE41feyD59y63VHug7ElJfAc9R5ks+Xvs2cs1PQ2x0WAA6WxrloEwiJwOlPpmwsXLX4gz7hI4C73asK5xBPgxWn3XLNR10HYspH6DsamU47mK/V42yIuCOG0lnSdY99gp0QK/FeyMHO0ra3h4r1AJgD+8iyllRHQ+4rqnzGdSwFVqMi/zl/6ZJ35Lu6L3vkH250NOxoykXoqte0oxvGlHjaUXtXadt7Q4eH6BYnTQel3h9fIe9mT/5QqnoemxmCC1cvmdnekLtfqbjk349eEqurfejkpdce4joSE205v8lNw+1dUMppAAp0OCsAtnoozztpOsxCvoRP5MEuUDcTkgPf6alPJuIuXHHteRKyBjjBdSzFp8f6hKvn33LNRa4jMdGVSUxz03A+gM4SLkHs7O5t0wWV52N4PF/Siqe/7EsQK9HufJl1pWlnAHmx49PNvj6yrCW1uyF7A+hntLQbkLrWiMht85cuvqk+03HNPZ/5hm2UYd6kJzHdXeNbdkJ9bfE/kQpsdTMsDYDwnIeKmx4A6J2Ul99a/HbyWyB0M9cRIPDcnEFgomvh49cd2dGQe0SQK6iu5N9HgM92JutXnXzr4iicaWAiJBOf6q7xdAZ2lyBftHVAt8vaN3jBI6fPOowAMi9AMfd9Drshs7Z41x+CvG89AGYPRRauvPYK9cJVETnMxzE50lceOfWWxVfR0mLr5g0APYkZbgN4bQdkizhknMnCpu3Fu/5QiD7ryeybtwIvOAtCc5B+ErQY6y8D6Pmzs7F/gLw32SYBGgAWPd7SvHD1krsUvQlsbWg/KRFumD8l+/vTv/t5h32/JirysSZ38wAAggDWb4agCJv0BCGs31Kcaw/ds3L2Pdt7K27Ve11GgnZD+onCbtSjWUivgdDZDEsAsrE5Tts30bBw1eKLQy/3F1XsdMPBvSsIY38+beniD7gOxLjXUeP4LKWeLLy8qbCbA+XzvdfMON8e/l7o26rSw20BABC2Q/eKwozVBx291wraR3+tUcr6UTq11ZTaoodbxl2w4tofqMpPFca6jqcMNCn8cP7SJf9z6revtterinXWvsV1CNDdA2s3FmasPt13rQgcD7/nob+3APDD+3CyOf9eNAPplb3zAkbSbR9mIfM89KzsvZZzQi5mS56r1cJVSxYEidxTIvpB17GUH/0wvvesLResXp21R7k5nGdvuTy8uBFe2z6yJXv5ADZuh7Wv9V7LvZBY/j7oN/tYN1y5DDjdUUAD8CE+BWITwB/L4BOlFYLW3k1+cpsBZ/sq7yPrz6W17uOuwyhrAq2Tx/jjXMcxHOc9unhyPCbfUFjkOpYD2b7K1RrgYVC5M698/JFPXP+a61CGY83aYBfW6zMqczYuob77addhvMH3YGwjNNZBXWrwAkUVunpgdye0tkMYoc+Z8ic59853A7xx+LHK9xE93VVM+wogt7H3l8TBbwSpAfw3vq7dvd39Dif57U8+PvMuESL07h05VVLAFa7jiLoLVi5ZJPAdhRJtcFEFRM+NCU+funTJVcs/dv13EWc7l5QH4WZVItDPPHpdqcOOru9++mzXcbwuCGFHW+8v34PaFCTivb/v+3om19vd73aS337oD/p+90YPwNrLG0n5m7EzrAuli1Riikz8qrsNCArolTYdm5RwV6nbLZcegPetuXqWBP5Sgfe4jmU4yqIHoD/ld0FMLnv4769/xXUoB+KqB8BPeOPeMlNaS91uMejdZzWilpcKqIu8N0XO/00H9DuvWuZ+ox30V+7iqjTyy0pJ/mY/FFm4asnHvMB/qtySf1kS3usH+pdTb1l81aLbFvkH/gZTzuTse9oBy0sFI7/sS/7QrwDY4+sljqZyecF3XIdgiuvClYuPu3DVkodVWQo0uI6nitSKcMOW1rkPzl+6+DjXwZhiCy0vFYqGb8pLbyoAZMbNj0EElgSWO+EPMu3rD7sOwxTHOU9dPXbhyiU3gzwOvN11PFXsJGDF/KVLvn/60hbbb7tCyTl3W14qCP2DnHvXm/LSvltvCteXLJ5KpWKvYQVq0RbvglXXXprM+i/sOba3rLugY6JIWf8LAPBALwnIPjt/6eK/t+2EK5TYPXXUxNvnNdznwyLTb7oXeKQkAVUiYbnMuPF+12GYwrpw5eLjnlqZXy6qtwJl/7RZE1PmTcww9nDBr4xNiScA350/JbvilO8usV6ZCiNn33EvYnlpxJTlcvYd++SlQapluZIobAxUfkLg866DMIWz6OGWca9394ue5DqeQhgTD5k3oYe6WIifgrGHC/HKmcFwnBfqw/OXLvn+/P+6ZqLrYEwBBVheGpkQHTgvDVgAyIwbHwf+p5gRVSb5nky/yarUCtCiLd4FKxZ/KEjknquE7v4+k1IBx07oIeG9sfxPYtA0R0iNi8Cua4UhoJeQk+dPu3XxFbZaoDLIgjsfRy0vDZvyPVlw54B5afDxMsl9HthRrJgq0C58b7HrIMzoXbR68bueWpVbKSL/C1TEU6QIzGnMcuS4DN5Aed6DhoOhzuEBbEUwVpWbtrTOffwdSxef4ToYUwDZuOWl4dmFyqB5adACQKZ/ayfo1cWJqQKp/KNM/Zq9McvYBauuPWLhyiW3haH8ETjWdTyFEvOUt47LcFB9ftANtfvUNgtj5goSO8BfLC/HhXDv/KXX/GH+dxdH4IQZM1Jy4S93omJ5aej+URbcMWheOmCfn2644ocgdjznfsntMuPGi11HUUyVvBPgeatbpsaC3D8jfJQK6ervUx8LOXpchprYwDv+3btp4A3WggzsfkkJ0sWMzokQ5IegVz142Zc2F7Mh2wmwePSuc38IWF7aH5Hb5ew79puXDrxkJpX8OPB8oWKqQC+STVzqOggzfOct/3zDhSuv/ZdYmHsB4WNUWPKflAo4fmLPoMl/f/wkjD1MSFbeUTYe6CXA2vm3LPnC6d9qqXcdkBmBvGd5aX+UF4mnD5iXhjTrRzdc8RaQR4GaUQdWWTL4nCxTb1rtOpBiq6QegNOXtcTGN+b+TpUvAM2FvHYUeMCcMTmm1x34kKzBegD6S2+Hzo1aqfOvd4jwRW9T4lv3tbQU9KxW6wEoLr3nvLcQhpaX9pUhlJNlwR0HzEtD2jRDZtz8FMJlYKdw9aPAR6sh+VeShSuufff4htzqPdv3VlzyT/nKsRN6hpT8h6pmYm9vQIXsF7C3CarcFEzJPn3q0iWRP77ZvEHO+s1TIJaX3kwRPjqU5A9D7AF4/cobrvg0yDdGFleFUT4nB930H67DKJVy7wG4YPU1JxH6XxF0fiHiiqJJqTyHN2WJDWMvvKH0APTRADrWQ6atou+39yt61fLLvvzYaC9kPQCloXef+2kUy0u9Pifn3DnkvDTshb+64bNfBf3/hvt9lUW+IjNurKqZqOVaALxvxZITfI8WVc4qZFxR4gGHjMkyo274PdjDKQD6pLcpXRtBK7oO4K5QpeWhj1+/cqQXsAKgdPSuc78KVHdeEvmKnH3HsPLS8AsARXjtim+i8snhfm9FEP02027+tEh1dTuVWwGwcNXit6ByrcJFjOB9Xi7qYiFHjs1SHx/ZAP1ICgCAIA3tLyv5ylslsBf9Y6jeNSMpBKwAKB1VhLvP+SZUaV5Cv83Zdw07L434xqgbrrgK5IaRfn95qr4n/z7lUgCcv/K6o2OE11V64gdors1z2Jgcvoy8Fh1pAQC9PQBdG5X0thFfoozoH9XTq5dfesOqoX6HFQClp3eecxVSZXlpBE/+r3/raNrVVz/7t4jeClTWtiH7ChD5tEy/8RbXgbgS9QLgghWLj/JE/qkaEn/cU44Ym2VCMhj1tUZTAPTJtkPHeiUs3LzDqFJU7kL0nx+87EsHnGRlBYAbete5fwtUR16CT8s5d444L436RqkbrzgXlf8FirpZi0M7IfyQzPj63a4DcSmqBcAFKxYfJcI/gyykwhM/wPhUwBFjsiT8woxAFaIAAAhzSsf63mKgCoQCPw/E/8JDH/vXZwb7S1YAuKN3LTgXtHLzkrAT4UNy1p2jyksFuWHqa/8wgyD8McIphbhehKwgyL9fZn3zZdeBuBa1AuCCVdceIeg1KB+gwjbwGYjvKXMbc0ypPfB2vsNRqAKgT3p777CAVuaeAXsLUblbyV+7/ONfeXLvL1oB4Jb+7vwZ5PM/BqnAvCTvl/PuGHVeKti9RFd+LM7kuutBP8cQ9xeIsBD4d6Y3LREp7OYg5SoqBcAFq697K2F4lcD7Kf/32ZCMS4Yc0ZQhWaCn/v4KXQAAhBnoeFWrpTcAIFD4qYd/wwOX/euf+/7QCgD3dOW8OFunXA9UTl6q7VwiZ9xXkLxU8C5T3XTlcQR8Gzix0NcuDV2D+J+U6f/xqOtIosR1AXDByiWnenCVwjlUQVc/gC/KIY15ptXlivYPLkYB0KfKegN6CQ9pKF9Z/vHr77ACIDr0jgXH4fFt0DLNS6xB5JNy9h0FzUsFr4hk6k2rmd50MqIfBnYW+vpF1AZyJdM3vc2SfzQoyhNdz8YvXHHtwwIPKpxLlST/MYmQEyb17uhXrv/gmokw7q+ERKPrSEpIOUVEfzN/6eJVj2xandCqqn6iSxbcsZoV805G+DBSbnmJK+mqeVuhkz8U+Waqmz43gTC8AtXLgTHFbGsU2hC+Abmbe49ANgMpZQ9AXvM82vEkf2p9iK3Z6jphOSbKnDGFH+sfTDF7APpLb4eu1xQd/cKFsjK5dgLvPOhU3tb8VmJeaSalWw/A/ukdCybg6RUgl4NGNy+pfINs7Ga58JdFy0slebjQl64aQzzzaYQrgQmlaHMIdiByI5nEt+SQr+x2HUzUlaIA6AkzPNK+hj+0LqctXz0DyH0mpAIOG5Mj6ZfuqbFUBQD0rhTo2ij07KqqPbQAaEjUceq0E3jH9JOojRf37BorAIZG//DuMWRqPo1oxPKS3kg88y356z8WPS+VtHdR116epDb2HkIuAT0fSJSyfSBAWYanP8BL/0ym3tpd4vbLVjELgI6giwfaHmdZ26N0hxW/tdw+kp4ytynHpFTp55uWsgDok92tdL4KQbbkTTuX8pOcOOVY3jXzVJqSxXn4tAJgePTus5LgvwfkEtRRXoJlCD8gkJ/JgjtKlpecDS/q5ssnkvMvRuRM0NOAYo0UtqPcD/JbYt5tMvVr1dWnXCDFKAC253ZxX9ujLG9fRa4KdpEZyNTaPHMah3eATyG5KAAANITuzUr3FifNOxcTn2MnH817Zp3G5NqJBb22FQAjp3efNRH1LwbOBIqbl+B+VH6LcpssuMNJXorE/CLVlhivtR8P4RmozAM9DJgLDPcA0gzwAsgLiK5C9V6mj11lS/lGr5AFwIvp9dzb9ghPdj6HVteRCq9riIcc3pSlYYR7+BeKqwKgT767dwOhyj9TYGCeCEdPOILTDzqJQ8bMKsg1rQAoDF12eox0w/GongHMA0aRl+QF0BeAVRDeS233qkIt5RuNSBQAA1Fd5PPq9Jn4MhOCCYRePaL1iDTs+QsdqHTihZ3g7yCfXc/MCa+ItNi02yIYbQGQ1zyrOp7m3rZH2ZDZVMjQykpc4ODGLNNq80gEPn2uCwAAFNLbla5NVN0kwf5mNEzlHdNP4rjJR41qwqAVAMWjty3yqe2eCcwEJiBSj2o9Hr15KaQDkU5UO4EdhN56Vs97RVqimZcicAsy5WCkBUB7vpNHO9ZwX9tjVTmxr48Ak2vzzGnMkfCi0+sRiQJgD81D12alZ3vFHzW8Xw2JOt4+5TjmTz9xRPMErAAwQ2UFgBmS4RYAGzKbebBtBY91Plm14/t9GuIhhzZlGeO4u38gUSoA+uS7eycJ5rpcR+JWTHyOnng4Z8w4mVljDhry91kBYIaq0k9LMiUUaMCTXc+xfPcKnute5zoc52KeMrshz7TaXCS6+8tFrFZoOhx6dvbuHVCt9WNeA9Zse4Y1255hRsM0Tp56PCc0v5W4H3cdmqkQdlsyQ7K/HoC2fAcP7V7J/bsfpzOo8se2PZoj2N0/kCj2APTXNyyQ3uY6kmioiaU4ofkYzjjoZMalBt5l2HoAzFBZAWCGZO8CQFGe736Z5btX8GTXswS25SkAY5MBc8fkqI+Vx+sR9QKgT9ADnRt79xAwvasH5jYdzMnTTuCYiUcg8sY6UisAzFDZEIAZls6gm0fb1/Dg7pVsz9nOyX3q4yFzGnOMS1bxNPYi8lMwZg5kd0PXRsj3uI7IrVCV51vX8XzrOibWjueUqSfw9inHUBsvj4LORIMVAGZIvrbx1mNmJSbZpL69JDxllo3zl0xijBBvhMwu6Hqtd3vhare9eye/evEe7lz3B46ecBivpbe9A+XXSJVusmGGzG5ZZlDn03Bu5wAAIABJREFUPHX12FTOX6TK5cBRruOJEl+U6XUBM+tzxCI+zr8/5TIEMBANIb0NurdU3yFDQ7BWle+Fmvjvhz/RYjMozICsADBvpsjClde+Sz39EMpFQHFPLikzAkysCTikMUuNX76Jv085FwB9giyktyjp7a4jiaSswK9D8W5dfukX/2S9AqY/KwAMAOc/vmSG7/Fh4G+B2a7jiaIJqYCDG3LOt+8tpEooAPrku5WuTWITBQf3ksJ/e3n5/gOfun6D62CMe1YAVLGz1l6eTO1uPM+DD2nv4Rc2J2QAYxIhhzTkaKrACX6VVAD0yXX17h+Q63AdSWSFoPeqyg/SkvjZqsta7FTUKmUFQBVa+Ph1R+LpJYp+lOicgx059fGQWfU5JtVUXuLvU4kFQJ9sx54VA93WI7AfuwV+GiI/WH7Z9ctdB2NKywqAKrFo9TUTA/X+ryh/p3C063iirDamHNKQZUJNUPEfkEouAPpkWqFrkxJU+dLBA9M/g/dfxMMfPvh3X7YZFVWg0u9vVe0jy1pSHY25v0a5ROF9gO0huh9JXzm4IceUmmic1FcK1VAAQO/hQtm23qGBIOM6msgLQJepyg9qa7M///2H/t2296xQVXKbqx4t2uI9vTJ/WuDpJaIsBIZ/nFiVSfrKrPocU+vyVfeBqJYC4HUhpHdC92bbQ2CIdgv8XEW//+Cm5INE9FhbMzLVdr+rWBesuvYICXk/opdgs/iHJOUrB9XnmVqbw6vST0LVFQB7qPZuJtS92XoEhkrgNdCfE+r/PPCJG9a4jseMXpXe9irDeatbpvpB/v0i+kHgONfxlIuaWO8Tf3MVdfUPploLgD6qkNm5pxDIuo6mnMgq4P+FsdxtD330q5tcR2NGpspvf+XnnKeuHpvIeAs8kUW2dG94UnsSfzWN8R9ItRcAffrmCHRv0qo/Z2CYQoRHBG7PB4kf266D5cVug2Vg0cOfrcknas/ds17/PUDCdUzlpCamzLTEPyArAN7s9cmCtmpgJAKER1Xl+7lM/CePfaal3XVAZv/sdhhRH1nWkuqoz52jon8Dcg62Je+w1cdCZjXmmJSq3HX8o2UFwMBUe5cPdm9RgrTraMpSGuEuCfXHXjJ5931/22LlVARZARAhH1nWktpdn3svyEWInifQ6DqmctSUDJhZl2dcqvLX8Y+WFQAHlt0N3VttZ8FRaAf5tUj4My+e/L0VA9Fh90fH+tbqKyxS5XxL+iM3IRUwsyHHmAraq7/YrAAYunw3pLdCzy5bPjgK3ajcq+jtsSDxi/s+1dLpOqBqZgWAA4se/mxNmKx9t8IilPcBDa5jKlcCTK7NM6s+R23MbszDZQXA8AUZSG9Tenb0HklsRiyNyp8UvV3j+V8+9NGvWh9LiVkBUCLnLf98g5+MnSOeXIRyFmB33lGIiTKtLmBGXY5EBRzL64oVACMX5noLgfR2UJtmMlrdwD0IP/NziTutZ6A0rAAoogseu2Y8npzjiZyrcDZQ5zqmcpfwlWm1eWbU54mJJf7RsgJg9DSAnp1K91YIbS+BQugBXS4id6py24OXfWmz64AqlRUABbZwxdWzVbwLQN4HnAT4rmOqBA3xkIP2nMxnb9rCsQKgcPp2F0xvsxMICyhQ5WGQXxEGv1r+yRvWuQ6okti9tAAWPn7dkaEXnCt4C0BPxl7XgpmQCphRl2ds0vpYi8EKgOLIdyvprUKmVVGrBQrpLyLcEarcufxj1z+EYK/uKFiiGqGFK687MST4P4KcD8xyHU8liXvK1No80+rypGx8v6isACiuIAs926BnhxJaDVto61X5taj86MFPXP+462DKkRUAw6HIhSuXfBDhKuBI1+FUmrp4yIy6PJNrAnwb3y8JKwBKQ0PI7NLe4QHbWKjgFJ72RG544NLrf2S9AkNnBcAQLVp9zV8FKv+Dyttcx1Jp+rr5m5I2vl9qVgCUXq4durdBrt2GBwpOeNxX/fB9l335OdehlAO73w7BhSuuvQjR/wbqXcdSKWIeTKnJM70+R4118ztjBYA7QQ+ktys9O20ZYYF1iOpHHvj4l3/hOpCoswLgAPYk/59gs/kLojEeMtW6+SPDCgD3+g4gSm9Tcrb6vVACVblk+cev/7HrQKLMCoD9uGj14neFofwWO3J3VDyB5po8U+vyNNo2vZFiBUC05Lp6JwxmdtkugwWQ8+C991/2pWWuA4kqKwAGsWBly4Q42SdBprqOpVzVxpQptTmm1QbEPHvajyIrAKIpDHr3FOjZYXsKjIbAax6JY+67rGWH61iiyJ5sBxGT3FdQS/7D5QlMqskzrTbPmIQ9whgzEp4PNRN7f+U65Y1eAasFhkVhWqC5LwEfcx1LFFkPwAAWrrl2rgb6F6xAGrIav3dsf0ptQMKe9suG9QCUDw2gZxf0bFPydqDucARh4B350Ce/+LzrQKLGEtwAwiD8lCD22hyAJzAxFTC11pbwGVNs8nqvgJBt7z1/INtmcwWGwPf88DLgH1wHEjV2z95Li7Z4T63KbrCx/8E1xkOaawMm1+SJ29N+WbMegPKmAWTaILNTydphuvuzuXns2hm3X3y7Lbjsx55y9/LEiuxbPM+S/94SvtJcEzClNk9dzB45jIkC8SE1HlLjhXy6t1cgs0sIc1aY72XKlt1zjwSech1IlFgBsBfxvWNtpk0vEWhKBEyrzTMxFSDWXxR5qtC13aNjs0fXdp/OHUJ6p0emU8h0eWQ7QfNCLiNoAFu2bkJigiRBPCHWIPh1Hn6DR3ycR2K8T3y8T3Jq7/+K5/pfaAYTq4H66UL9dMh2CD3b9wwR2O0MAAn1WKwAeBMrAPYi6OGuY3CtPhYypS5Pc01gXfwR173LY+dLPjvX+uxa79O+ySffM7xKTfOK5gGUoANg4F5SLyUkp8aomRWjdnacmrkx4k22P1YUJRog0SCEecjs7O0ZqPozCESOcB1C1FgBsDeVZqrwLImY90YXf4Nt1hNZQU7Y/qzPlqfjbH46Rte20j2Shz1Kel2O9Locu+7tzSaJyT71f5Wg/ugEtYfF8WLWTRQlXgxqJkPNZCHfrfTs6N1foEpPJpziOoCosQJgb6JTqyX/ewLjkgHNNXkm1tgs/qgK88KWp2NsWBFny5MxcsN8wi+m7NaAXVvT7FqWxksJjcckaDguRf2RccSKgUiJ1Qr1B0HdDMjuhmwrZNq0alYRaMhk1zFEjRUAe1Mmug6hmERgbCKkuSbPhJTt0Bdlndt8Xn4gzvqHE2Tao59Mwx6l7dEMbY9m8OqEMfOSjDujluRUGyaIEhFINvX+qguEbFvvxMFse4XfC0QmuQ4haqwA2FeT6wCKoW9b3uaagKSdvhdZqrDt2Rgv/C7Btr/EUI1+4h9I2KW0PtBD64M91B+ZYPxf11B3eMJ1WGYvnt+7giA1vndyaE8rZHZV6qFEOsZ1BFFjBcC+KuZNkvKVyXvG9Wtt6V6kqcJrq+I8e2eS3Rsr6IlZofPpLJ1PZ0lOjzHp3FoajknaDiQRJLE3NhoKsr1zBTI7K2rXwYq5txeKFQD9KcIqGlyHMRpxT5mYCmjesxe/3Wejb/OTMZ75VYq2DRWU+AeQ2Zhnwy3tpA6KMen8OuqPsh6BqPITUNsMtc1Cvqe3EOjZCWHOdWSjYgXAXiw/9HPe8s83xFLxdtdxDFdcYEJN7858YxO2Xr9cdGzxePK2GrY85a4O37J1k7O2646I07yonuQ0ew4pF7l26GmFbKuW5UqCmpps/e8/9O9druOICvvk9ROL1Y6B8ihx4wLja/JMqgkYb/vwl5V8j/D0L1O8tCyOhtX7k+t6NsdLX2xl3Bm1TDq/Fi9Zva9FuYg39v5ippDrhEyr0rOLPftIRF86nWgErADYwwqAftTPNkmEU2nMUyakAkv6ZWzLn+Os/n8punfalnoAhLDrT910PNnDlA80UH+kDQuUi3g9xOuF+hm8XgxkWqO9DbF4XhOw2XUcUWEFQH++NhCxJ7K+Mf3JNQFN1r1ftsK88NTtKV66N162M/uLKbcj5NWv72bsaSma319vewiUmf7FQLZdyLRCdrdGbs5AGAaNrmOIEisA+vEDPxmK++o17inj+570LemXva5tHo8uraX1lcqe5FcIrQ/0kH4lYPqlDSQm2utVjhKNvb9UhXxXtHoGfA/rYurHCoB+AsK4qyGAhKeMs6RfcTatibPyv2vIdtsPdKh6Xsmx7outTP1gA41vS7oOx4yQyBs9A3XTId8lZFp7DygKsm5iUvy4m5ajyQqAfjy8uDrYB3hsMuTY8ZWz2Nb0dvk/eVuSl+61BDYSYY+y8T/bGbeuhuZF9WBTJspa/2JAp8PuF5Wcg/VWYZC3HoB+rADoT9x0D/kRGHYwhRNkhUdvqWHzU/awMVq77k2T3REy49IGJGG9KJVABMQXnBy65onlvH6sru4nRJ3csa27v3Jku4UH/qPWkn8BdT6VYf1/7CbotN0sK4U4e+jx7IPZjxUA/YijAsB+CJUh3eZx/1fr2PmiPWQUWvrlHOu/1ka+1YqASuDqocdzdI+PKss9/Qhibw4zIh1bfO79Ul1l7eMfMZlNAS//WxuZrWW4BZ2JCLvH92cFQD/qrAfA5gCUs3SrxwP/UUt6l32cii23M+DVG9vI7bQioKw56gIIw9AmAfZjd6w3ESdvDs/mAJStTKfwwNfqLPmXUK415JWbd5Nvt+GAcuVsDoDYHID+7K7Vj7paFWEFQFkKssLD36ijY4t9jEotuzVgw7d2E/ZY71lZsjkAkWB3rn5cTQJUu4eVnTAvPPLtWna+ZGP+rqTX59nwnXY0bx+gcqOOKgC1OQBvYgWAMSOw6vsptjxts/1d63ouy+YfdboOwwyXo6ceEXvc6s8KgP5EnMwsclUNm5FZvzzBKw/bXKKoaHuoh7ZHbCfNsuLoQCxVN/f4qLICoB9VnMwqcrH9sBmZ9td81vwo5ToMs5ctP+4ks8nu7eXC3YN4aG+SfqwA6M9VD4Dl/7IQZIRHltYSZK3HJmrCjLLx1nY0ax+mcuBuDoBnBUA/VgD0p2pDAGZQq3+YomOTfWSiKrM5z+af2HyAcqCOnno8tR6A/uxu1p+jHgDrAoi+DY/Fbdy/DLQ91MPulRnXYZgDcXTLU8/mAPRnBUA/XuimOgytByDSMp3CEz+tcR2GGaItP+60g4PMgDR0M88rqmwdUz8q2FRis48nflxDpr08i7TGKQHjZofUNwc0TA5pmBwSSymxGiWegns3T0S7laAnJMwq2c0BmW0B2S0B6ZdzZLaU3wNT0Bmy9eddTP1wg+tQzCB6hz1L3w3geXaP788KgH5UvB4Xs1MDGwGIrO3Px9jwWPnsHeLHlanH5ZlydJ6Jh+epadr/A48ISJ3g1fVuaJScEqN/2sy3BXQ9n6PjqSydT2YIc0UMvoDaHumhaX6K2tnl87OrKo6ew8NQ0m5ajiYrAPrRMEyLg0MqrACIJg2FJ39SHkv+xh0SMHt+lunzcsRqCveGijX5jDnRZ8yJKYIepWNVhtYHe0i/HPFKQGHrTzuZddVYxAY6I0cd3fR81HoA+rECoJ8YXjp00C0VONoUw+zf+ofitG2I9la/k47Ic/g5GSYdni96W35KaDolRdMpKbqey7LjnjRdz2WL3u5Ipdfn2f1YD00nlUcRV03crLeCQKwHoD8rAPpRkbSLcakgtAIgaoIc/OU3SddhDKpxWsCxH+hh4mHFT/wDqTs8Qd3hCbqez7HlJx2R3YRn+51djHlbEonZZyxKXC18UrU5AP1Z51g/oaMJIjYEED0vP5Ag3Rq9j4efUI6+qId3X9flLPn3V3dYnNnXjmPywjokEb0km9sR0vqQ3fOjxlUPAJ5nPQD9RO8O51Iu7+TNYT0A0RLmhefvid7T/5hpAe+6rovDzszgxaJTNYoP499Ty+xrxpKcGr0hk513p+3EwIhRR5MAVW0OQH9WAPQjmux20W6I7QUUJa8+GifdFq2PxqxTsrxzSReNU6LZ1Q6QnOoz+5qxkRtzz7UF7F5hmwNFiaseAIllrQegn2jd5RxLQ7urtgPbDCgSVOH530fr6f+wMzMc/7dp/ET0q0RJCFM/0sDkC+tdh/ImO3/f7Wz3OfNmrp7+Aeri4W53rUePFQD93HNiSweOVqjaMEA0bPtLLDL7/YunHPehNEdfVH69luPfW8OUD9bjYFXtgDKbArqei/jSxSrhsADI//6Sf3fSyxtV0bjTRYWgQIeLpgMbA4iEdQ9EY79/EWXeh3qYfVp0l9kdyNj5NUz5SCNR6dxqfch6fyPB3ShW+557vNnDCoB9iJMuonxoPwrXMu0em5+MxsrYoxdmmHVq+Sb/Pk1vTzLp/DrXYQDQsSZLvsO2gnfNYQ+Adf/vxbLOPtTJPACbpOzeq4/GCPPuH1fnvDPLoWdWzqS1CWfVMvY09xMDNa+022RA50JHq1fFCoB9WAGwDzc9ADl7MHFuwwr3+8aPOzjPW99feV3VzRc3kJrp/vVtX1l+8ykqjasCQB1O8o4qKwD2IuKmByAT2I/Cpa4dHq3r3a5hj9coJ16WRqK3lH7UJA7TL23Ar3Hbw9K9Lk9uZ3SXUlYDzbnp7rQegH1Z1tlLqLS5aDdnqwCcem1NHHV8JsNb/yZN3YTK7QpKTPSZdLHj5YEKHU+V/9yKchY4qr/UCoB9WAGwF091l4t2bQjAra1/djv5b8LcgJknV/4ytbEnpag91O1QQOfTVgC45GqejSo7nTQcYVYA7EU9trto13oA3Akywo617goA8eHY/5uOzJr5ohJovrje6Z2n64Ucoc26dcbZtszi5t4eZVYA7E3FyZskawWAMztejBE4fPie+fYcY6ZXz7h0akaMMW9ztypAs0p6rfuDlKpV6Oyz5ubeHmVWAOxFcVMlZqvn/h85O190+DEQOOy91TczfcLZtYjDl737JRsGcMXVKgDrAdiXFQB78R31ANgQgDs7XnTX/T99Xo6GqdU3ASTZ7NNwjLszF9IvWQ+AK+rqpVcrAPZmBcBexA+2uWg3UNuj0gVV2OVw+d8hZ1Tvk+jYd7gbBki/nLPDgRxxVgBI6OTeHmVWAOzLSZWoQDawXoBS697ukU+7ed1rx4dMOLR6n0RrD00QG+vmFhSkldzO6ut5cU0Dh0ef59V6APZiBcDeXnxxF46Oq8g5Xodejdo2unv6n3lSrjpm/g9CPGg60V0vQM+myl92GTXOxv8hv3xbyvYB2IsVAHu5/eLbA8DJXgDWA1B67Q6P/p16rCWghmPdzQPIvGYzb0stcDbiJTtoabEun71YATCwrS4aTVsBUHJd2918BOI1StMMux+lZsbwat38DLI7rAAotTDrbOKFk3t61FkBMLDXXDSasQKg5Lp3uvkITDo8j3g2C00E6ua42Rkwt8MKsFJz1gOgbHDUcqRZATCwjS4atQOBSq9rh5vXfPwce/rsU+OqANhlP4NSC7OOHnI8dXJPjzrLOANRcfJm6bEegJLraXfzmjdOseTTJ9nsZiJmfrf1AJRamHF0EmCoTnp1o84KgAGo52YIoMfRIRnVKshB4OiJpKHZkk+f5BQ3BUCYUXf70lcpV0MAoaNh3aizAmAAGoZuegBCcbdGtgplu9y8/cWH2gn2g+6TmOAjjlZjBl32cyglV+cA+Ljp1Y06KwAG4DvqAVCFjG0JXDL5HjevdaJObQJgfx54KTc/C1dd0tUozIM66vhS37MCYABWAAzAyyScvVlsHkDpuNqUJJaypLM3P+XmVqSB/SxKxeESQAIvawXAAKwAGMDtJ7fsArpctN1jKwFKxlkBkLCkszevxk3hq7YXU8kEGWdN737oo1/tcNZ6hFm2GdwmF41aD0DphI4m4vvuNr+LLEk4KgBsEmDJOFsCaBMAB2UFwGCEV1w0aysBjDGVyOE2wK+6ajnqrAAYTMg6F83aboDGmEoUOioAFH3JTcvRZwXA4Jy8aWwIwBhTiQJXKy5UnDzMlQMrAAYhjgqAtE0CNMZUIFdDAK7u5eXAss0gAnXTbRSqDQMYYypLmFPU1aRbR/fycmAFwCDCbN7Zm6bLJgIaYypI4GjTLUATddmXXTUedVYADOI3p361A9jhou3uvKN9UY0xpgiCHmdNb/n9h/7dyZ4u5SDmOoBo05dAJpS61bT1ADiRTCgHNYdMnxQwcaySSiipIqzZTzWFzIzIWUCzujbjcIO21+0+PkN+TuFflHRWSOdgS7vPy9tjrN8Zoydnn69Sy7srAKz7fz+sANgv7yXQE0vdqg0BlIYAxx2R44Qj8xx7WMCcGXm8Ur30EUi6AHRucx1Br6NK00yg8NzmOI+uS7L8xRQR+ddXPFcrAETcLOcuF1YA7J+blQB5G5kppgbgqBDmzsjTcKWj/YCNE77AkVNzHDk1x0dP7WSH7ubBzrH8tnYCO7y46/AqlqttgG0PgP2zAmA/VMMXRUr/NJ4OhFAp3dNolWhU5XiFQxV82PNfpppNkBwXdG1jQfd27kuN5ed1zWzzrRAoJFV3cwAEzwqA/bACYD888Z9X3AzWduc96uMRGSguc57C0cCJIdit3Qwkpsq707s4raeVX9VN4he1k8k5KP4rUZB2N94VSvCcs8bLgPU174dX4z+Do9HaDpuoVBDjFN6vcGqolvzNASVUubhzK1/d9QLT8+6Or6skDicAhrXJvBUA+zGiLPNKm45NwdhCBxNFn37pn5YHGk4pdbsH1eeY02hnlY7G4QrvCNW6ufbnqRddRxBZGfFY2jid+1NVcasrmq7XlO4tpW/X9/wNX3/Hv5xe+pYdSNL6lpnSOtxvG9K9cVunNms+PE9Fzgc9GcKmqExiLrbDa2bzTHfpb5JdNhFwVI5T5SQbQTGjkNSQy3e/SnOQ4ad1za7DKVv5tOCiI/WIsXNmBBJWxxyALKxZG7Qi8jCEv455/m+Oni1bD/Rt+80yG3fq9C3twdIwCDeqsBT0bKCpYEGXgebkJCftduWsABipUxRL/qYgBLi4cysf6tzkOpSyle9x87g4pd7Nvduhsaieg8qt+SDctGZteNuTz+nB+/uGAbOMqsrW3cE/xWLhWpSPUcXzpZvjE5202xMIebV5AMN1fKgcE1ZL/5QplfO7tnNhl+0aMFwaQOhoKsXk2qorAPrzQBeFfvjMmheDJaoDJ5N9CoAtW7Ruy279mcIXgFTRw4y4KUk3BQBAp00EHJbDFE603G+K5AOdm5nf0+Y6jLLi6ukfoLmu5Ju4RlENyhefeFFve/JJrdv7i28qADao1lAT/ElELyxdfNE2JeGuirRhgKFronfCnzHFIsAn2jcw3eG09nKT73bTriBMrqvqHoC96EVaG/zx4Q1a0/9PX88wqirx9vA/QUq+9W2U1XgpmmKNTtrusAJgSHzgLFvmZ0ogqSH/sPsVYmrF5lDku930Yo5NNZH0E07ajipF3l7To//bfzjg9QyztT28EviAk8gibkrCzTCAFQBDc2yojLP7sSmRmfkeFnRvdx1GWXDVAzClzt3QbbTpojVrw8v7/p8Hvev6Ba5zF1S0uRoG6Mx5kTkzJqoagHn2IpkSW9S1lQmh7dOxP6ru5gA0W/f/oET4wmPP6njYUwAkJbxOq2Rjn5GYlnSzBljpLQLM4I4PbT9rU3pJDbmg64DLrKta0AOOdlJnWkPJ924rJ00JP7wawFurmgT+3nFAkTYj5e7NZMMAg6sHDrOxWOPIu9K7GBdYL8Bgco66/wFmWAGwf8LHl72sKa++PXg3vT2pZhBT4pOIeW6eM60HYHBHhVq9G1QY5+KqvCe903UYkRV0uSnOE16CSTXjnbRdRuobg/zpnoic5zqSqPPFY1pispO2260AGNShrgMwVe/0ntaRHahSBVxNAJzW0IyI3TcPxMc731Plba4DKQcHJd10KXXlBOvl3tc0hQZ7XYxjE4Msh2e7XIcROaqQT7tpe0bjVDcNlxlVPd4TmOk6kHIwI+XmTRWo0GEHA+3jIKuKTEQck+1wHULkBGlFHU0AnF5v4/9DIwd72Pj/kLjqAQBoz9pI996muQ7AmD2Ozna6DiFycg5fEpsAOGSNHs4WapSXaYlmfHGTiHdnrQegPx+YaB0AJiLm5LptZ8C95ByNisS8mO0BMHR5D7BprEPgi89URxsCtVsB8CZNeoBzrI0pIR+lOci6DiNS8o4KgKn17h7UytAuD9W1rqMoF9Md7QfQEwi50OYa92lyHYAxe5lmBwS9TvMQODoCeIaN/w+DvOCpyH2uwygXByXdTARUbBigvzrbINlEzDjbFvh1OUfr/wGmN1oBMFSquszzQ+/XrgMpFzMcbQkMsDtn3Vp94rby2kRMytWU9wjKd7n7fNoKgKHTmPdrb9JYWQOscx1MOTgoOZWYuNkRsD1jPQB94tYBYCKmxgqA1+U63XxA437czgAYuhfnzZanPAAV/aLraMpBTGIc5Gg/gPacWMf3HvZKmKjxbRUA0LsBkKsVAAc1TCNmEwCHRNF/gT2TqZsb/P8FnnAaUZmYnTrISbuBiq0GMMZEWr4LZxsAzR7j5t5cdpSnjp3j/xD2FAAiEop4nwZsLcsBHOKoAABoswLAGBNhLjcAOrjJCoAhyKp4HxeREPotp57cKA+p6GXu4ioPs2tmOGu7zXYENMZEWK7DzVCIIBzc6O7eXDZEP33cXHmk7/++6ZFySmPsfxT+tfRRlY8Gv46JcTdHTbZlPTsYyBgTWa7G/yfWTqAuXuum8TIh8C/Hzol9t/+f7dOnPGWM/0+g/wfF0VlO0XeIo16AIBQ67WAgY0wE5btBAzdtHzLGnv73I4PoR46Z6//z3l8YMJs0j4n9JMQ7VdEHix9b+TnY5gEYY8ybuFr+B3CwTQAchN4veCcdOyf2vwN9ddBsMrVJVk8ZEzsN0fMVXY4dGvS6Q1IO5wFkbB6AMSZ6su3uNgCabRMA+wtzpu4HAAAgAElEQVRU9EFRXXDs3Njpx8yVNYP9xQPuatPcGPsN8JstHToJDRYQykkqeqggDUBjIaMuF1OSk6jxkrPSYel352ndMw9AbDM8Y0xUqLsegJp4TTChdsIrThqPhnbQdkHWhugjvvh3vHWObBvKNw55W7vmBtkGfG/Pr6p34Yol9yCcWep286HQkfNoTFiHjDEmGnIOx//T2Z575s2NLXDTenmzAeWREh5y1XSrbQtsjImQXLvDxj192GHrZc0yyQh5Et7vqu1dWTfnERhjzECyjtb/Awji7F5c7qwAGCFJJR8DnOx71ZbxCNQmARhj3NPQ3fp/oKNLt69w1nqZswJghG4/siWLstxF24oNAxhjoiHXoS7XiD2w6rJbc85aL3OWRUZBhT+5anuXFQDGmAjIdTht3tk9uBJYFhkFTz1nb75W2w/AGBMBGacTAK0AGA0rAEbh6OP9J4EdLtruyntkAvvxGWPcCbIQONs0Xrc9+Pdf+rOr1iuBZZBRaJGWUGCZq/Z32jCAMcahXJvT08mWIdjxaKNgGWSUVMVZF9SOHhsGMMa4k3G4/S8O52BVCisARsn38g4nAvqEVv8aYxzQEHLt7m5AmlcrAEbJdpQZpdvn3fDihSuXrAdmlbrtUKE16zM+6WgPTlN2tu3y+Ms6n007PDq7hQcfnEpjjTJ7Qo73/lUXR021U8DN0GTbFXWX/19Z/skb1jlrvUJYAVAAKtwryt+5aHtnjxUAZv/aOjzueDDB8jUx1m7w0X6bSG3ZCiDcS4L/fCBBfc0E5s3Kc817dzJzXNZZzCb6srsFHA3Bq8gfnTRcYawAKABR/ROIkwJge4/PoWNctGyiLpMVfrEsyQ/vSdKVHtpYbWc64P5nhQeen8i8mcqNF29jQl2+yJGacpTd7bDx0Mb/C8HmABSAHybuxVEpnAmErpz9GM2bvbbN47Lr67n1F6khJ//+NFRWvgzvvrGZh9bVFSFCU87y3UqYc9b/r7Eg62z1VSWxzFEAt5/QsgVY46r9HbYc0PSz6tkYn/hyPa9sGf0qkUw25GPfb+IHj44tQGSmUmTbXJ5FIqvv+9S/bXEYQMWwzFE4d7tqeLstBzR7rH3V59rv1NHRXbiPdhgqN9xTwx1/bizYNU15y7js/lfucth6RbECoEDUC50VAB1Z33YFNOxqF679Th09mcI/nYUKi385hme3pAp+bVNewpyS73Y3/T/0ucdZ4xXGskaBvPXY5GPANhdtK9YLYODGH9aybVfxPtL5fMDlP51YtOub8pDZ5fQo8u0PvRZ/3GUAlcQKgAJpkZYQ+IOr9renrQCoZn9Z5/PQk8Vf1PPazoCfrWkqejsmujKt7p7+RbiHlhZ3hw9XGCsACkqdDQO05TyyodPK3Dh06y9r3rS+v5hu+mNDSdox0RPmlFyXywDE2T22ElkBUEB+NvFbwMmuPKqwy4YBqtKONo+n1pbuZ7+zI+CZzTYXoBplWp02H+RicWe9rJXICoACuv3kll3AI67at3kA1Wn5E/GSPf33+eHjtvtUNXJcACx/5O9bdjmNoMJYAVBw+itXLe/M+ORtdKzqrPhL6Tf0fGxdouRtGrfCnJLrdNe+CL9013plsgKgwEI8ZwVAqLCjx3Z3rjbrN5X+Y7yzy46hrDaOn/5BvN84jqDiWAFQYL86/osvAU+7an+bDQNUnV3tpf8Y59xtA2sc6XFYAAg88cClX3zZXQSVyQqA4nA8DGCrAapJxsGhfaHDc2BN6YU5Je+w+x/4tdPWK5QVAEUgnrs3q6pNBqw2pZ4AaKqP6+7/vLh7qKpkVgAUwc+PvX4VsMFV+1vTNg/AGFM4Gbdz79c//LEvPeE0ggplBUAxCIq46wVozdqmQMaYwggyON38R9W6/4vFCoAi0SD8mbO2FbbZ1sDGmALI7HI730NUb3caQAWzAqBI3vq25IOgm1y1v7XbhgGMMaPXs9Np8xsf3Jp0trlapbMCoEhapCVE5Beu2t+d8+jO24/XGDNy2Y7eIQB39Gd2+E/xWIYoJsFp19UWGwYwxoxCZqfj7n/xrPu/iKwAKKK3HBtfDrzmqv0t3TFstbYxZiQ0dL78b+MDl15v3f9FZAVAEbVISwjqbBigJxDas/YjNsYMX6a1twhw6HbEnmGKybJDkXnidgbrFpsMaIwZgR7H3f+ezf4vOisAiuyo45IP4XRTIJ/QamhjzDAEWVxv/fvK/Zd9+VGnEVQBKwCKrHc1AD921X5exbYGNsYMS2an4vS4B+VH1v1ffFYAlICgP3TZ/iYbBjDGDIPjrX/xlR+5jaA6lHVmeFk1FWunNqE0uY7lADovf+mfn89rcJiLxtsyPulAqPGtoDbG7F+uE/I97tqPe7FnbzrjC928cP1sd1EcmJ+jLZGga+5ccbpTwmiUVQGwaZPW+v9/e3ceJVdd5n/8/dxbXdVJOt1JSAgJELKwyZ4VEBEiCBIIyCo6IuJAAigg7iPM2EoWFhURf+qPM64/GWfMEDYhLoCQBBDZNyH7vnd6766u5d7n90clkIQsvVV9b1U9r3M4x3OE+n5O0l3Pc7/3u1QFZ6NygcJHaQ4PAbxiuAztvP0+xkN1f3UytgLr2ysY09/BvbEm72I+ZIPCjilF8Dtnuqdji9vxzx19xocCCZe5TbFvQRzSEL66JFiF8Azow0Ff/y8Thku762ydVRSvAOrrtWZjczDT6xduVpW5ClcCoyiS/AAT+x+L4O5bc0O77/adnsmbqr6F36vlSdH86pku0CykGtx9UXgijBt6rLPxu8EDRqF8HpUH/bZw0ytLg9v+vkSrXQfrjMj/Fm9qyl6R9sOlKN8G+rnO010DYwMY0+cQZ+OnA2Fr2hYDlqJhgwvfAFRV2hRAKUo6Xvw3ZsBIBiRq3AXouSpRbk0QLn11cfYzrsPsS2QbAFWVDU1BrSK/BQa7ztMbJlUf73T8DW1F9cbHdNIxYwo8/w+M2d+OZy81qu6n/ycOdfsd2YuGIHL/a0uDe/6gGtknr0g2AKoqm5rD/xb4jussvWl81dHEpcLZ+HUpn1QQyb9y0wOnHJ8p+JifPMHtJnHT+zLN6vTin7gX54Shx7gLkAeq3Hj4kvB3qtFcqRbJarCxOfwucJnrHL2tj1fJCVUfcja+Kqxrj2wzarrp2EMDaqoKN28b8z0+eUJzwcYzhZHc4rZGnTD0aCr9hNMM+aDC5a8tDSP5MBu5BmBjc/Z8gVtd58iXk2vGOR1/fXvMFgOWGM9TLj2zcI9uk48MqPDsh6iUBGlIN7n9Oz1p2Fin4+fZf7y6OHuu6xC7ilQDoKoVqPwAHC6Xz7PD+4xicMUgZ+OnAzsZsBRdcmaK/Qfl/718RczjtvM3530cU1iu3/3vVzmQMQNGug2RX4LID196Sd29A96NSDUAG5vD6cChrnPkkyBM6n+c0wxr7WTAkpOoUK69OP+nt1x5SoqaPoVfdGjyR9X9xT8nDR/ndJt0gRzu1YRXuw6xo0g1AAI3us5QCCfXjHX6w96Y8mnNROqv3vSCyRPSXH52/l4FTBwtfPUMx4+KptelGyAs/DrS93giTDrgBHcBCkiEm1xn2FFkqsCGFj0aOMx1jkLYLzaQQx2eCQCw3hYDlqRrLkzy0XG9f+LjQYN8fnnlul7/XONecovbp//DBo5mYGXUT3PvJcoRLy3SI13H2C4yDYAE4fmuMxTSR2omOB1/QzJGNiz5Kbey4wnUTmvnyvN673XAcSM8Hr9xLTH7cSk52WTu7H+XThk+0W2AAot54QWuM2wXmQYAkRNdRyikcVVHU+W7O9gwCMVuCSxRIvD5qR38+zVt7FfT/YWBFTGPfz01w/9cvdZW/ZeopOP1nP3jVRwzJDIPxAURikxynWG7CDUAOtJ1hELyxeekarfvvda12ZbAUvaxCRnun9HCv36yg+p+nW8EfE+YfCQs+PoGvvZxe+dfqsIspBwv/jtx2DhiUl6vI0U1MrccRucRUCmKyxN606k1E3my4TkUN7+EyUDYkoqxf2XWyfgm/xJx5bPndPDpszp4Y0mMha9X8PayGBvqhOa2XP/ve0LfSo/RQ5TzjmvjsrFNxGN21G+pS25ye+6/IHx4uNtzURyJzGUH0WkAoOy+cYZUDOLQPoewJLnSWYY1rdYAlAPfh7FHZhl75C5/12+sdxPIOKUhJB1P7hwxaAyD++znNoQbkfnCjc4rALTBdQIXTq1xuwCmKe3RnI7Qj4ExJu86toA6Ps7hlAPLa/Hf+6JT6yL0zS9LXCdwYWzVUfR3uBgQYE1bpA6nMsbkkSokN7t9998/0Z9jBh/hNIM70al1kWkARJnvOoMLvvicXO32PdjmpE/KtgQaUxZS9bmz/1368LDx+GW2+O89os+4jrBdZBoAr8J7BBythnPstAET8cXdX4UCa1ptFsCYcpDc5PZr1hOPUw50ew6KQ2HG9x91HWK7yDQAQ/rJetC/u87hwsDYAI7r63Y6bG1bjIzNAhhT0tJNSjbpNsMJ+x/FgERkFsIXmD4/aZRsdJ1iu8g0AAAKM11ncOW0gSc5HT9UWGcHAxlT0to3uU4AHz3Q7XedS6HoDNcZdhSpBmBYTewxRJ5yncOFw/uM4sD4AU4zrG2NEZblSxhjSl+2Xcm0uM1wUNUwRg9wew+KO/rM+EMr/uQ6xY4i1QAA4MmXgTbXMVz46AC3J0SmQ2GDzQIYU5Ii8fR/cNk+/bd64n/JdYhdRa4BOKBK3hTRKyjDg4FOrD6evn4fpxlWtVXY8cDGlJggDSnHu8/7VvRl/P7Hug3hhgr6r8cfKm+5DrKryDUAAEOrYw+K8A3KbFdAXCo4xfGWwI6ssLmjTLfnGFOi2jfg/Nv0w8MnUOGX3W4jFfjaCYfF/uA6yO5EsgEAGFrt/0BUL6XMXgdMHnCy8/2xK1riTsc3xvSeMOX+0h9ffD56UGQuwSuUNlG95ITD/B+6DrInkW0AAIYOiD2A752M6NOusxTKgFg1Y6uOcpqhPStsSdosgDGloG2D20t/AMYfcGxZbf1T5ClPvJNOODw213WWvYl0AwC5NQEHVMcmK3ou6HOUwdqAMwee4joCK1oqXM8YGmN6KEhBR73rFHD6wR92HaEQQtBnVXTKuMO8M6L4zn9XRbPke1hN7HHg8S1tOizMhFNVOA10NMgQoKROsBmRGM7oPgcPX55cU+kqQ2vWo67DZ0il4xtDjDHd1r4e5+/+Rw84JHlQ1bANblPkhQq6RZFlIsxP+94jUTrkpzOKpgHYbkg/2QDct+2fknXxy7dMBR5xmWFFSwWDK4PS6q6MKRNBB3Q0uJ/HW9Gw8pKxh/mPu85hPijyrwDK1QPjZv4ReMdlhtaMx1bbEWBMUWrboM6f/oFF8zcmInX4jXmfNQBRJagIP3IdY2WrrQUwptgEHblb/yLg+9TWlvy6rWJlDUCEtVc3/wZ0vcsMzWmbBTCm2LRtcN+2C6yrSrX8P9c5zJ5ZAxBh8w67NxWFWYDlLWV3eIcxRSvbAWnHp/4BhCo/nHfjvSnXOcyeWQMQcZlk9ucCTn+dWzMem+xcAGOKQvt6nO/7B+pjQUVJL9QuBdYARNwjH7mzReH/uM6xvDk6dwQEti3BREyHROOrNEhCutH9L6rCj5/+Ym2r6xxm76LxU2v2SoPwRzg+EjkZeGxMRmPXaFqtAzDR0uFF46u0bb37U/+A1kRGf+I6hNm3aPzUmr168MTZW0F/6TrH8paKSBzDmLL6byKmVdw3x5k2JdXoOgUget+TX5q91XUMs2/WABQJn+D7QNplhlQgrG9zvyCwyXUAY3axMeb+Aq22ta4TAJDKBl5kL78xO7MGoEjMmXDHapRfu86xsiVG1vE0QBQecozZ0To/4XT8VKOSicAbd4X/fP66metc5zCdYw1AEfElOxPHswDpUFjV6vZpp11y/xgTBfV+Bc2e21cA7U5PC3lPOvTlLtchTOdZA1BE5ky4Y7XAb1znWNMWI+V4KX40ZjuNgTcqqpyO31GnZJNOIwAgyn8+d/XMVa5zmM6zBqDIeGRn4HgWINTctkCX1tkMgImIt+L9nY2tIbStj8QvQzobkztdhzBdYw1AkZkz4Y7VwG9d59iQjNGacffjs1wEu6jYuJYV4aVEtbPx2zdCmHG/7w/hl/b0X3ysAShGHs5nAQCWOTwiuANYHYkHH1POXkrU0OK5OSUzSENyUwSKP2T8ILzDdQjTddYAFKG542auIgKzAFs7fOpT7n6E3hbrAIxbT/YZ5Gzs9nW5VwDOCb94+rrbV7qOYbrOGoAi5ceoBZwv/VnSFHd28tgqgS1uhjaGFbE+vOro/X+2XUk1ROLpv2Pb7iRThKwBKFJzTpi5TlHnl220ZT3WtbvbAvWK/QQbR+b0G4qrEty6JhIX/oDqT56+5k7blFOk7OuziMU8nQm0uM6xojlOJnQzHb9UxHYEmIL7Z7yKf1TWOBk7VU8kDv0BWgNN2L7/ImYNQBGbM272FpR7XefIKKxocTcLMF8ER/2HKUNZEX7e/yAnT/8aQtu6KDz6g8APnruudrPrHKb7rAEocmGs4i6g3nWOde0VzrYF1gu8YA2AKZD7q4axLubm6N/2jUrgfP8PAFtTqbid+V/krAEocg+NrW0E/b7rHKqw1OHhQK+IsMJ2BZg8ezlRzaN9hzgZO0hBcqOToT9ARG9/4cbaZtc5TM9YA1AC+lWkfwxscJ2jPuWzucPdq4AnPaXeegCTJ6tildxTPcLhwj+NxsI/WJtp7fg/rkOYnrMGoAT8v+O/3yZCrescAEubKgjUTRVOITziQYs1AaaXbfXizBo4mjZHh/6km5R0RO7BVtX/eP4rdzvfgmx6zhqAEuEtW/wL4G3XOToCYaXDBYFtCA+K2JXBptds8uP8x6Ax1HluXnFpmNv2Fw365rBBS50fQmZ6hzUAJWLOZXMCEf7NdQ6A1a0VtGXd/Wi1CMz1hc02E2B6aElFP7416DA2+u6uwE5uUoKUs+F3Eop8c85lc+wajhJhDUAJeWD8zEeBp1znUGBxU9zZu1LIHZE41xPesIWBppv+2nc//n3gGJo9dzNaQQrana/u2Ub1qWenzZrnOobpPdYAlJrQ+xY4rb0ANKQ8tnS4eV+6XQAs8GCeJ7Q5TWKKyVYvzh0DRvHz/geRcdxAtqyOzMI/VV+/4TqE6V3WAJSYuZNuexHlD65zACxpjJONwAk9ywXu94VXPewKYbNHaREe6rs/Nw4+gn84vOJ3u1Q9ZKKy0U71vxZec/vLrmOY3uVubsvkjR/KvwW+XgBUusyRCoXlLTEOr8m4jAFABnhOhNc8GItydAjuTi0wUdIuPn/tO4hH+g6h0dFCv12FAbSujcajP9Dhq97qOoTpfe4fz0xeXPjSLbMFvuU6B8D4wR3UxKNwb+n7YsBohSNUOVDB7csKh95Y6jqBE2kR3qqoYn6fQfwjUU1KojUZ2rJK6ahznSJHYOb86bOsAShBNgNQomJ9KmYGycyVwDDXWd5pTDBp/2Sk3jdlgcUCi0XwgWEKB6gyCBiA0A+lQm2WoNh1iEeH+Gz1K1jvx1kT68Oiir4sivclE6mfyPdlWolM8VfYlE7F73Sdw+SHzQCUsAtfvvUqUf2l6xwAo/tnGNnf/asAs7On1vd1HcHsQBUa31GyETlmR5UrF147y/b9l6hotsCmVxw/LvYbRF90nQNgZYvbswGMKQbJjdEp/sCLCzfGf+c6hMkf+0YuYbVSG3qBfJkIbAsMgUWNFe6DGBNR2WSE9vyDKvIVamujtXjH9CprAErc/06a+Zwic1znAGhM+6xvs2UnxnyAQsvKyOz5B9H/Xjh95kLXMUx+WQNQBsJQvwa0us4BsKQ5TjJrS0+M2VHbJsi2u07xnvbA8yJxrLjJL2sAysDDk2auAZ3lOgdAqPCu42OCjYmSoAOS6yP1G1H73NUzV7kOYfLPGoAy4feJ/wB413UOgIaUz4Z2exVgjEZt6h8WV6Vafuw6hCkMawDKxJyja9OicoPrHNstbrJXAcYkN0EmShdVKNfPu/HeiNw9aPLNGoAy8sDEGU+A/q/rHGCvAowJOqB9Q5R+A/R/Flw760nXKUzhWANQZoJQvgLRuBzPXgWYsqXQvAI0OpvsWrOh91XXIUxhWQNQZh6eNHONore5zrHdkqYKexVgyk7bBsi2R+npn+89f93Mda5DmMKyBqAMNbTEfyDwmuscAIEK/2xIRGkRlDF5lW1Xkhuj9AOvb7ZT9yPXKUzhWQNQhp6eXJsNlOnkDuhzrinjsbrVXgWY0qchNC8nSg1v6CnTX55+n13UUYasAShTD02c+Q+B+1zn2G55a5zmtP04mtLWtlYJIrTGXuFnz1w7+3nXOYwb9o1bxtqzFd8EIvHeTxX+2ZggjM6TkTG9Kt0MyS2uU+xkfSXBLa5DGHeKrgFQrfVUa4sudxTNO6m2WUS/4jrHdu1ZYVlz3HUMY3pdmM0d+BMpIjc+Mf2OJtcxSoHW1npaW3x1KVLLr3X9tL4E/Y5BwiMJOQKRwxEZhepAoD9QBfTZ9q8nyZ1v3wLUAytRXYwn76KyCL/tLRl+X3RO146wi1685RGEqa5zQO4H8tj9UgxOBK6jlIWn1vd1HaEsNC9TUo2uU7xPYN786bOmuM5RDPTRqX1Bj8HnSEI5AvRwhFHAPuqS1qOyEmQxwruEugjkLZn6aGTqktMGQLU2xur64/HkTFTORDgVSPTSx2cReR3lCTyeoD27QA6zE65256JXbjmEkLfI/SA7F/eUiUM6SPgRe2IqQdYA5F9ys9K6xnWKnbQowTELp9+x2nWQKNK/nR6jrd/xwJmInAm9XJfgdUSeIAyfwAsXyJR5zuqSkwZAV904Hs//HOhngMEFGrYJeARPfsvwu58UsUPodnTxi7d8SYV7XefYbkAiYOygFBKpOarSYw1AfgVJaHgnUmf9A3r9gumzf+Y6RdToH88dj8jngALWJWkCfQTV33LuYwWvSwX7etU1Nw9Cw+sRuQoYXahx92AZyq/Q1E/lkJ81OM4SCbVa673xUuZvCB91nWW7MdVpDqnKuo5R0qwByB8Nc8U/6HCdZCfPLJg2azL2AASA/unsQQQV1wMRqEuSq0uEP5XzHitIXcp7A6AbbhhC1v8icBMwIN/jdVEryC/RzB0y4ifrXYdx7dIXbh0V+Pom0M91FgARGDe4g5qKSBxXUJKsAcifllXQURepOtsu6p0w/9oZS1wHcU0fP2cIGtG6pLQi/JKsd4dc8Ehe61LeGgBdckM1ffzvoFzH+wskoiqJ6E9Jht+Tw+5tdh3GpQtfuuVrAne5zrFdn5gycXCSWNGtry0O1gDkR6oBmpdHqvgj8LX502f9wHUOl/Txc6pR/ztQJHVJ5ad42e/JlHl5qUt5+VrVdTdPpdJ/C+UrRP8PGaAPKl+l0n9X1970OdVo7Y4opNjyxXeDvuA6x3bJrPBuY2+tvzEm/4IUtKyKVvEHXhg6cElZH/erj583FfXfgiKqS6JfRWPv6uPn5aUu9eoH6uobxiD+fcDHevNzC0+eJGSaHHL3ctdJXLj4H/9+tHrhy/TeytceO7wmzUH9bD1Ab7MZgN6lCo3vKNmk6yQ7SYXij3922m1vuw7igj5+zhi0BOqS8iToNDnvsV6rS702A6Brbr4Q8V+i2P+QAdAz8PRVXX3z5a6TuPDApNveVvQ7rnPsaElznKaMvQcw0da2JnLFH9D/KNvi/+h5F6IlUpeEMxB5Vf94bq/VpR5/o+qSGxK65uZ7QOcStcUUPVON6O91zZd/q2tuLobpol51/Pj4XYg84zrHdqrwVn2CTFi2b2dMxKXqI3fUL8BzBwxcWnbv/fXxcxL62Hn34FGCdUl+r4+d91v9w6U9rks9agB0+U1DqfQXgt7Y0yARdgXo07rxa/u7DlJItVIb+lmuInfSYiSkAuGdxrjtXzKRE3RAy+rI/WS2iXqfn3PZnLI6VlMfPn8o6i0ESrsu9Us+rX++sEd1qdsNgK748kgqZD4woScBisQkMtnndc3Nh7oOUkhzTpyxApWvu86xo7oO364ONpGimlvxr1Ers6I3l9uWP533yZHEwvkg5VGXspnn9U/nd7sudasB0FU3H02MhcDh3R24CI2GcIGu/fIJroMU0twJM+4DHnedY0fLW+I0pGw9gImG1lURfO+v/HnBNbP/03WMQtI/TT2aMFt+dSkIF+hjU7pVl7r8LaprbjoOTxcCB3ZnwOImB6DylK656TjXSQpGUNCrga2uo2ynCm83JOgIbD2AcSu5WemIzG/Ge+r8IPP5cjrtT+edfxxBudYlDgDvKZ13fpfrUpcaAF35pVEgf6K0FlV0kQ4EmZf7sygPcyfM2oBwjescO0qHwhv1CcKy+YozUZNpg7a1rlN8kAhffPqLd210naNQ9JGpowi1zOsSA9Fwnj4ytUt1qdMNgG64YQh+bB4wrMvRSs9w/NhfdflNQ10HKZS542c+qPB71zl21JrxWNQUdx3DlKEwozQtjdolP4Dq/fOnzfqD6xiFoo+fMwRf54FaXVKG4/NXffj8TtelTjUAuuSGBFn/MeCIbocrPWOokIf17dqyqUDqV1wPrHSdY0cb2mOsa7NFgaZwcov+QKN3LtUaDfUG1yEKRR8/J4FaXdqZjiGmD+sfLu1UXercDEBl7PvAxJ7EKlEnUt14p+sQhfLQ2NpGNPwsuTutI2Nxc5ymtC0KNIXRuhoyra5TfEBWRC5feP3t5XO7aehbXdotPZF+yU7VpX1+a+qamy4G/VLPQ5Wsm3TNly9yHaJQ5k6c/azAba5z7EgV3mpIkLJDgkyeddRp1G74A0BUvzt/2sznXOcoFH1s6sUIVpf27Cb947n7rEt7bQC2Lforq60k3fQLXfHlka5DFMqx4ytmAH9znWNHqUB4Y2uCQK0JMPmRaYWWNa5TfGSBEm8AAB4ZSURBVJAqC4YOWjrbdY5CyS10U6tL+yLyC533yZF7+1f2PgPg+z+hvFdWdtYAYvxf1yEKpVZqQ7IVnyNCWwMBWjIe7zRWlM/eJ1MwQXrb9b6h6yQf0IAEny2r0/48tbrUOQMIs3utS3tsAHTtzZeBTOn9TCXrrLJ6FXBS7VoVmeY6x642J2OsbrFFgab3aADNS5Uw4zrJB4lw7cLpd6x2naNQ9LGplyFYXeq8s/b2KmC3DYBu+UZ/VH+Yv0wl60e6+foq1yEK5cHxM+ai3Oc6x66Wt8TZnPRdxzAlQBWaV0bwpL+cn5XVlr+Hz+8PVpe6TORH+rdLd1uXdj8D0JG+lfI8UamnDqYj/m3XIQopIxU3K/zTdY4dKfDPxgQtdn2w6aH29ZBudJ1id/TtbFvyq65TFFQstLrUPQfTntxtXfrAiild+8X90IqVQNk8yfayNnx/pAz/QZ3rIIVy8T/+/Wj1wheAfq6z7CjhKxMHdxD3bVXAnjy1vq/rCJHVUa+0rHCdYrfaUJ204NrZkWq880nnXrgf8cxKxOpSN7URykiZ+uhOdWk3j0gVN2PFvyf6EYRlcxgHwAOTbntbNFpHBcO2nQF2XLDphmwrtK50nWL3RGR6ORV/ACrTN1vx75F++B+sSzvNAOiSG6qp9FdhKyx7qoksI2XUjyI5eZgvF790y31K9BqBwZUBxw5MIbZD8ANsBuCDgjQ0vhvNRX8IP18wbdZ1rmMUkj5+TjVqdannpIm0P1IufOi9urTzDEClfy32h9wbaohp5AphvvVvqbgReMV1jl3VdfgsbS6bE5tND2gWmpdEtPgjr2dbk19xnaLwrC71Dq0hnt2pLu3yCkCvKmSckqZSdn+Wv55c2xEilwFNrrPsak1bjDV2Z4DZC1VoWq5kO1wn2a1GDYKLnv/K3dHcj5BPStl9l+bRTn+W702K6pqbJ4G+UPg8patDDjljc9WXX3Wdo9BuW/WDT9RnGu5nN4tMXTt2UIohleVzZsq+2CuA97WsVDoidbTVe3S/PoOu/N5pX/2j6yCFdtiym8ZVJpc/4TrHPm3/piuK9UbhRDn38ZcAdngk0s+5irNHIuAPgthg8GrA68v7kxYBhEkImiDYAkEDUbubM6wY8WRCond0WL7NGHkzD9T9iScbonc0+T8b4ozdL0113JoA8762dZEt/pwx4iNywaFn/zZIl993SWviSCqTy13H2JkIVPWB6n7QtxIScfC2dQChQioNyQ5obIO2ZOTqEnhXAC/Btr5FtTbG2saNwH4uY73Ph/gIqBgB0skDXTSAzGpIrwai8eUeShVb+n+Hzl66WEoCDbh73a9YnozeIWVxTxk/JEUfv/y+UHdlMwC5C35aVrlOsXtjBhzCDWO/gCfl9x0iBBy97EpiQYvrKDmewJCBMKQGvE7WpTCALU2wpYEIbUfaQlufYXLZnCD3U7W2YTxRKf6xA6DvyRAf1fniD7l/Nz4K+p2c+4wI8LSVimCd6xhO+OIz7YDLGRCrdh3lA9Kh8OrWBKkgcm8oTIGlm5SW6PWoAAxIVPOFoz9VlsUfoE/H0ugU/4H94ciRMHRQ54s/5P7doYPgyENgQP+8xeuiIfRrGwvbH01FPuY0Ti4ExMdA5VHg9WDFtsRzn5E4kii8go5nl7qO4Ex1rIprhn2KmERv8V1HVni9PkHWbg8sW5k2pXk5kXxv64vPlUdfRv9EZIpGwfVvf9N1hFwJOWA/OHgoxHpwvHgsBiOGwoFDiMR+ZPE+Bu/PTU92GAUQqDwW4of03kdWDIfKY3DdBMSDJU7Hd21U5cH8y/7nu46xW60Zjzfq4xG84M3kW7YDmpeARvQv/7IjpjJmQC9+HxahqvY33AYQ4JBhsP/A3vvM/WpyjYD7HiDXAOjbtXGUU5xGiY/JLfTrbbEhEB/d+5/bBRXZFYhGY02CKydWn8CpNRNcx9itxpTPW/Xx6K3TMXkTZjS31z+iv5anHjiJk4ePdx3DKdEs/TredRti2ODcQr/eVlMFB+Sh3nWF8hH9w6Vxj+qGIwF3K4FiQ3ML/vIlfgjE9s/f5++DkMYPNzsbPyouG3Iuo/vk8e+5B+o6YixprnAdwxSAZqFxce60vygaVTOCCw+3224r02vxwpS7AAP6w+A8nj00ZIDrNQH96Nt+uIdwhLsMHiTG5H+YxGGAu+th/bBs7gXaoygvCgRY21bB8hZrAkqZhtC0VAmiedAP1fH+fOHYTxHryuLnEpVIO1w87QkMK8Ca+GGD398+6MbhHqHDBiA+AqQy/+NIAioOyv84exBTmwGAaC8KBFjZUsHq1mhmMz2jCs3LlEyb6yS7F/NiXH3cp6mJR7NBLrRExmEDMHggVBTge6DCz43lisgRHuI5agAEKg4u3HDxg3G18iIWWAOw3ajKg/n0kPNcx9ijZc1x1rdbE1BqWlYq6WbXKfbssiOmMrK6gN+HEVfpagZAJL9T/7saXONyQeCRHqqjnAztDwAp4JSrxMGvKdx4O/C03sm4UXVyzTjOHOh23emeKPBuY5xNSZuGLRUtqyAV4V/BM0ecyknDxrmOESnxzCY3A/erhFgBz12I+dC3T+HG29koD8FNVYwNKY8xAS+M6EtHhy4cfBbHVx3pOsYe/bMxQV2HNQHFrm2t0lEX3S0eRw0+nKljznQdI3L8sN3NwPlY9R/FMXNqPMDNUkTPwbsu3837NcHhataIEoTPH3AJB8WjcWrjrlThrYYEDanyPIWtFLStg3ZHD5KdcVDVMK46+lNImZ70tzde6OjSw74FWJMWhTFz+ntAlZOhPQfTHuJmt6OozQDsTkLiXH/gFZHdGRAqvFGfoDFlMwHFpm2D0r4xuk/+/RP9uea4fyHh9+DU0xLmrAGIO9gJlHC0+0iodjcDgIuFVm4WdwnWAOzJgFh/rh3+GeKFXA/SBYEKr9UnaExbE1Askpuhfb3rFHsW82Jcc+ynGVjp5u1rMfBdNQC+g9kYF2MCaG4GoIy4eiJwf+5jlI1IDOfKAy5GIvrnFCq8Xh+nOV1mvy5FqKNOaV0T3Sd/QbjiqEtsxb/ZgbOfV/UAR5tjsmUyJigJJ+MWk7FVRzFlv9Ndx9ijIBReq6+k2WYCIqujTmmN6M1+200Z/THG7n+06xiRF3iODqcNHFwO4WLMnBYPodXJ0OpglaejlaVaiMOOSsCUQadzUvUJrmPsUTaE1+rjtGZtJiBqklty2/2ifKfDiQeM5ayRp7mOURRCV9+ZqUzhx0y7eTAFmj0UNxcuZ5sKP2boYExsBqCzBOFf9r+AD/UtwPHQ3ZQNhdfqEtYEREhHndIW4Wl/gMMHjuJTH7ogsq+5oib0Hc0AtDtYe9DqaL0DtHhAo5Ohs1sKP2bGwZhA6GLHQ5HyxeeaYZdzcGKY6yh7lA6FV7YkbE1ABGyf9o/yk//wqqFcfexn7Iz/Lgg8R3vjmx2cFe1izJxGD2GZk6HDJtACXsmlKQjdLHcIvAJcLFFCKr0E1w//LINiBTySs4uyKry2NUGTNQHOFEPxH5Co4drjr6AyZq8BuyJVMdTNwO0dkC3glHwmgKSjXWLKMg9Y7GZ0IL2qNMfaRSDuriMuVjWx/nzpwM/S14/u7ElWhdfrK2nKWBNQaMVQ/CtjlVx7/BUMSNh2v65KxQ90M7ACmws4Kb6lwd0mAI9FHsoiR8NDdi0UYr9nmISsu9ulsp41AN1xQHx/rh32aWJedC/nyYbwal2lnRhYQB1FsOAv5sWYfvy/MLzK0ZNsketw1QAAbG2CdAEWA6azubFcUVnkEYq7BkAVUkvyP05qsdNvi8Ab7GzsYndon5F8fuhFkV48lTsnoNJODCyA5BZoWR3hyg94InzuqEsYUzPSdZSi5WwGAHK1Yv2W/D6ZK7Bus9suVsPFHiNqFuHsLAAgqIP08vx9fmoZBFvz9/n7oFJJ1ndzCVGpGFd1DBcN/oTrGHsVKrxWn2CrXSCUN23roTXixR/gwsPO4QTb698jqfiB7s4CAGhuh015rBubtkKLowuPAJAm+rUt8URqs8ACh0ly7+czG3r/czPrIeP2ZJC0Pxqw6eGeOmPgyXxi4Eddx9ir7XcHbLarhHtd23qlfUP0i//ZI0/ntINOdh2j6Ck+bX2OchticwM05OHZuL4599lO6XyZ/PS2zczK047DQOqdXnwdoJBeAalFODxmEYB07DCn45eS8wefyeQBJ7mOsVcKvN2YYH17dNctFJvWNdCeh+eD3vaRAydx7ugzXMcoGa19jnUdAdZs7t3XAZvqYe3mXvqwHlB9CrbfjuN7TxI6O47wfZk1ELZB4nDo7vRP2A7pxZCt791s3ZSOHeo6Qkm5ZMg5tARtvNTypusoe6QKixrjZEMYUeXslK+S0LpSSbp7g9dp44ceyyWHn+c6Rklp6Xcc1LlOAdQ1QSoLwwd3/+a+VAbWbYFWl9P+O/D9p2D73PTw6teBaPTYQT0kX8g9vXflGt2wI/fftL8QmeIfejVkvegeaFOMBOHKoRdxdL9oz6wosLQ5zrJmu+61O1SheXlxFP+jBh/OZ4+6GE+iu1C1GCXjo8j4g1zHyGlpg0Wrc0W8KzsEMllYuwUWr45O8Yd1fOKRN2HbDIBIbahrb/ovVL7qNtc2qpBZl/vHq4LYEPAHgFSCbJta1Wxue1/YlDtVMHRzpcHedMSO7xDE2TmPpSomPlcfcLncs+5XVSs71kZ6rn1VawxFGVOdifA+hmjREJqXKWl3S5M7bUT1gdkvHH1Zqy9+9BcoFBsRGvuf0mdI46MROUVJc9v2tjZBnwRUV0HfRG5WwN+27icIctv72pK5E/6SKbeRd+9+kdxLjfe/PEP9NRKRBmBHYSuko1fcO6NvesGkfkMviu5cdZG79KVv1kDsb8BY11n2ZnVrBelA+NCANPaQuHeahaalSsbZ6ahdoW+ualhz2olH9nW9oqtk6R/PPQaR6H2HJlNRLe6dEP5u+/96b3m6jPjxW8DrTvKUIuUVOfju6P3glpA5E+5oAj0XHB1n3QUbkzFer08QqHUAexKmoWFRsRR/lqQ9+fjC62+34p9Hct5jVpd6k/CKnPv4e3Vp1/1pvyhwnNIl+ivXEcrB3AmzNgQhk4EVrrPsS33K55W6BOnQmoBdBR3QuEgJHB2L3kWr/TA864VrZm1yHaQsqFpd6j071aWdGwC//RdABPYoFL06KiqsASiQhyfNXIPHZMDdhQ+d1JLxeLmukmRgTcB22XalYZESFPBusB5Yq0E4+enrbl/pOkjZUM/qUu+ow0/vuQGQ4fe1I3JPYTOVIv2+HPD94pjILBFzx81c5aucDWx0nWVfklnhlbpKWrN2QFS6GRoX5d79R59uFs87a+H1t+fx6FKzK5n6aDuiVpd6SvX7cvZfdqpLH/wGSmZ/AmLvtbqvkXTlz12HKEdzJs5Y5KucThE0AalAeHlLeR8d3LEVmpcqGoEjSDphC8rk+dfMeMd1kPIU/gSwutR9jSRSH6hLH2gA5LB7m1G9uzCZSpDIXTLmDodXPJW3ORNnLBLRs4HI7yAPVHijIcG6tkjvZMyL5GalZaVG+ka/HTQCn1hw7ex/ug5SrmTKvGbE6lK3id4lH3/iA3Vp93OQqeBOcHhNcPFaSqbmh65DlLsHxs96Iwz1TCmCJwZVWNQUZ0lT3PGh1QWiuQt9Wte4DtJpTZ6EZy2YPusV10FMaHWpO5Sl9GnbbV3abQMgh92bQuXG/KYqSTfKqNriWMdc4h6aNOs1FaYALa6zdMaathhvNyQIS7gL0BCaluWu9C0SbZ6nU5+ZdvuLroMYkCnzUojVpS7z5EaZ/PRu69IeVyHJiLv/AvJA/lKVGOUPcvCP5rmOYd43d/zMv6PhOeryuusu2Jz0eb0+QbYEzwoI0tD4jpJuKpoOp5lQz37mmtlub0o1O5Epj/4FsLrUafoHmfLoHuvS3pchB3oDgu113SfdSFBxk+sU5oPmTpz9rAhnA0WxLqMh5fNyXYKObOk0Adl2pfFdyBbP3FhT6MnZC66b/azrIGY3/MwNYHWpEzaC7rUu7bUBkJE/2gDep4GgN1OVmJCQz8mouyK/8rxczR0/8++gH6MIFgYCtGU8XqyrpDFV/DsEUo25bX5hpmie/Bs8CT/+7DUz/+46iNk9+cSfN6BqdWnvQvA+J+c+vte6tM+NyHLQD/+GMKv3cpWc2+SQe/7qOoTZu7kTZr0i6n2caFwwuk+ZUHh1a4IN7cXbBCS35G70K5JtfpAr/mfbO//ok/Me+xsqVpf27DY595F91qXOnURy4LrvojzR40ilRvgrB627zXUM0zkPTLztVfW8MymSJkCBdxoTLGkqriuFVaFlVW61fxFtbdiCx+lW/ItIe+V3werSB+lfaevTqbrUqQZAZE5An/hFKLYV5n1vkOEykTk2DVVEHhx32+sq8lFgg+ssnbWmLXeRULYI7hDQLDQtVjrqiqfyg24W/DMWXDPrDddJTOfJZXMCst5FiNWlHbxBuuIyuaxzdanTZ5HKkDtbqAg+ASzudrTSsZxsxdky6keNroOYrntw/Ix3fC88kyI4MXC7rR25i4Q6InyHQJCE+neVTBHd3q2wyQ/ljPnTb7ObO4uQXPBIC1hd2mY5hGfLhQ91ui516TByGXbvFjSYQhE9PeXBBjQ4yxb9Fbc542b/c9uxwUVzJE1r1uPFLdFcHJhqzF3lGxbXFemrPPVOffq6WW+5DmK6T6bM24IEU0DKuC7JBiQ4a1+L/nbV5dtIZMS9ywiypwBLuvrfFj9ZAeFpMuLeyN8/b/ZtzsQZi3yyH6GInh4yofBqfYJVrdE5Prh9I7QsV7S4XoYtkqycOv/aGWX4PVZ6ZMq8ZQSUaV1iBaGeJlPmdbkudes6Mhn5kxVk9NQyWxPwJpr5iBz843L8AStZcybcsVorKk4VeM11ls5ShWXNcf7ZEHd6cqCGuVX+beuK5kz/beTVIIx/dP4XZxbN7I/ZNzn/0RVkvVPLa02AvEnW+4hM/WO36lK37yOV0fdsIhVMRiiHLXB/pjJ+ioz4yXrXQUzve/D42s2BXzEZpKgOftmYjPFyXSUpB+sCghQ0vKukIn/bwi6Ef2T9ijOfu67W7pcvQXLBI5sgmAxa+nVJ+DNZOUUueKTbdanH3xyqCGtv+gbITCB6Lyd7JgS5i4PW3mKr/UvfFa9/rV9bJvEg8HHXWboi4SvHDExRE+/6hvun1vft8n+TblKaV+ZW/BcV1af8IHHB01+sLaJliqY7VBEeO/cbSInWJZG7aK28pbOr/fek1x4ddM2XTwfuB4b31mc6thmVK3J3IphycenbtfEgmb4f5BLXWbpCBEb3T3NIVdeqclcbgPaN0L6+2Kb8AeFhvyJ++dNX2WVd5UQfPe90fO5HS6guiVyx7U6EHuv2K4BdycE/epqMjkP0v3vrMx36PRk9zop/+ZlzdG3aX77kcuAXrrN0xfZ1AW/naV1AGEDzsmJ83w/A7/z18Uus+JcfmfrHp8l44xBKoC7p78l6x/VW8YdenAHYka65+TTgp6BH5ePz82gJqjfIiHv+7DqIcUyRi1++5U6Fr7mO0lX9KkKOHZimb2zfrwQ6MwMQJKFpuRIUZfmUOxdMm/ktpIjOJDR5oY9PPQ0NfwpSnHXpvMd6vS712gzAjuTgu5+huWYs6LcojmNX60C/QfOAY6z4GwAEfWDCzK8r3AQUz2n25C4Teqmuks3Jnr/6TDXkFvsVYfEPFblpwfSZ37TibwBkyqPP0NZ3LFpMdYlv0NbnmHwUf8jTDMCOdOPX+pEJrgb9OnBgvsfros3Az+gIfiiH3VsUd8abwrvw5VsvEtX7gUrXWbpqeN8sR9SkkT38pu9xBiCE1nVKsjjXyqcRrlwwbVYJTPuafNA/n9WPbPxqILp1SYIfypR5ea1LBds/pCtqK6louBKVq4ATCzXuHtL8HeHXZAb+RkbZe0Gzb5e8eOvpoehDQI3rLF1VHQ85ZkCKytgHH4R31wAEaWhZDpm2onxwbhHCS+ZPv93W75h90r+dXkl7/yuBq0Ad1yX+DvJr+rb8RiY/XZC65ORgcV130xGo91nQz6KMLMyosgLR34H3Oznoh0Vz8puJjgtf/PYxIswDOch1lq6q8JQPDUgzuHLnXUO7NgDpRmhepcW3xS9nQyBMeW7arKI51MlEh847/wjCMFeXkJEFGnYFKr9Dgt/JuY8XvC45v1lEV908Gp8zUf0IcAa9t42wDuTvEC4k1CcY8eNXxN4Fmh666JVbDiHkT8CRrrN0lQAH9ctyaE36vV/89xoAhbb1Snvx3nDxjhJ8YuH0O1a7DmKKn/7x3NHAmYh8BOGMXtxGWAf8HdWFwBOc+5jTuuS8AdiRaq3HqrpD8PzDEY5A5EhUR4EMBKpy/0j1tn+7GWjN/aMNCMtRFqEsIgwWc8jgVSK1RbV4yxSHC1/4t/3E8x9F9GTXWbqjOh5yzMAUlb7y1Pq+26b8lUyb62TdJDyb9eLnP391bb3rKKb0aG2tx7iXD8ELD0e8I1CORBgFDES1CqEK2FaXaEZpRaQVaIBwOXiL0HARobeYV8avktro1KVINQDGFItzltyQ6NNU80vQz7jO0h2+p3yoJs0rK+PFearfdsL/ZluTn3v+K3cnXUcxpthYA2BMdyly0cu3zgT9N9dRukOAzS8X71sxgZnzp836d9vmZ0z35OUcAGPKgqBzJ8z4NqJXAWnXcbqqiKtmVtBr50+fdasVf2O6zxoAY3po7vhZv0bDj1Ech4sUuwYPzpo/ffb/dR3EmGJnDYAxvWDuxNnP+hKcDNgW0/xZLp53yjPTZ/3NdRBjSoE1AMb0kjnjb1+qQfhhlPmus5QaUf4ehPGT518z4x3XWYwpFdYAGNOLHjxx9tbq1oqzFX7vOkupUPgvLxGf/Nx1tcV5MLExEWW7AIzJk4tfuvUmRX9IhBvtLdHeBaAC35s/bdZ3bbGfMb0vsl9MxhS7BybMuCdUPQ9odJ2lCLWgcuH86bNqrfgbkx/WABiTRw9NnDVPg/BE4F3XWYrI0lD8kxdcO/Nh10GMKWXWABiTZw+eOHtxKh58GPir6yzRJ3/RIJz07LTb3nadxJhSZw2AMQXw2HG3N/jLF58jyB2us0SVwH3+hopzF15/e4PrLMaUA1sEaEyBXfjyrVeJ6s+AhOssEVkEmFLV6xZeO/tXroMYU05sBsCYAntw/IxfCd5poGtdZ4mA1Z6Ep1rxN6bwrAEwxoEHJtz2Qob4WMp7XcAzaY9Jz0y7/UXXQYwpR9YAGOPIoxNq6/zli89B5btAZO4ILwAV9Mf+hviZL1wza5PrMMaUK1sDYEwEXPzyLVNV+S0woJDjOlgD0ILIVQumzXyg0AMbY3ZmMwDGRMAD42c+Kr5MEnjTdZZ8UXhXPO9EK/7GRIM1AMZExANjZyzx+lR8GJH/dp2l14n+vm+f9AS7zMeY6LBXAMZE0LZ7BO4E4vkcpwCvANKKfH3h9Jk/zvdAxpiusRkAYyLogQkz7gnF+zCwzHWWHljtqZ5uxd+YaLIGwJiIemj8bS8nsxXjUP7HdZZueEiD8IRnrp39vOsgxpjds1cAxhSBi1669QbQu+jl0wPz8AogJcI3518z68d2i58x0WYzAMYUgbkTZtwL+mFgqesse7FK0dPmT5t1jxV/Y6LPGgBjisTcCbNeyXZkxkVxl4AoD/rx+AkLp89+wXUWY0zn2CsAY4rQxS/dep2iPwD69ORzeuEVQBKVryy4dubPe/pBxpjCshkAY4rQAxNm/ExFxgu85i6Fvo3HSVb8jSlO1gAYU6QeHD/jnfaa5pMEuYPC3iWgAve1k5i04JpZbxRwXGNML7JXAMaUgItfvPVMlfA3IMO78t91/RWAbgb5woLpsx7r4n9ojIkYmwEwpgQ8MHHGE76nJ6A8mr9R5C8gJ1jxN6Y02AyAMSXmwhe//TkR+SnQb1//bidnADpE+Jbt7TemtNgMgDEl5sGJs34roXdibywQFHgtFH+C7e03pvRYA2BMCXpg0m1vHzu+YryqXgnUdeMjGkT4srchPvHZabe93dv5jDHu2SsAY0rc+Qu/0d/vE79cVL8ATABi2/+/XV4BZIEXEf2Vn0n8/ukv1rYWOKoxpoCsATCmjFz6dm1VtiM7SQhHoOxX/7rXPwjClSLeai8d+4cVfWOMMcYYY4wxxhhjjDHGGGOMMcYYY4wxxhhjjDHGGGOMMcYYY4wxxhhjjDHGGGOMMcYYY4wxxhhjjDHGGGOMMcYYY4wxxhhj9uT/A8RVjLVXOjU5AAAAAElFTkSuQmCC;" vertex="1" parent="1">
          <mxGeometry x="680" y="40" width="120" height="120" as="geometry" />
        </mxCell>
        <mxCell id="-tSm10FkZ4Ool6qzO1sV-7" value="" style="curved=1;endArrow=classic;html=1;rounded=0;exitX=0.5;exitY=1;exitDx=0;exitDy=0;entryX=0.5;entryY=1;entryDx=0;entryDy=0;" edge="1" parent="1" source="-tSm10FkZ4Ool6qzO1sV-5" target="-tSm10FkZ4Ool6qzO1sV-3">
          <mxGeometry width="50" height="50" relative="1" as="geometry">
            <mxPoint x="400" y="230" as="sourcePoint" />
            <mxPoint x="450" y="180" as="targetPoint" />
            <Array as="points">
              <mxPoint x="170" y="210" />
            </Array>
          </mxGeometry>
        </mxCell>
        <mxCell id="-tSm10FkZ4Ool6qzO1sV-8" value="" style="curved=1;endArrow=classic;html=1;rounded=0;exitX=0.5;exitY=1;exitDx=0;exitDy=0;entryX=0.5;entryY=1;entryDx=0;entryDy=0;" edge="1" parent="1">
          <mxGeometry width="50" height="50" relative="1" as="geometry">
            <mxPoint x="425" y="160" as="sourcePoint" />
            <mxPoint x="585" y="160" as="targetPoint" />
            <Array as="points">
              <mxPoint x="495" y="210" />
            </Array>
          </mxGeometry>
        </mxCell>
        <mxCell id="-tSm10FkZ4Ool6qzO1sV-9" value="" style="curved=1;endArrow=classic;html=1;rounded=0;exitX=0.5;exitY=1;exitDx=0;exitDy=0;entryX=0.5;entryY=1;entryDx=0;entryDy=0;" edge="1" parent="1">
          <mxGeometry width="50" height="50" relative="1" as="geometry">
            <mxPoint x="260" y="40" as="sourcePoint" />
            <mxPoint x="420" y="40" as="targetPoint" />
            <Array as="points">
              <mxPoint x="330" y="-10" />
            </Array>
          </mxGeometry>
        </mxCell>
        <mxCell id="-tSm10FkZ4Ool6qzO1sV-10" value="" style="curved=1;endArrow=classic;html=1;rounded=0;exitX=0.5;exitY=1;exitDx=0;exitDy=0;entryX=0.5;entryY=1;entryDx=0;entryDy=0;" edge="1" parent="1">
          <mxGeometry width="50" height="50" relative="1" as="geometry">
            <mxPoint x="580" y="40" as="sourcePoint" />
            <mxPoint x="740" y="40" as="targetPoint" />
            <Array as="points">
              <mxPoint x="650" y="-10" />
            </Array>
          </mxGeometry>
        </mxCell>
      </root>
    </mxGraphModel>
  </diagram>
</mxfile>
